<svg width="151" height="150" viewBox="0 0 151 150" fill="none" xmlns="http://www.w3.org/2000/svg">
<g clip-path="url(#clip0)">
<path fill-rule="evenodd" clip-rule="evenodd" d="M148.618 74.5986C147.507 75.7712 146.027 76.4153 144.179 76.5299C142.331 76.6444 140.78 76.1883 139.527 75.1622C138.274 74.1357 137.593 72.7383 137.483 70.9696C137.374 69.2007 137.877 67.7295 138.994 66.5565C140.111 65.3831 141.593 64.7394 143.441 64.6249C145.289 64.5103 146.837 64.9663 148.084 65.993C149.332 67.0195 150.01 68.4173 150.12 70.1862C150.23 71.9549 149.729 73.4256 148.618 74.5986ZM148.759 70.2705C148.699 69.2953 148.412 68.4793 147.899 67.8227C147.386 67.1658 146.757 66.7096 146.013 66.4543C145.269 66.1986 144.443 66.0991 143.536 66.1554C142.629 66.2116 141.819 66.4125 141.107 66.7584C140.394 67.104 139.823 67.6345 139.395 68.3499C138.967 69.0649 138.784 69.9099 138.844 70.8851C138.905 71.8601 139.191 72.676 139.704 73.3329C140.217 73.9896 140.849 74.4455 141.599 74.7008C142.349 74.9557 143.177 75.0554 144.084 74.9992C144.991 74.9429 145.798 74.7418 146.505 74.3967C147.212 74.0512 147.78 73.5208 148.208 72.8058C148.636 72.0905 148.82 71.2455 148.759 70.2705ZM145.556 53.5646L141.739 54.5922L143.152 59.8409L141.835 60.1953L140.422 54.9464L135.108 56.3769L134.709 54.8959L146.474 51.7294L148.622 59.7097L147.306 60.0641L145.556 53.5646ZM130.608 45.62L138.391 41.4927C137.966 41.3452 137.642 41.1408 137.42 40.8793C137.197 40.6179 136.937 40.2062 136.639 39.6441L137.618 39.1253C138.07 39.9781 138.579 40.4831 139.144 40.6399C139.71 40.7965 140.385 40.7182 141.17 40.4046L141.729 41.4585L131.327 46.9747L130.608 45.62ZM123.208 34.5142L126.441 23.2626L126.418 23.2374L119.063 30.0159L118.023 28.8882L126.982 20.6316L128.253 22.01L124.995 33.2848L125.018 33.3099L132.398 26.5084L133.438 27.6361L124.478 35.8927L123.208 34.5142ZM113.942 25.6135L121.605 16.1419L122.797 17.1064L115.134 26.578L113.942 25.6135ZM109.607 18.1041L110.355 16.9646L114.172 19.472L113.424 20.6112L109.607 18.1041ZM94.9951 138.619L107.522 133.244L108.06 134.496L95.5325 139.871L94.9951 138.619ZM106.026 20.1204L98.8762 16.7061L104.126 5.71175L105.51 6.37254L100.847 16.1368L106.614 18.8901L106.026 20.1204ZM96.185 15.6254L88.553 13.4961L91.8268 1.76065L93.3039 2.17274L90.3964 12.5951L96.5514 14.3122L96.185 15.6254ZM83.5455 9.58806L78.1982 9.12322L76.8645 12.069L75.2858 11.9318L80.8224 0.183594L82.52 0.331121L85.9296 12.8569L84.3509 12.7197L83.5455 9.58806ZM81.5658 1.66793L81.5318 1.66484L78.8254 7.80949L83.1713 8.18716L81.5658 1.66793ZM79.3288 137.574L80.9133 137.549L76.6129 149.803L74.9091 149.831L70.2307 137.722L71.8152 137.696L72.9381 140.728L78.305 140.641L79.3288 137.574ZM73.4543 142.083L75.7212 148.403L75.7552 148.403L77.8158 142.013L73.4543 142.083ZM63.9109 149.017L65.8072 138.364L59.5162 137.244L59.7552 135.902L67.5561 137.291L65.4206 149.285L63.9109 149.017ZM48.3894 12.2431L61.4024 8.18201L61.8085 9.48318L48.7955 13.5445L48.3894 12.2431ZM41.4845 133.794L42.121 132.588L46.1592 134.72L45.5227 135.926L41.4845 133.794ZM33.121 136.966L39.851 126.81L41.1295 127.657L34.3993 137.813L33.121 136.966ZM34.7596 22.8546L30.6567 26.3153L31.8027 29.339L30.5914 30.3608L26.1748 18.1473L27.4772 17.0487L38.7581 23.4723L37.5468 24.4941L34.7596 22.8546ZM27.7508 18.6682L27.7249 18.69L30.1686 24.9437L33.503 22.1312L27.7508 18.6682ZM29.2974 31.8037L24.2761 37.9331L14.8513 30.2126L15.8232 29.0262L24.1935 35.883L28.2429 30.94L29.2974 31.8037ZM20.8867 41.3143C21.1988 42.3657 20.9788 43.5787 20.2267 44.9543C19.4747 46.3296 18.572 47.1699 17.5185 47.4742C16.4652 47.7787 15.3655 47.6174 14.2191 46.9906L7.08772 43.0912L7.8233 41.7455L14.9549 45.6451C16.6694 46.5824 18.0278 46.1343 19.0306 44.3003C20.0333 42.4665 19.6778 41.0806 17.9633 40.1431L10.8317 36.2438L11.5675 34.8981L18.6991 38.7977C19.8453 39.4245 20.5745 40.2635 20.8867 41.3143ZM15.913 53.577L6.27076 50.8537L6.26149 50.8865L14.9034 57.1519L14.5327 58.4637L3.89013 59.2824L3.88085 59.3153L13.5231 62.0386L13.1063 63.5145L1.38154 60.203L1.95125 58.186L12.7292 57.2637L12.7385 57.231L4.03539 50.8067L4.6051 48.7896L16.3298 52.1011L15.913 53.577ZM4.00242 66.244C5.68127 66.3354 6.66245 67.1172 6.94617 68.5889L6.98017 68.5908C7.10956 68.0973 7.38113 67.7081 7.79466 67.4236C8.2086 67.139 8.67323 66.9595 9.18937 66.8852C9.7053 66.811 10.2138 66.7704 10.7147 66.7636C11.2158 66.7568 11.6487 66.7463 12.0134 66.7321C12.3785 66.7179 12.5809 66.655 12.621 66.5435L12.723 66.5491L12.633 68.1995C12.5489 68.2861 12.3134 68.3244 11.9271 68.3145C11.5409 68.3048 11.1202 68.3019 10.6649 68.3054C10.2097 68.3091 9.7494 68.3493 9.28436 68.4264C8.81952 68.5032 8.42742 68.7037 8.10826 69.0276C7.7893 69.3515 7.61375 69.8027 7.58223 70.3813L7.39184 73.8692L12.3091 74.1375L12.2256 75.6688L0.0601807 75.0052L0.329274 70.0708C0.39562 68.8572 0.757845 67.9014 1.41574 67.2035C2.07405 66.5056 2.93635 66.1857 4.00242 66.244ZM6.03072 73.7951L6.19679 70.7493C6.21368 70.4431 6.21677 70.1788 6.20606 69.9563C6.19555 69.7339 6.15517 69.4815 6.08532 69.1988C6.01526 68.9163 5.90853 68.6858 5.76451 68.5074C5.62069 68.3289 5.40764 68.1694 5.12515 68.0287C4.84267 67.8882 4.49734 67.8068 4.08896 67.7846C3.68058 67.7623 3.32845 67.8056 3.03236 67.9146C2.73628 68.0238 2.50716 68.1589 2.34459 68.3207C2.18223 68.4826 2.05098 68.7002 1.95063 68.9734C1.8505 69.2468 1.78312 69.4933 1.7483 69.7131C1.71348 69.9332 1.68772 70.1963 1.67103 70.5025L1.50496 73.548L6.03072 73.7951ZM6.17969 79.849C8.00874 79.5596 9.59569 79.8663 10.9403 80.7688C12.2852 81.6715 13.096 82.998 13.3733 84.7484C13.6504 86.4987 13.289 88.0111 12.2887 89.2848C11.2885 90.559 9.87405 91.3407 8.045 91.6302C6.21636 91.9197 4.6323 91.6129 3.2928 90.7092C1.95372 89.8057 1.14541 88.4786 0.868285 86.7282C0.591156 84.9779 0.950085 83.4663 1.94445 82.1932C2.93923 80.9201 4.35105 80.1387 6.17969 79.849ZM2.21478 86.5152C2.36767 87.4803 2.73072 88.2651 3.30372 88.8701C3.87694 89.4754 4.54617 89.8698 5.311 90.0532C6.07625 90.237 6.90764 90.2576 7.80517 90.1156C8.7029 89.9734 9.48999 89.6965 10.1666 89.2844C10.8433 88.8727 11.3609 88.2905 11.7188 87.5378C12.0771 86.7853 12.1797 85.9267 12.0268 84.9616C11.8739 83.9967 11.5111 83.2117 10.9379 82.6065C10.3651 82.0016 9.69294 81.6076 8.92213 81.4247C8.15132 81.2421 7.31725 81.2217 6.41952 81.3639C5.52199 81.5058 4.73779 81.7828 4.06671 82.1936C3.39583 82.6047 2.88113 83.1865 2.52282 83.9388C2.16492 84.6917 2.0621 85.5503 2.21478 86.5152ZM7.00489 102.849L10.7061 101.46L8.79583 96.3707L10.0721 95.8916L11.9823 100.981L17.135 99.0466L17.6741 100.482L6.26746 104.764L3.36348 97.0265L4.63971 96.5475L7.00489 102.849ZM22.6409 109.32L15.2864 114.17C15.7238 114.276 16.0657 114.449 16.3117 114.688C16.5581 114.927 16.8561 115.312 17.2061 115.843L16.2816 116.453C15.75 115.647 15.1956 115.193 14.6178 115.09C14.0403 114.988 13.3756 115.131 12.6235 115.518L11.9668 114.522L21.7966 108.04L22.6409 109.32ZM24.6056 118.08L23.5401 118.931L20.6909 115.362L21.7564 114.511L24.6056 118.08ZM31.0607 119.673L28.9067 131.18L28.9321 131.203L35.6133 123.759L36.7545 124.784L28.6164 133.85L27.2215 132.598L29.3984 121.066L29.373 121.043L22.6692 128.512L21.5279 127.488L29.6658 118.421L31.0607 119.673ZM49.5328 132.373L56.9771 135.086L52.8047 146.533L51.3639 146.008L55.0694 135.842L49.0659 133.653L49.5328 132.373ZM130.829 125.106L129.749 126.195L122.066 118.577L117.567 123.115L116.599 122.155L122.177 116.528L130.829 125.106ZM133.124 39.7916L131.983 40.5371L129.486 36.7137L130.627 35.9683L133.124 39.7916ZM125.871 113.485C125.66 112.409 125.995 111.222 126.875 109.925C127.754 108.627 128.733 107.877 129.81 107.674C130.888 107.471 131.967 107.736 133.049 108.47L139.777 113.03L138.916 114.3L132.188 109.739C130.571 108.642 129.176 108.959 128.003 110.689C126.83 112.419 127.052 113.833 128.67 114.929L135.397 119.49L134.537 120.759L127.809 116.199C126.728 115.466 126.082 114.561 125.871 113.485ZM131.995 101.748L141.331 105.383L141.344 105.352L133.342 98.2865L133.837 97.0162L144.509 97.2214L144.522 97.1897L135.185 93.5547L135.741 92.1256L147.094 96.5458L146.334 98.4989L135.517 98.3835L135.505 98.4153L143.552 105.644L142.792 107.597L131.438 103.177L131.995 101.748ZM145.066 90.2755C143.404 90.0251 142.501 89.154 142.358 87.662L142.324 87.6569C142.149 88.1359 141.842 88.4975 141.403 88.7417C140.964 88.9856 140.484 89.1202 139.964 89.1453C139.443 89.1703 138.933 89.1624 138.434 89.1216C137.934 89.0808 137.502 89.0503 137.138 89.0299C136.773 89.0095 136.566 89.0528 136.515 89.1602L136.414 89.1449L136.66 87.5104C136.752 87.4323 136.99 87.4164 137.374 87.4628C137.757 87.5089 138.176 87.5518 138.629 87.5916C139.083 87.6311 139.545 87.6348 140.015 87.6021C140.485 87.5695 140.895 87.4071 141.243 87.115C141.591 86.8228 141.809 86.3903 141.895 85.8173L142.415 82.3632L137.545 81.6299L137.774 80.1134L149.822 81.9276L149.086 86.8139C148.905 88.016 148.453 88.9331 147.732 89.5655C147.011 90.1978 146.122 90.4345 145.066 90.2755ZM146.913 88.3652C147.09 88.2196 147.242 88.0154 147.368 87.7529C147.493 87.4902 147.584 87.2514 147.639 87.0357C147.695 86.8199 147.745 86.5605 147.791 86.2572L148.245 83.2411L143.763 82.5661L143.309 85.5822C143.263 85.8855 143.235 86.1484 143.225 86.3709C143.214 86.5933 143.23 86.8484 143.273 87.1364C143.316 87.4242 143.4 87.6639 143.527 87.8553C143.653 88.0465 143.85 88.2253 144.118 88.3922C144.386 88.5589 144.722 88.6729 145.126 88.7337C145.531 88.7946 145.885 88.7848 146.19 88.7044C146.495 88.6238 146.736 88.5109 146.913 88.3652Z" fill="white"/>
<g filter="url(#filter0_b)">
<circle cx="75" cy="75" r="20" fill="white" fill-opacity="0.15"/>
</g>
<circle cx="75" cy="75.0006" r="6.66667" fill="white"/>
</g>
<defs>
<filter id="filter0_b" x="45" y="45" width="60" height="60" filterUnits="userSpaceOnUse" color-interpolation-filters="sRGB">
<feFlood flood-opacity="0" result="BackgroundImageFix"/>
<feGaussianBlur in="BackgroundImage" stdDeviation="5"/>
<feComposite in2="SourceAlpha" operator="in" result="effect1_backgroundBlur"/>
<feBlend mode="normal" in="SourceGraphic" in2="effect1_backgroundBlur" result="shape"/>
</filter>
<clipPath id="clip0">
<rect width="150.206" height="150" fill="white"/>
</clipPath>
</defs>
</svg>
