<svg width="24" height="24" viewBox="0 0 24 24" fill="none" xmlns="http://www.w3.org/2000/svg">
<g opacity="0.5">
<path d="M6.38752 9.67214L6.38741 9.67181C6.28738 9.38062 5.97062 9.22067 5.67751 9.32399L5.71075 9.4183L5.67857 9.32362C2.67629 10.344 0.9 12.0159 0.9 13.9402C0.9 15.5394 2.1512 16.9405 4.14218 17.936C6.13812 18.9341 8.90421 19.5402 12 19.5402C15.0958 19.5402 17.8619 18.9341 19.8578 17.936C21.8488 16.9405 23.1 15.5394 23.1 13.9402C23.1 12.016 21.3239 10.3441 18.3218 9.32375C18.0291 9.22192 17.7127 9.38153 17.6126 9.6717L17.6124 9.67235C17.5142 9.96356 17.6693 10.2807 17.9619 10.3801C19.2337 10.8128 20.2429 11.3665 20.9322 11.9825C21.6218 12.5989 21.9833 13.2698 21.9833 13.9402C21.9833 14.5283 21.7104 15.1019 21.2039 15.6355C20.6972 16.1695 19.9613 16.6582 19.0501 17.0724C17.2278 17.9008 14.7216 18.4236 12 18.4236C9.27843 18.4236 6.77218 17.9008 4.94993 17.0724C4.03868 16.6582 3.30278 16.1695 2.79606 15.6355C2.28963 15.1019 2.01667 14.5283 2.01667 13.9402C2.01667 13.2698 2.37824 12.5989 3.06784 11.9825C3.7571 11.3665 4.76623 10.8128 6.03808 10.3802C6.33038 10.2809 6.48692 9.96476 6.38752 9.67214Z" fill="white" stroke="white" stroke-width="0.2"/>
<path d="M0.9 17.6057C0.9 19.2049 2.1512 20.606 4.14218 21.6015C6.13812 22.5996 8.90421 23.2057 12 23.2057C15.0958 23.2057 17.8619 22.5996 19.8578 21.6015C21.8488 20.606 23.1 19.2049 23.1 17.6057V14.0151C23.1 13.7069 22.8499 13.4568 22.5417 13.4568C22.2334 13.4568 21.9833 13.7069 21.9833 14.0151V17.6057C21.9833 18.1938 21.7104 18.7674 21.2039 19.301C20.6972 19.835 19.9613 20.3237 19.0501 20.7379C17.2278 21.5663 14.7216 22.089 12 22.089C9.27843 22.089 6.77218 21.5663 4.94993 20.7379C4.03868 20.3237 3.30278 19.835 2.79606 19.301C2.28963 18.7674 2.01667 18.1938 2.01667 17.6057V13.939C2.01667 13.6308 1.76656 13.3807 1.45833 13.3807C1.1501 13.3807 0.9 13.6308 0.9 13.939V17.6057Z" fill="white" stroke="white" stroke-width="0.2"/>
<path d="M1.37097 15.0309L1.37105 15.0307C2.24945 13.5367 4.27368 12.3449 7.04309 11.655L7.04317 11.655C7.34416 11.5803 7.64609 11.7623 7.71986 12.0627C7.71986 12.0628 7.71987 12.0628 7.71988 12.0628L7.62276 12.0867C7.68326 12.3323 7.53384 12.5807 7.28909 12.6422L1.37097 15.0309ZM1.37097 15.0309C1.21479 15.2975 1.30398 15.639 1.56951 15.7954L1.37097 15.0309Z" fill="white" stroke="white" stroke-width="0.2"/>
<path d="M16.6855 12.7393L16.6856 12.7393C17.9203 13.0465 18.9913 13.4626 19.8415 13.9523C20.6926 14.4426 21.3167 15.0033 21.6661 15.5969C21.7701 15.7746 21.9568 15.8727 22.1474 15.8727C22.2438 15.8727 22.3414 15.8483 22.4293 15.7956C22.6953 15.6386 22.7853 15.2971 22.6278 15.0309C21.7504 13.5368 19.7252 12.345 16.9558 11.6552L16.9558 11.6552L16.9553 11.6551C16.6548 11.5816 16.3529 11.7632 16.279 12.0627C16.2043 12.362 16.3864 12.6645 16.6855 12.7393Z" fill="white" stroke="white" stroke-width="0.2"/>
<path d="M7.775 7.98091C7.775 10.3104 9.67052 12.2059 12 12.2059C14.3295 12.2059 16.225 10.3104 16.225 7.98091C16.225 7.34949 15.991 6.61959 15.6462 5.88401C15.3006 5.14649 14.839 4.39391 14.3742 3.71454C13.4449 2.3563 12.4966 1.28239 12.4177 1.1936C12.2047 0.952564 11.7955 0.952524 11.5824 1.19348C11.5043 1.28142 10.5556 2.35569 9.6258 3.71454C9.16096 4.39391 8.69943 5.14649 8.35376 5.88401C8.00899 6.61959 7.775 7.34949 7.775 7.98091ZM8.89167 7.98091C8.89167 7.61045 9.01538 7.15751 9.2254 6.65948C9.43473 6.16305 9.72646 5.62953 10.0549 5.10019C10.6826 4.0885 11.4401 3.09893 12 2.42354C12.5599 3.09893 13.3174 4.0885 13.9451 5.10019C14.2735 5.62953 14.5653 6.16305 14.7746 6.65948C14.9846 7.15751 15.1083 7.61045 15.1083 7.98091C15.1083 9.69484 13.7139 11.0892 12 11.0892C10.2861 11.0892 8.89167 9.69484 8.89167 7.98091Z" fill="white" stroke="white" stroke-width="0.2"/>
</g>
</svg>
