<svg width="23" height="23" viewBox="0 0 23 23" fill="none" xmlns="http://www.w3.org/2000/svg">
<g opacity="0.5" clip-path="url(#clip0)">
<path d="M4.39128 2.23096H1.45794C1.05314 2.23096 0.724609 2.55949 0.724609 2.96429V5.89762C0.724609 6.30242 1.05314 6.63096 1.45794 6.63096C1.86274 6.63096 2.19128 6.30242 2.19128 5.89762V3.69762H4.39128C4.79608 3.69762 5.12461 3.36909 5.12461 2.96429C5.12461 2.55949 4.79608 2.23096 4.39128 2.23096Z" fill="white"/>
<path d="M21.9914 15.4307C21.5866 15.4307 21.258 15.7592 21.258 16.164V18.364H19.058C18.6532 18.364 18.3247 18.6925 18.3247 19.0973C18.3247 19.5021 18.6532 19.8307 19.058 19.8307H21.9914C22.3962 19.8307 22.7247 19.5021 22.7247 19.0973V16.164C22.7247 15.7592 22.3962 15.4307 21.9914 15.4307Z" fill="white"/>
<path d="M21.9914 2.23096H19.058C18.6532 2.23096 18.3247 2.55949 18.3247 2.96429C18.3247 3.36909 18.6532 3.69762 19.058 3.69762H21.258V5.89762C21.258 6.30242 21.5866 6.63096 21.9914 6.63096C22.3962 6.63096 22.7247 6.30242 22.7247 5.89762V2.96429C22.7247 2.55949 22.3962 2.23096 21.9914 2.23096Z" fill="white"/>
<path d="M4.39128 18.364H2.19128V16.164C2.19128 15.7592 1.86274 15.4307 1.45794 15.4307C1.05314 15.4307 0.724609 15.7592 0.724609 16.164V19.0973C0.724609 19.5021 1.05314 19.8307 1.45794 19.8307H4.39128C4.79608 19.8307 5.12461 19.5021 5.12461 19.0973C5.12461 18.6925 4.79608 18.364 4.39128 18.364Z" fill="white"/>
<path d="M4.39105 5.16406C3.98625 5.16406 3.65771 5.4926 3.65771 5.8974V16.1641C3.65771 16.5689 3.98625 16.8974 4.39105 16.8974C4.79585 16.8974 5.12438 16.5689 5.12438 16.1641V5.8974C5.12438 5.4926 4.79585 5.16406 4.39105 5.16406Z" fill="white"/>
<path d="M7.32464 5.16406C6.91984 5.16406 6.59131 5.4926 6.59131 5.8974V13.2307C6.59131 13.6355 6.91984 13.9641 7.32464 13.9641C7.72944 13.9641 8.05798 13.6355 8.05798 13.2307V5.8974C8.05798 5.4926 7.72944 5.16406 7.32464 5.16406Z" fill="white"/>
<path d="M10.2577 5.16406C9.85295 5.16406 9.52441 5.4926 9.52441 5.8974V13.2307C9.52441 13.6355 9.85295 13.9641 10.2577 13.9641C10.6625 13.9641 10.9911 13.6355 10.9911 13.2307V5.8974C10.9911 5.4926 10.6625 5.16406 10.2577 5.16406Z" fill="white"/>
<path d="M13.1913 5.16406C12.7865 5.16406 12.458 5.4926 12.458 5.8974V16.1641C12.458 16.5689 12.7865 16.8974 13.1913 16.8974C13.5961 16.8974 13.9247 16.5689 13.9247 16.1641V5.8974C13.9247 5.4926 13.5961 5.16406 13.1913 5.16406Z" fill="white"/>
<path d="M16.1244 5.16406C15.7196 5.16406 15.3911 5.4926 15.3911 5.8974V13.2307C15.3911 13.6355 15.7196 13.9641 16.1244 13.9641C16.5292 13.9641 16.8578 13.6355 16.8578 13.2307V5.8974C16.8578 5.4926 16.5292 5.16406 16.1244 5.16406Z" fill="white"/>
<path d="M19.058 5.16406C18.6532 5.16406 18.3247 5.4926 18.3247 5.8974V16.1641C18.3247 16.5689 18.6532 16.8974 19.058 16.8974C19.4628 16.8974 19.7914 16.5689 19.7914 16.1641V5.8974C19.7914 5.4926 19.4628 5.16406 19.058 5.16406Z" fill="white"/>
<path d="M7.35395 15.4307H7.33928C6.93448 15.4307 6.61328 15.7592 6.61328 16.164C6.61328 16.5688 6.94915 16.8973 7.35395 16.8973C7.75875 16.8973 8.08728 16.5688 8.08728 16.164C8.08728 15.7592 7.75875 15.4307 7.35395 15.4307Z" fill="white"/>
<path d="M10.2871 15.4307H10.2724C9.86759 15.4307 9.54639 15.7592 9.54639 16.164C9.54639 16.5688 9.88225 16.8973 10.2871 16.8973C10.6919 16.8973 11.0204 16.5688 11.0204 16.164C11.0204 15.7592 10.6919 15.4307 10.2871 15.4307Z" fill="white"/>
<path d="M16.1538 15.4307H16.1391C15.7343 15.4307 15.4131 15.7592 15.4131 16.164C15.4131 16.5688 15.749 16.8973 16.1538 16.8973C16.5586 16.8973 16.8871 16.5688 16.8871 16.164C16.8871 15.7592 16.5586 15.4307 16.1538 15.4307Z" fill="white"/>
</g>
<defs>
<clipPath id="clip0">
<rect width="22" height="22" fill="white" transform="translate(0.724609 0.0307617)"/>
</clipPath>
</defs>
</svg>
