<svg width="20" height="21" viewBox="0 0 20 21" fill="none" xmlns="http://www.w3.org/2000/svg">
<g opacity="0.5" clip-path="url(#clip0)">
<path d="M18.5417 20.0684H1.45833C0.654167 20.0684 0 19.4142 0 18.61V1.52669C0 0.722526 0.654167 0.0683594 1.45833 0.0683594H18.5417C19.3458 0.0683594 20 0.722526 20 1.52669V18.61C20 19.4142 19.3458 20.0684 18.5417 20.0684ZM1.45833 1.31836C1.34333 1.31836 1.25 1.41169 1.25 1.52669V18.61C1.25 18.725 1.34333 18.8184 1.45833 18.8184H18.5417C18.6567 18.8184 18.75 18.725 18.75 18.61V1.52669C18.75 1.41169 18.6567 1.31836 18.5417 1.31836H1.45833Z" fill="white"/>
<path d="M16.8747 17.5685H11.458C11.113 17.5685 10.833 17.2885 10.833 16.9435V14.0269C10.833 13.6819 11.113 13.4019 11.458 13.4019H16.8747C17.2197 13.4019 17.4997 13.6819 17.4997 14.0269V16.9435C17.4997 17.2885 17.2197 17.5685 16.8747 17.5685ZM12.083 16.3185H16.2497V14.6519H12.083V16.3185Z" fill="white"/>
<path d="M13.5413 10.0684C13.4147 10.0684 13.288 10.03 13.1805 9.95419L10.1197 7.79336C10.048 7.74169 9.95134 7.74169 9.87967 7.79336L6.81884 9.95419C6.62801 10.0892 6.37801 10.1059 6.17051 9.99836C5.96301 9.89086 5.83301 9.67669 5.83301 9.44336V0.693359C5.83301 0.348359 6.11301 0.0683594 6.45801 0.0683594H13.5413C13.8863 0.0683594 14.1663 0.348359 14.1663 0.693359V9.44336C14.1663 9.67669 14.0363 9.89086 13.8288 9.99836C13.738 10.045 13.6397 10.0684 13.5413 10.0684ZM7.08301 1.31836V8.23753L9.15884 6.77253C9.66217 6.41753 10.338 6.41753 10.8413 6.77253L12.9163 8.23753V1.31836H7.08301Z" fill="white"/>
</g>
<defs>
<clipPath id="clip0">
<rect width="20" height="20" fill="white" transform="translate(0 0.0683594)"/>
</clipPath>
</defs>
</svg>
