<svg width="16" height="16" viewBox="0 0 16 16" fill="none" xmlns="http://www.w3.org/2000/svg">
<path fill-rule="evenodd" clip-rule="evenodd" d="M5.49982 2.16602C4.62035 2.16933 4.13974 2.19693 3.77793 2.42654C3.56957 2.55877 3.39297 2.73537 3.26074 2.94374C2.99976 3.35497 2.99976 3.91968 2.99976 5.04909V10.949C2.99976 12.0784 2.99976 12.6431 3.26074 13.0543C3.39297 13.2627 3.56957 13.4393 3.77793 13.5715C4.18917 13.8325 4.75387 13.8325 5.88329 13.8325H10.1165C11.2459 13.8325 11.8106 13.8325 12.2218 13.5715C12.4302 13.4393 12.6068 13.2627 12.739 13.0543C13 12.6431 13 12.0784 13 10.949V5.04909C13 3.91968 13 3.35497 12.739 2.94374C12.6068 2.73537 12.4302 2.55877 12.2218 2.42654C11.86 2.19693 11.3794 2.16933 10.4999 2.16602C10.4995 2.62587 10.1265 2.99851 9.66659 2.99851H6.33317C5.87321 2.99851 5.50028 2.62587 5.49982 2.16602ZM5.49982 7.16516C5.49982 6.70491 5.87292 6.33181 6.33317 6.33181H9.66659C10.1268 6.33181 10.4999 6.70491 10.4999 7.16516C10.4999 7.62541 10.1268 7.99851 9.66659 7.99851H6.33317C5.87292 7.99851 5.49982 7.62541 5.49982 7.16516ZM6.33317 9.66563C5.87292 9.66563 5.49982 10.0387 5.49982 10.499C5.49982 10.9592 5.87292 11.3323 6.33317 11.3323H7.99988C8.46013 11.3323 8.83323 10.9592 8.83323 10.499C8.83323 10.0387 8.46013 9.66563 7.99988 9.66563H6.33317Z" fill="#1226AA"/>
</svg>
