<svg width="61" height="61" viewBox="0 0 61 61" fill="none" xmlns="http://www.w3.org/2000/svg">
<g opacity="0.5">
<path d="M30.7246 1.13867C30.0628 1.13867 29.4291 1.42124 28.9857 1.91381C27.4196 3.65479 24.288 7.2271 20.9105 11.5907C20.9039 11.5991 20.8975 11.6077 20.8913 11.6163C20.5645 12.0659 20.6524 12.6969 21.095 13.0394C21.5461 13.3885 22.1949 13.3059 22.5438 12.8548C25.3615 9.21445 28.0057 6.13181 29.6917 4.2253V57.0472C18.8491 56.5074 10.194 47.5169 10.194 36.5427C10.194 32.1027 13.5577 25.1203 19.9214 16.3504C20.2564 15.8887 20.1537 15.243 19.692 14.9079C19.2397 14.5796 18.6102 14.6716 18.2699 15.1102C18.263 15.1191 18.2562 15.1282 18.2495 15.1374C11.5336 24.3927 8.12842 31.5945 8.12842 36.5427C8.12842 49.0022 18.2649 59.1387 30.7245 59.1387C39.0868 59.1387 46.7298 54.5509 50.671 47.1659C50.7079 47.0967 50.7361 47.0253 50.7561 46.9527C50.8812 46.4974 50.6801 46.0001 50.2461 45.7685C49.7426 45.4998 49.1173 45.6902 48.8487 46.1933C45.4304 52.5987 38.9473 56.6853 31.7574 57.0443V52.5406L48.1425 36.1555C48.5459 35.7522 48.5459 35.0982 48.1425 34.695C47.739 34.2917 47.0852 34.2917 46.6819 34.695L31.7574 49.6196V42.2117L45.098 28.8711C45.5014 28.4678 45.5014 27.8138 45.098 27.4106C44.6946 27.0073 44.0407 27.0073 43.6374 27.4106L31.7576 39.2905V31.8826L42.0129 21.6272C42.4162 21.2239 42.4162 20.5699 42.0129 20.1667C41.6094 19.7634 40.9556 19.7634 40.5523 20.1667L31.7577 28.9613V21.5534L36.6445 16.6666C37.0479 16.2632 37.0479 15.6093 36.6445 15.2061C36.2411 14.8027 35.5872 14.8027 35.1839 15.2061L31.7577 18.6323V12.3537L33.728 10.3834C34.1313 9.98008 34.1313 9.32612 33.728 8.92293C33.3245 8.51959 32.6707 8.51959 32.2673 8.92293L31.7578 9.43243V4.22585C34.1397 6.91989 38.6467 12.2034 42.7211 18.0229C48.3045 25.9974 51.2556 32.4016 51.2556 36.5429C51.2556 38.3936 51.008 40.2311 50.5198 42.0043C50.3685 42.5543 50.6915 43.1228 51.2415 43.2742C51.3332 43.2996 51.4255 43.3116 51.5161 43.3116C51.8943 43.3116 52.2464 43.1022 52.426 42.7668C52.4617 42.7002 52.4905 42.6286 52.5114 42.5527C53.0486 40.601 53.3211 38.5791 53.3211 36.543C53.3211 25.9238 37.3567 7.35269 32.4638 1.91381C32.0203 1.42124 31.3864 1.13867 30.7246 1.13867Z" fill="white"/>
<path d="M21.095 13.0394C20.6524 12.6969 20.5645 12.0659 20.8913 11.6163L18.2699 15.1102C18.6102 14.6716 19.2397 14.5796 19.692 14.9079C20.1537 15.243 20.2564 15.8887 19.9214 16.3504L22.5438 12.8548C22.1949 13.3059 21.5461 13.3885 21.095 13.0394Z" fill="white"/>
<path d="M50.2461 45.7685C50.6801 46.0001 50.8812 46.4974 50.7561 46.9527L52.426 42.7668C52.2464 43.1022 51.8943 43.3116 51.5161 43.3116C51.4255 43.3116 51.3332 43.2996 51.2415 43.2742C50.6915 43.1228 50.3685 42.5543 50.5198 42.0043L48.8487 46.1933C49.1173 45.6902 49.7426 45.4998 50.2461 45.7685Z" fill="white"/>
<path d="M19.9924 28.2366C17.8647 27.5452 15.4477 29.3108 14.4897 32.2571C14.0571 33.588 13.9959 34.9663 14.3175 36.1383C14.6761 37.4449 15.499 38.395 16.5755 38.7449C16.8774 38.8431 17.1909 38.8913 17.5092 38.8913C18.3258 38.8913 19.1733 38.5733 19.9348 37.9647C20.8843 37.2059 21.6452 36.0551 22.0779 34.7244C22.5107 33.3935 22.5718 32.0152 22.2503 30.8432C21.8921 29.5368 21.069 28.5866 19.9924 28.2366ZM20.1137 34.0857C19.809 35.0233 19.2737 35.8491 18.6454 36.3513C18.3482 36.5889 17.7667 36.9603 17.2142 36.7807C16.6613 36.601 16.41 35.9588 16.3094 35.5919C16.0966 34.8161 16.1493 33.8334 16.4542 32.8959C17.0162 31.1675 18.1926 30.1555 19.0546 30.1555C19.1596 30.1555 19.2598 30.1705 19.3537 30.2011C19.9067 30.3809 20.158 31.0232 20.2586 31.3899C20.4713 32.1656 20.4186 33.1482 20.1137 34.0857Z" fill="white"/>
<path d="M25.1883 23.1794C25.1883 21.3516 23.7013 19.8645 21.8734 19.8645C20.0457 19.8645 18.5586 21.3516 18.5586 23.1794C18.5586 25.0073 20.0457 26.4944 21.8734 26.4944C23.7013 26.4942 25.1883 25.0073 25.1883 23.1794ZM21.8734 24.4287C21.1845 24.4287 20.6242 23.8682 20.6242 23.1793C20.6242 22.4904 21.1845 21.9299 21.8734 21.9299C22.5623 21.9299 23.1228 22.4904 23.1228 23.1793C23.1228 23.8682 22.5623 24.4287 21.8734 24.4287Z" fill="white"/>
</g>
</svg>
