<svg width="23" height="23" viewBox="0 0 23 23" fill="none" xmlns="http://www.w3.org/2000/svg">
<g opacity="0.5" clip-path="url(#clip0)">
<path d="M22.6565 12.856L20.5855 8.71382C20.4764 8.49545 20.2532 8.35752 20.009 8.35752H15.1307V6.93096C15.1307 6.57501 14.8421 6.28643 14.4861 6.28643H10.9481C10.6301 3.75982 8.46796 1.79907 5.85654 1.79907C3.02679 1.79907 0.724609 4.10121 0.724609 6.93096V19.3575C0.724609 19.7134 1.01319 20.002 1.36914 20.002H4.25436C4.54453 21.1892 5.61673 22.0731 6.89204 22.0731C8.1674 22.0731 9.23964 21.1892 9.52981 20.002H13.9195C14.2097 21.1892 15.2819 22.0731 16.5572 22.0731C17.8325 22.0731 18.9047 21.1892 19.1949 20.002H22.0801C22.436 20.002 22.7246 19.7134 22.7246 19.3575V13.1442C22.7246 13.0442 22.7013 12.9455 22.6565 12.856ZM5.85654 3.08813C7.97546 3.08813 9.69941 4.81204 9.69941 6.93096C9.69941 9.04988 7.9755 10.7738 5.85654 10.7738C3.73758 10.7738 2.01367 9.04988 2.01367 6.93096C2.01367 4.81204 3.73758 3.08813 5.85654 3.08813ZM6.89204 20.784C6.10546 20.784 5.46552 20.1441 5.46552 19.3575C5.46552 18.5709 6.1055 17.931 6.89204 17.931C7.67872 17.931 8.31865 18.5709 8.31865 19.3575C8.31865 20.1441 7.67872 20.784 6.89204 20.784ZM13.8416 18.7129H9.52981C9.23964 17.5257 8.1674 16.6419 6.89204 16.6419C5.61673 16.6419 4.54453 17.5257 4.25436 18.7129H2.01367V10.3282C2.9546 11.3913 4.32853 12.0628 5.85654 12.0628C8.46796 12.0628 10.6301 10.1021 10.9481 7.57545H13.8416V18.7129ZM15.1307 9.64658H19.6107L21.0372 12.4997H15.1307V9.64658ZM16.5572 20.784C15.7706 20.784 15.1307 20.1441 15.1307 19.3575C15.1307 18.5709 15.7706 17.931 16.5572 17.931C17.3438 17.931 17.9837 18.5709 17.9837 19.3575C17.9837 20.1441 17.3437 20.784 16.5572 20.784ZM21.4355 18.713H19.1949V18.7129C18.9047 17.5258 17.8325 16.6419 16.5572 16.6419C16.0342 16.6419 15.5455 16.7909 15.1307 17.0481V13.7888H21.4355V18.713Z" fill="white"/>
<path d="M7.35232 6.28636H6.50098V5.43506C6.50098 5.07911 6.2124 4.79053 5.85645 4.79053C5.50049 4.79053 5.21191 5.07911 5.21191 5.43506V6.93084C5.21196 7.28684 5.50049 7.57542 5.85649 7.57542H7.35232C7.70827 7.57542 7.99685 7.28684 7.99685 6.93089C7.99685 6.57493 7.70827 6.28636 7.35232 6.28636Z" fill="white"/>
</g>
<defs>
<clipPath id="clip0">
<rect width="22" height="22" fill="white" transform="translate(0.724609 0.936035)"/>
</clipPath>
</defs>
</svg>
