<svg width="16" height="16" viewBox="0 0 16 16" fill="none" xmlns="http://www.w3.org/2000/svg">
<path d="M8 11.8182C8.09889 11.8182 8.19556 11.7862 8.27779 11.7263C8.36001 11.6663 8.4241 11.5811 8.46194 11.4815C8.49978 11.3818 8.50969 11.2721 8.49039 11.1663C8.4711 11.0605 8.42348 10.9633 8.35355 10.887C8.28363 10.8107 8.19454 10.7588 8.09755 10.7378C8.00055 10.7167 7.90002 10.7275 7.80866 10.7688C7.7173 10.8101 7.63921 10.88 7.58427 10.9697C7.52932 11.0594 7.5 11.1648 7.5 11.2727C7.5 11.4174 7.55268 11.5561 7.64645 11.6584C7.74021 11.7607 7.86739 11.8182 8 11.8182ZM10.5 11.8182C10.5989 11.8182 10.6956 11.7862 10.7778 11.7263C10.86 11.6663 10.9241 11.5811 10.9619 11.4815C10.9998 11.3818 11.0097 11.2721 10.9904 11.1663C10.9711 11.0605 10.9235 10.9633 10.8536 10.887C10.7836 10.8107 10.6945 10.7588 10.5975 10.7378C10.5006 10.7167 10.4 10.7275 10.3087 10.7688C10.2173 10.8101 10.1392 10.88 10.0843 10.9697C10.0293 11.0594 10 11.1648 10 11.2727C10 11.4174 10.0527 11.5561 10.1464 11.6584C10.2402 11.7607 10.3674 11.8182 10.5 11.8182ZM10.5 9.63636C10.5989 9.63636 10.6956 9.60437 10.7778 9.54444C10.86 9.4845 10.9241 9.39931 10.9619 9.29965C10.9998 9.19998 11.0097 9.0903 10.9904 8.9845C10.9711 8.87869 10.9235 8.7815 10.8536 8.70521C10.7836 8.62893 10.6945 8.57698 10.5975 8.55594C10.5006 8.53489 10.4 8.54569 10.3087 8.58698C10.2173 8.62826 10.1392 8.69817 10.0843 8.78787C10.0293 8.87757 10 8.98303 10 9.09091C10 9.23557 10.0527 9.37431 10.1464 9.4766C10.2402 9.5789 10.3674 9.63636 10.5 9.63636ZM8 9.63636C8.09889 9.63636 8.19556 9.60437 8.27779 9.54444C8.36001 9.4845 8.4241 9.39931 8.46194 9.29965C8.49978 9.19998 8.50969 9.0903 8.49039 8.9845C8.4711 8.87869 8.42348 8.7815 8.35355 8.70521C8.28363 8.62893 8.19454 8.57698 8.09755 8.55594C8.00055 8.53489 7.90002 8.54569 7.80866 8.58698C7.7173 8.62826 7.63921 8.69817 7.58427 8.78787C7.52932 8.87757 7.5 8.98303 7.5 9.09091C7.5 9.23557 7.55268 9.37431 7.64645 9.4766C7.74021 9.5789 7.86739 9.63636 8 9.63636ZM11.5 3.09091H11V2.54545C11 2.40079 10.9473 2.26205 10.8536 2.15976C10.7598 2.05747 10.6326 2 10.5 2C10.3674 2 10.2402 2.05747 10.1464 2.15976C10.0527 2.26205 10 2.40079 10 2.54545V3.09091H6V2.54545C6 2.40079 5.94732 2.26205 5.85355 2.15976C5.75979 2.05747 5.63261 2 5.5 2C5.36739 2 5.24021 2.05747 5.14645 2.15976C5.05268 2.26205 5 2.40079 5 2.54545V3.09091H4.5C4.10218 3.09091 3.72064 3.26331 3.43934 3.57019C3.15804 3.87707 3 4.29328 3 4.72727V12.3636C3 12.7976 3.15804 13.2138 3.43934 13.5207C3.72064 13.8276 4.10218 14 4.5 14H11.5C11.8978 14 12.2794 13.8276 12.5607 13.5207C12.842 13.2138 13 12.7976 13 12.3636V4.72727C13 4.29328 12.842 3.87707 12.5607 3.57019C12.2794 3.26331 11.8978 3.09091 11.5 3.09091ZM12 12.3636C12 12.5083 11.9473 12.647 11.8536 12.7493C11.7598 12.8516 11.6326 12.9091 11.5 12.9091H4.5C4.36739 12.9091 4.24021 12.8516 4.14645 12.7493C4.05268 12.647 4 12.5083 4 12.3636V7.45455H12V12.3636ZM12 6.36364H4V4.72727C4 4.58261 4.05268 4.44387 4.14645 4.34158C4.24021 4.23929 4.36739 4.18182 4.5 4.18182H5V4.72727C5 4.87194 5.05268 5.01067 5.14645 5.11297C5.24021 5.21526 5.36739 5.27273 5.5 5.27273C5.63261 5.27273 5.75979 5.21526 5.85355 5.11297C5.94732 5.01067 6 4.87194 6 4.72727V4.18182H10V4.72727C10 4.87194 10.0527 5.01067 10.1464 5.11297C10.2402 5.21526 10.3674 5.27273 10.5 5.27273C10.6326 5.27273 10.7598 5.21526 10.8536 5.11297C10.9473 5.01067 11 4.87194 11 4.72727V4.18182H11.5C11.6326 4.18182 11.7598 4.23929 11.8536 4.34158C11.9473 4.44387 12 4.58261 12 4.72727V6.36364ZM5.5 9.63636C5.59889 9.63636 5.69556 9.60437 5.77779 9.54444C5.86001 9.4845 5.9241 9.39931 5.96194 9.29965C5.99978 9.19998 6.00969 9.0903 5.99039 8.9845C5.9711 8.87869 5.92348 8.7815 5.85355 8.70521C5.78363 8.62893 5.69454 8.57698 5.59755 8.55594C5.50055 8.53489 5.40002 8.54569 5.30866 8.58698C5.2173 8.62826 5.13921 8.69817 5.08427 8.78787C5.02932 8.87757 5 8.98303 5 9.09091C5 9.23557 5.05268 9.37431 5.14645 9.4766C5.24021 9.5789 5.36739 9.63636 5.5 9.63636ZM5.5 11.8182C5.59889 11.8182 5.69556 11.7862 5.77779 11.7263C5.86001 11.6663 5.9241 11.5811 5.96194 11.4815C5.99978 11.3818 6.00969 11.2721 5.99039 11.1663C5.9711 11.0605 5.92348 10.9633 5.85355 10.887C5.78363 10.8107 5.69454 10.7588 5.59755 10.7378C5.50055 10.7167 5.40002 10.7275 5.30866 10.7688C5.2173 10.8101 5.13921 10.88 5.08427 10.9697C5.02932 11.0594 5 11.1648 5 11.2727C5 11.4174 5.05268 11.5561 5.14645 11.6584C5.24021 11.7607 5.36739 11.8182 5.5 11.8182Z" fill="#1226AA"/>
</svg>
