<svg width="22" height="23" viewBox="0 0 22 23" fill="none" xmlns="http://www.w3.org/2000/svg">
<g opacity="0.5" clip-path="url(#clip0)">
<path d="M21.9083 18.5272L17.9181 11.5999C18.3306 10.6663 18.5629 9.63779 18.5629 8.55566C18.5629 4.38529 15.1708 0.993164 11.0004 0.993164C6.83006 0.993164 3.43793 4.38529 3.43793 8.55566C3.43793 9.63779 3.67031 10.6663 4.08281 11.5985L0.0925553 18.5244C-0.0463197 18.7664 -0.0270697 19.0675 0.14343 19.2875C0.31393 19.5075 0.598555 19.6065 0.86668 19.5323L4.90368 18.446L5.97756 22.4817C6.04906 22.7512 6.27593 22.9505 6.55093 22.9863C6.58256 22.9918 6.61281 22.9932 6.64168 22.9932C6.88506 22.9932 7.11331 22.8639 7.23706 22.6494L11.0004 16.1347L14.7638 22.6494C14.8876 22.8639 15.1158 22.9932 15.3592 22.9932C15.3881 22.9932 15.4197 22.9918 15.4499 22.9877C15.7249 22.9519 15.9518 22.7525 16.0233 22.483L17.0972 18.4474L21.1342 19.5337C21.4023 19.6079 21.6883 19.5089 21.8574 19.2889C22.0266 19.0689 22.0472 18.7678 21.9083 18.5272ZM6.87818 20.5223L6.05456 17.4272C6.00781 17.2512 5.89231 17.0999 5.73418 17.0078C5.57606 16.917 5.38631 16.8937 5.21168 16.939L2.11243 17.7723L4.87618 12.9749C5.97206 14.4902 7.60968 15.5874 9.50856 15.9697L6.87818 20.5223ZM4.81293 8.55566C4.81293 5.14429 7.58906 2.36816 11.0004 2.36816C14.4118 2.36816 17.1879 5.14429 17.1879 8.55566C17.1879 11.967 14.4118 14.7432 11.0004 14.7432C7.58906 14.7432 4.81293 11.967 4.81293 8.55566ZM16.7892 16.9404C16.6132 16.8937 16.4248 16.9184 16.2667 17.0092C16.1086 17.0999 15.9931 17.2512 15.9463 17.4285L15.1227 20.5237L12.4923 15.971C14.3898 15.5902 16.0288 14.4915 17.1247 12.9763L19.8884 17.7737L16.7892 16.9404Z" fill="white"/>
<path d="M15.0894 6.83973C15.0165 6.61835 14.8364 6.4506 14.6109 6.39148L12.6611 5.88135L11.5914 4.0801C11.3439 3.6621 10.6564 3.6621 10.4103 4.0801L9.34052 5.88135L7.38939 6.39148C7.16252 6.4506 6.98377 6.61835 6.90952 6.83973C6.83527 7.0611 6.87927 7.3031 7.02502 7.48598L8.33264 9.12223L8.18964 11.2604C8.17452 11.4982 8.28314 11.7279 8.47839 11.8667C8.67364 12.0056 8.92664 12.0317 9.14527 11.9382L11.0001 11.1504L12.855 11.9382C12.9416 11.9754 13.0338 11.9932 13.1245 11.9932C13.2648 11.9932 13.405 11.9506 13.5233 11.8667C13.7185 11.7279 13.8271 11.4982 13.8106 11.2604L13.6676 9.12223L14.9739 7.48598C15.1196 7.30448 15.1623 7.0611 15.0894 6.83973ZM12.4274 8.47323C12.3201 8.60798 12.2665 8.7771 12.2789 8.9476L12.3655 10.236L11.2696 9.76985C11.183 9.73273 11.0909 9.71485 11.0001 9.71485C10.9094 9.71485 10.8173 9.73273 10.7306 9.76985L9.63614 10.236L9.72139 8.9476C9.73377 8.7771 9.68014 8.60798 9.57289 8.47323L8.76027 7.45435L9.96064 7.13948C10.1353 7.0941 10.2851 6.97998 10.3773 6.82598L11.0001 5.77685L11.623 6.82598C11.7151 6.97998 11.865 7.0941 12.0396 7.13948L13.24 7.45435L12.4274 8.47323Z" fill="white"/>
</g>
<defs>
<clipPath id="clip0">
<rect width="22" height="22" fill="white" transform="translate(0 0.993164)"/>
</clipPath>
</defs>
</svg>
