<svg width="41" height="41" viewBox="0 0 41 41" fill="none" xmlns="http://www.w3.org/2000/svg">
<g opacity="0.5" clip-path="url(#clip0)">
<path d="M39.4315 12.8173C37.9663 11.3518 34.7699 11.1229 30.6619 12.1883C30.6417 12.1936 30.622 12.1998 30.6028 12.207C30.3226 12.3117 30.1612 12.6138 30.2381 12.9097C30.3198 13.2259 30.6427 13.416 30.9592 13.3339C34.542 12.4044 37.4677 12.527 38.5947 13.6538C39.7773 14.8366 39.856 17.9265 38.7998 21.7177C37.7295 25.559 35.7392 29.2708 33.6051 31.4049C31.9007 33.1093 29.6344 34.0481 27.2241 34.0481C24.9628 34.0481 22.8287 33.2216 21.1658 31.7119C23.3283 29.5449 24.6671 26.556 24.6671 23.2604C24.6671 22.2338 24.5505 21.1608 24.2999 19.8827C24.2456 19.605 24.0021 19.4048 23.7192 19.4048H22.4191C22.2861 18.8286 22.1283 18.246 21.9483 17.6625C23.642 16.307 25.9162 15.0643 28.4018 14.1411C28.7082 14.0276 28.8642 13.687 28.7506 13.3806C28.6437 13.0929 28.3368 12.9378 28.0461 13.014C28.0272 13.019 28.0085 13.0249 27.9898 13.0318C25.5515 13.9373 23.299 15.1439 21.5506 16.4727C19.6121 11.0851 15.9241 5.99658 12.6959 5.99658C9.77296 5.99658 6.80542 9.98462 5.00306 13.7166C4.99439 13.7345 4.98671 13.7527 4.98 13.771C4.8765 14.0531 5.00207 14.3732 5.27863 14.5067C5.57282 14.6489 5.92652 14.5256 6.06873 14.2311C8.10578 10.0136 10.7691 7.18005 12.6959 7.18005C14.1123 7.18005 15.9204 8.67755 17.6569 11.2886C19.2267 13.6498 20.5258 16.6341 21.2033 19.4048H4.18885C4.40186 18.5311 4.67743 17.6329 5.01099 16.7257C5.1236 16.419 4.96613 16.079 4.65943 15.9661C4.37112 15.8602 4.05368 15.9927 3.92285 16.2638C3.91451 16.2811 3.90692 16.2989 3.90015 16.3173C3.51593 17.3635 3.20496 18.3999 2.97302 19.4048H1.67297C1.39008 19.4048 1.14685 19.605 1.09222 19.8827C0.841675 21.1608 0.725098 22.2341 0.725098 23.2604C0.725098 25.9871 1.62201 28.5576 3.31848 30.6939C3.34886 30.7321 3.38299 30.7655 3.41993 30.7941C3.63049 30.9571 3.93226 30.962 4.15009 30.7891C4.40583 30.5858 4.44855 30.2138 4.2453 29.9578C2.71637 28.033 1.90857 25.7171 1.90857 23.2604C1.90857 22.4407 1.99036 21.5819 2.16461 20.588H23.2276C23.4021 21.5816 23.4839 22.4407 23.4839 23.2604C23.4839 29.2086 18.6444 34.0481 12.6962 34.0481C10.2857 34.0481 8.00416 33.2671 6.09894 31.7898C5.84046 31.5896 5.46875 31.6369 5.26856 31.895C5.09842 32.1145 5.10682 32.4159 5.27184 32.6243C5.30099 32.6611 5.33503 32.6951 5.37384 32.7251C7.48841 34.3648 10.0205 35.2312 12.6959 35.2312C15.575 35.2312 18.2193 34.2098 20.2866 32.5103C22.1793 34.2675 24.6277 35.2312 27.2241 35.2312C29.9506 35.2312 32.5138 34.1695 34.4416 32.2417C36.7115 29.9718 38.8181 26.061 39.9396 22.0351C40.5103 19.9871 41.6031 14.9889 39.4315 12.8173Z" fill="white"/>
<path d="M5.27863 14.5067C5.00207 14.3732 4.8765 14.0531 4.98 13.771L3.92285 16.2638C4.05368 15.9927 4.37112 15.8602 4.65943 15.9661C4.96613 16.079 5.1236 16.419 5.01099 16.7257L6.06873 14.2311C5.92652 14.5256 5.57282 14.6489 5.27863 14.5067Z" fill="white"/>
<path d="M4.15009 30.7891C3.93226 30.962 3.63049 30.9571 3.41993 30.7941L5.27184 32.6243C5.10682 32.4159 5.09842 32.1145 5.26856 31.895C5.46875 31.6369 5.84046 31.5896 6.09894 31.7898L4.2453 29.9578C4.44855 30.2138 4.40583 30.5858 4.15009 30.7891Z" fill="white"/>
<path d="M30.2381 12.9097C30.1612 12.6138 30.3226 12.3117 30.6028 12.207L28.0461 13.014C28.3368 12.9378 28.6437 13.0929 28.7506 13.3806C28.8642 13.687 28.7082 14.0276 28.4018 14.1411L30.9592 13.3339C30.6427 13.416 30.3198 13.2259 30.2381 12.9097Z" fill="white"/>
<path d="M36.7172 13.926C36.5659 13.8719 32.9489 12.639 27.7719 16.0472C27.1286 16.4708 27.7921 17.4508 28.4229 17.0357C33.0539 13.987 36.2683 15.0234 36.3217 15.0414C36.629 15.1494 36.9656 14.9892 37.0752 14.6825C37.1851 14.3746 37.0249 14.0361 36.7172 13.926C36.5659 13.8719 37.0249 14.0361 36.7172 13.926Z" fill="white"/>
<path d="M11.5612 8.69984C11.4159 8.7685 7.98663 10.4543 6.73602 16.5252C6.67254 16.8325 6.86938 17.1444 7.17456 17.2191C7.49591 17.2979 7.82825 17.0882 7.89508 16.7638C9.01508 11.3277 12.0253 9.79023 12.0702 9.76795C12.3635 9.62726 12.4886 9.27601 12.3491 8.98151C12.2094 8.6861 11.8563 8.56007 11.5612 8.69984C11.4159 8.7685 11.8563 8.56007 11.5612 8.69984Z" fill="white"/>
</g>
<defs>
<clipPath id="clip0">
<rect width="40" height="40" fill="white" transform="translate(0.725098 0.605957)"/>
</clipPath>
</defs>
</svg>
