<svg width="23" height="23" viewBox="0 0 23 23" fill="none" xmlns="http://www.w3.org/2000/svg">
<g opacity="0.5" clip-path="url(#clip0)">
<path d="M16.9964 5.9447V5.1156H21.7381C22.0957 5.1156 22.3851 4.82572 22.3851 4.46854V1.58309C22.3851 1.22592 22.0957 0.936035 21.7381 0.936035H16.3494C15.9922 0.936035 15.7023 1.22592 15.7023 1.58309V5.9447H6.25092C3.20371 5.9447 0.724609 8.4238 0.724609 11.4714V18.4463C0.724609 18.8035 1.01449 19.0934 1.37167 19.0934H9.29814V22.289C9.29814 22.6462 9.58802 22.936 9.9452 22.936H13.504C13.8612 22.936 14.1511 22.6462 14.1511 22.289V19.0934H22.0776C22.4347 19.0934 22.7246 18.8035 22.7246 18.4463V11.4714C22.7246 8.62689 20.52 5.9447 16.9964 5.9447ZM21.4305 17.7993C20.31 17.7993 12.8014 17.7993 11.7777 17.7993C11.7777 17.6088 11.7777 11.764 11.7777 11.4714C11.7777 9.77443 11.009 8.25341 9.80112 7.23882H15.7023V10.6225C14.7861 10.9003 14.1179 11.7527 14.1179 12.7587C14.1179 13.9894 15.1186 14.9906 16.3494 14.9906C17.5801 14.9906 18.5813 13.9894 18.5813 12.7587C18.5813 11.7527 17.9126 10.9003 16.9964 10.6225V7.23882C19.7415 7.23882 21.4305 9.28236 21.4305 11.4714V17.7993ZM12.857 21.6419H10.5923V19.0934H12.857V21.6419ZM2.01873 11.4714C2.01873 9.13776 3.91698 7.23882 6.25092 7.23882C8.58508 7.23882 10.4836 9.13759 10.4836 11.4714V17.7993C10.2268 17.7993 2.51847 17.7993 2.01873 17.7993V11.4714ZM16.3494 11.8209C16.8669 11.8209 17.2872 12.243 17.2872 12.7587C17.2872 13.2759 16.8666 13.6965 16.3494 13.6965C15.8326 13.6965 15.412 13.2759 15.412 12.7587C15.412 12.2409 15.8338 11.8209 16.3494 11.8209ZM21.091 3.82149H16.9964C16.9964 3.24677 16.9964 2.80698 16.9964 2.23015H21.091V3.82149Z" fill="white"/>
<path d="M7.67173 12.4045C8.0289 12.4045 8.31879 12.1146 8.31879 11.7574C8.31879 11.3998 8.0289 11.1104 7.67173 11.1104C6.86786 11.1104 4.68973 11.1104 3.98349 11.1104C3.62631 11.1104 3.33643 11.3998 3.33643 11.7574C3.33643 12.1146 3.62631 12.4045 3.98349 12.4045H7.67173Z" fill="white"/>
</g>
<defs>
<clipPath id="clip0">
<rect width="22" height="22" fill="white" transform="translate(0.724609 0.936035)"/>
</clipPath>
</defs>
</svg>
