<svg width="151" height="151" viewBox="0 0 151 151" fill="none" xmlns="http://www.w3.org/2000/svg">
<g filter="url(#filter0_b)">
<circle cx="75.7246" cy="75.606" r="75" fill="white" fill-opacity="0.05"/>
<circle cx="75.7246" cy="75.606" r="74.5" stroke="white" stroke-opacity="0.5"/>
</g>
<path d="M88.445 74.8289C89.1116 75.2138 89.1116 76.1761 88.445 76.561L66.1431 89.437C65.4764 89.8219 64.6431 89.3408 64.6431 88.571L64.6431 62.819C64.6431 62.0492 65.4764 61.568 66.1431 61.9529L88.445 74.8289Z" fill="white"/>
<path fill-rule="evenodd" clip-rule="evenodd" d="M133.166 67.1349C131.169 67.6601 129.375 67.4967 127.782 66.6454C126.19 65.7937 125.142 64.4126 124.64 62.5017C124.137 60.5909 124.369 58.8727 125.337 57.348C126.304 55.8232 127.787 54.7982 129.783 54.2732C131.78 53.748 133.571 53.9121 135.158 54.7652C136.744 55.6181 137.789 57.0003 138.291 58.9112C138.794 60.8222 138.564 62.539 137.603 64.0624C136.642 65.5854 135.162 66.6099 133.166 67.1349ZM136.821 59.2978C136.544 58.2441 136.054 57.4139 135.351 56.8065C134.648 56.199 133.861 55.8361 132.992 55.7178C132.123 55.5993 131.198 55.669 130.218 55.9268C129.238 56.1846 128.396 56.5795 127.691 57.1119C126.987 57.6442 126.477 58.3479 126.164 59.2228C125.851 60.0974 125.832 61.0615 126.109 62.1151C126.386 63.1684 126.877 63.9988 127.58 64.6064C128.283 65.2137 129.073 65.5757 129.948 65.6926C130.823 65.8093 131.751 65.739 132.731 65.4813C133.711 65.2236 134.55 64.8291 135.249 64.2984C135.947 63.7676 136.453 63.0648 136.767 62.1901C137.08 61.3151 137.098 60.3512 136.821 59.2978ZM129.56 42.7936L125.708 44.936L128.654 50.2326L127.326 50.9714L124.38 45.6748L119.017 48.6575L118.186 47.1632L130.058 40.5605L134.536 48.6132L133.208 49.352L129.56 42.7936ZM122.1 40.7803C120.509 42.249 118.917 42.9892 117.325 43.0015C115.734 43.0134 114.298 42.3261 113.019 40.939L109.682 37.3225L119.666 28.1112L123.003 31.7278C124.282 33.1148 124.85 34.6032 124.705 36.1928C124.56 37.7826 123.692 39.3117 122.1 40.7803ZM121.886 32.7585L119.708 30.3985L111.958 37.5485L114.136 39.9085C116.094 42.0309 118.362 41.9027 120.941 39.5235C123.529 37.136 123.844 34.8809 121.886 32.7585ZM109.189 34.9663L108.339 36.2267L101.013 31.2893L108.605 20.0247L110.023 20.9802L103.281 30.9845L109.189 34.9663ZM98.1312 29.7636L98.2288 26.1598L92.6395 24.0207L90.3062 26.7689L88.6559 26.1375L98.1956 15.2434L99.9701 15.9226L99.7813 30.3952L98.1312 29.7636ZM98.5016 17.049L93.715 22.8049L98.2576 24.5432L98.5369 17.0625L98.5016 17.049ZM86.1694 18.3822L86.1648 18.4199C86.9164 18.6384 87.5031 19.0633 87.9244 19.6948C88.3455 20.3263 88.4985 21.1198 88.3828 22.0754C88.2338 23.3078 87.7088 24.2203 86.8079 24.8129C85.9067 25.4058 84.7522 25.6169 83.344 25.4466L77.5347 24.7441L79.1654 11.2583L84.5974 11.9152C85.9678 12.0809 87.0093 12.5162 87.7217 13.221C88.4335 13.9261 88.7268 14.8002 88.6006 15.8438C88.4332 17.2272 87.6229 18.0732 86.1694 18.3822ZM79.4147 23.4405L83.6962 23.9582C85.4942 24.1757 86.4907 23.4798 86.6853 21.87C86.7735 21.141 86.6334 20.5309 86.2655 20.0395C85.8973 19.5485 85.3614 19.2604 84.6572 19.1753L79.9986 18.612L79.4147 23.4405ZM86.498 14.2404C86.1656 13.824 85.6222 13.5699 84.8677 13.4787L80.6804 12.9725L80.181 17.1032L84.1796 17.5865C85.085 17.6961 85.741 17.5968 86.1484 17.2888C86.5556 16.9811 86.7996 16.4939 86.8803 15.8271C86.9577 15.1859 86.8304 14.6571 86.498 14.2404ZM77.7868 139.356L76.0799 139.256L76.4179 133.49L69.1727 133.066L68.8347 138.831L67.1278 138.731L67.9228 125.171L69.6297 125.271L69.2616 131.548L76.5068 131.973L76.8748 125.695L78.5818 125.795L77.7868 139.356ZM62.2384 21.0643L67.2218 20.0205L67.5334 21.5082L62.5498 22.5518L62.2384 21.0643ZM64.735 124.428L66.4161 124.972L57.464 136.354L55.6563 135.769L55.0818 121.307L56.7631 121.85L56.8554 125.454L62.5498 127.296L64.735 124.428ZM56.9119 127.07L57.0272 134.555L57.0634 134.567L61.5397 128.567L56.9119 127.07ZM40.5956 22.0881L42.0717 21.2254L48.1594 31.641L54.3104 28.0458L55.0775 29.358L47.4502 33.816L40.5956 22.0881ZM44.8289 35.7494L41.6268 34.0927L37.2682 38.1936L38.7268 41.4907L37.4398 42.7015L31.7845 29.3709L33.1681 28.0691L46.1157 34.5386L44.8289 35.7494ZM33.5707 29.8555L33.5429 29.8816L36.6417 36.6962L40.1841 33.3633L33.5707 29.8555ZM35.6999 45.4654L24.8988 37.2275L25.9357 35.8678L36.7369 44.1059L35.6999 45.4654ZM27.5634 46.209L27.597 46.227C27.9594 45.7885 28.4167 45.5225 28.9687 45.4288C29.5208 45.3353 30.0751 45.372 30.6318 45.5392C31.1884 45.7064 31.7219 45.9041 32.2315 46.1325C32.7415 46.3608 33.1841 46.5534 33.5596 46.7102C33.9355 46.8671 34.1696 46.8987 34.2627 46.8045L34.3633 46.8582L33.4975 48.485C33.3718 48.5331 33.1157 48.4612 32.7295 48.2699C32.3435 48.0789 31.9193 47.8784 31.4572 47.6681C30.9953 47.4581 30.5109 47.2828 30.0045 47.1424C29.4982 47.0019 29.0075 47.0208 28.5327 47.1984C28.0581 47.3761 27.6687 47.75 27.3652 48.3203L25.5354 51.7584L30.3822 54.3381L29.5788 55.8475L17.5874 49.4652L20.176 44.6015C20.8128 43.4052 21.6279 42.6086 22.6209 42.2118C23.6143 41.815 24.6365 41.8962 25.6872 42.4556C27.3421 43.3363 27.9674 44.5876 27.5634 46.209ZM23.9219 43.6897C23.5712 43.6611 23.276 43.6904 23.0358 43.7776C22.7956 43.865 22.5606 44.0234 22.331 44.2527C22.1012 44.4822 21.9175 44.6998 21.7789 44.9058C21.6406 45.112 21.4909 45.3659 21.3303 45.6679L19.7325 48.6699L24.1935 51.0442L25.7914 48.0423C25.9522 47.7404 26.0794 47.4746 26.1729 47.2445C26.2667 47.0147 26.3444 46.7406 26.4063 46.4217C26.4683 46.1034 26.4684 45.8199 26.4068 45.5719C26.345 45.3238 26.2043 45.0626 25.9847 44.7877C25.7652 44.5131 25.4541 44.2684 25.0516 44.0543C24.649 43.8401 24.2725 43.7186 23.9219 43.6897ZM21.9723 56.237C23.987 56.6887 25.5058 57.6589 26.5284 59.147C27.5512 60.6355 27.8464 62.3436 27.4143 64.2715C26.9821 66.1996 25.9859 67.6184 24.4257 68.5276C22.8654 69.437 21.0781 69.6658 19.0634 69.2142C17.049 68.7627 15.5334 67.7934 14.5167 66.3064C13.5 64.8197 13.2078 63.1119 13.64 61.1838C14.0723 59.2558 15.0655 57.8365 16.6195 56.9258C18.1737 56.0153 19.9581 55.7855 21.9723 56.237ZM18.8187 57.7984C17.9545 57.9487 17.1818 58.3403 16.5014 58.9728C15.8209 59.6059 15.3614 60.4536 15.1232 61.5164C14.8848 62.5795 14.9385 63.5421 15.2836 64.4047C15.6291 65.2675 16.1605 65.9513 16.878 66.456C17.5957 66.9609 18.4488 67.324 19.4374 67.5457C20.4263 67.7675 21.3558 67.8038 22.2264 67.655C23.0969 67.5063 23.8727 67.1156 24.553 66.4826C25.2337 65.8499 25.693 65.0022 25.9312 63.9391C26.1694 62.8763 26.1161 61.9137 25.7706 61.0506C25.4255 60.1881 24.8909 59.5036 24.1671 58.9973C23.4433 58.4913 22.5872 58.1273 21.5983 57.9056C20.6097 57.6839 19.6831 57.6484 18.8187 57.7984ZM13.8701 75.9014L25.931 75.6174L25.9713 77.3268L13.9104 77.611L14.017 82.1314L12.4974 82.1672L12.2441 71.4169L13.7637 71.381L13.8701 75.9014ZM25.6427 84.8526C26.7045 85.4593 27.462 86.6062 27.916 88.2941C28.37 89.982 28.29 91.3545 27.6758 92.4115C27.0619 93.4687 26.0513 94.1862 24.6446 94.5645L15.8932 96.9182L15.4492 95.267L24.2005 92.9134C26.3044 92.3476 27.0536 90.9395 26.4483 88.6889C25.8431 86.4385 24.4886 85.5959 22.3847 86.1618L13.6332 88.5153L13.1891 86.8642L21.9406 84.5105C23.3474 84.1322 24.5815 84.2463 25.6427 84.8526ZM21.1759 104.584L31.7418 98.7614L32.5672 100.259L22.0013 106.082L24.1836 110.042L22.8526 110.776L17.6623 101.358L18.9935 100.624L21.1759 104.584ZM35.398 122.491L38.3432 119.393L33.2895 114.589L34.3367 113.487L39.3903 118.291L42.6627 114.849L36.7828 109.26L37.83 108.158L44.9491 114.925L35.5902 124.771L28.6363 118.161L29.6834 117.059L35.398 122.491ZM51.8141 119.262L49.0948 133.393L47.5345 132.486L50.1502 120.272L50.1337 120.263L40.8162 128.581L39.2556 127.674L50.188 118.316L51.8141 119.262ZM85.3511 124.479C86.9809 124.167 88.4104 124.325 89.6397 124.954C90.8692 125.582 91.6703 126.635 92.043 128.111L90.3635 128.433C89.7253 126.311 88.1499 125.491 85.6369 125.971C84.5545 126.179 83.802 126.542 83.379 127.061C82.9563 127.581 82.8079 128.17 82.9341 128.829C83.0984 129.688 83.4711 130.235 84.0514 130.473C84.632 130.71 85.7668 130.86 87.4552 130.924C87.9743 130.94 88.4083 130.967 88.7567 131.003C89.1056 131.04 89.5173 131.119 89.9918 131.241C90.4667 131.363 90.8578 131.52 91.1654 131.713C91.473 131.905 91.7583 132.182 92.021 132.545C92.2839 132.907 92.4629 133.337 92.5581 133.835C92.7629 134.905 92.528 135.833 91.8532 136.62C91.1786 137.407 90.1134 137.94 88.6579 138.218C87.215 138.494 85.973 138.355 84.9315 137.8C83.8904 137.245 83.1839 136.3 82.8125 134.965L84.4919 134.644C84.7902 135.528 85.2531 136.145 85.8813 136.496C86.5094 136.846 87.3397 136.923 88.3721 136.725C89.2929 136.549 89.9733 136.248 90.414 135.822C90.8548 135.396 91.0217 134.903 90.9145 134.343C90.8383 133.945 90.7025 133.623 90.507 133.377C90.3118 133.13 90.0484 132.952 89.7177 132.841C89.3871 132.73 89.0468 132.653 88.6969 132.611C88.3471 132.568 87.9113 132.532 87.3899 132.503C87.2335 132.494 87.1167 132.491 87.0397 132.493C86.5307 132.461 86.1491 132.437 85.8945 132.422C85.6401 132.406 85.3088 132.376 84.9004 132.331C84.4924 132.287 84.1816 132.23 83.9685 132.162C83.7555 132.093 83.4998 132.003 83.2013 131.893C82.9029 131.782 82.671 131.649 82.5059 131.494C82.3407 131.338 82.1634 131.153 81.974 130.938C81.7846 130.723 81.6351 130.464 81.5257 130.163C81.4167 129.861 81.3262 129.524 81.2546 129.151C81.0523 128.093 81.2864 127.126 81.9569 126.25C82.6275 125.374 83.7589 124.783 85.3511 124.479ZM106.443 122.393L102.038 124.946L101.276 123.631L105.681 121.078L106.443 122.393ZM120.317 110.459C121.551 110.392 122.658 110.798 123.639 111.677C124.62 112.557 125.144 113.614 125.211 114.848C125.278 116.082 124.889 117.17 124.043 118.113C123.197 119.056 122.157 119.561 120.923 119.628C119.689 119.696 118.582 119.289 117.601 118.41C116.62 117.53 116.097 116.474 116.03 115.239C115.962 114.005 116.352 112.917 117.197 111.974C118.043 111.031 119.083 110.526 120.317 110.459ZM116.794 115.198C116.85 116.226 117.288 117.108 118.108 117.844C118.919 118.571 119.841 118.909 120.875 118.857C121.908 118.805 122.775 118.389 123.477 117.606C124.179 116.823 124.499 115.915 124.439 114.883C124.378 113.85 123.943 112.97 123.132 112.243C122.311 111.507 121.387 111.167 120.359 111.223C119.33 111.279 118.465 111.698 117.763 112.481C117.061 113.264 116.738 114.169 116.794 115.198ZM118.559 114.624C118.818 114.857 119.109 115.011 119.432 115.088C119.754 115.164 120.055 115.047 120.334 114.736L120.892 114.114L119.422 112.795L119.954 112.201L123.589 115.461L122.27 116.932C121.94 117.299 121.586 117.509 121.208 117.561C120.829 117.613 120.48 117.495 120.159 117.208C119.659 116.76 119.548 116.268 119.823 115.733L119.809 115.72C119.611 115.865 119.38 115.909 119.117 115.852C118.853 115.794 118.623 115.686 118.426 115.526C118.229 115.366 118.044 115.222 117.871 115.092C117.698 114.962 117.59 114.912 117.547 114.942L117.519 114.916L118.089 114.28C118.143 114.277 118.3 114.392 118.559 114.624ZM120.393 116.193C120.431 116.312 120.516 116.43 120.648 116.549C120.78 116.667 120.905 116.741 121.023 116.771C121.142 116.8 121.264 116.773 121.389 116.69C121.515 116.607 121.605 116.539 121.661 116.487C121.716 116.435 121.811 116.333 121.947 116.182L122.505 115.56L121.43 114.596L120.872 115.218C120.745 115.36 120.656 115.463 120.606 115.529C120.556 115.594 120.499 115.691 120.434 115.821C120.369 115.95 120.355 116.074 120.393 116.193ZM128.287 101.269L124.856 107.339L123.533 106.591L126.964 100.521L122.829 98.184L118.837 105.246L117.514 104.498L122.348 95.9474L134.173 102.632L129.452 110.984L128.129 110.237L132.009 103.372L128.287 101.269ZM132.055 96.5476L132.497 94.8959C132.872 94.9175 133.246 94.8929 133.618 94.8225C133.991 94.7518 134.382 94.6169 134.789 94.418C135.196 94.2189 135.568 93.8956 135.904 93.448C136.24 93.0003 136.495 92.4525 136.669 91.8041C136.869 91.0576 136.894 90.3499 136.746 89.6808C136.597 89.0116 136.312 88.4368 135.89 87.9569C135.468 87.4765 134.97 87.0681 134.399 86.7314C133.827 86.3945 133.198 86.1345 132.513 85.9511C131.828 85.7676 131.15 85.6777 130.48 85.6822C129.811 85.6863 129.173 85.7909 128.567 85.9959C127.962 86.2006 127.427 86.5559 126.964 87.0613C126.501 87.5667 126.17 88.1925 125.97 88.9389C125.632 90.1989 125.725 91.2465 126.249 92.0819C126.773 92.9171 127.504 93.493 128.441 93.8098L127.999 95.4616C126.558 94.9182 125.509 94.0243 124.853 92.7799C124.196 91.5351 124.079 90.1239 124.501 88.5457C124.98 86.7593 126.01 85.4713 127.592 84.6823C129.173 83.8928 130.961 83.7653 132.955 84.2994C134.937 84.8302 136.416 85.8325 137.391 87.3066C138.367 88.7806 138.616 90.4109 138.137 92.1973C137.721 93.7509 136.938 94.9116 135.789 95.679C134.639 96.4462 133.394 96.7358 132.055 96.5476ZM132.807 78.6404L132.769 78.6397C132.646 79.1951 132.36 79.6402 131.911 79.9749C131.462 80.3096 130.952 80.5295 130.38 80.6343C129.809 80.739 129.244 80.8057 128.686 80.8348C128.128 80.8637 127.646 80.894 127.24 80.9254C126.834 80.9567 126.612 81.0354 126.572 81.1614L126.458 81.1596L126.488 79.3171C126.578 79.2169 126.838 79.1641 127.269 79.1586C127.7 79.1528 128.169 79.1381 128.676 79.115C129.183 79.0914 129.694 79.027 130.209 78.9212C130.724 78.8157 131.152 78.5756 131.494 78.2011C131.835 77.8266 132.011 77.3164 132.022 76.6706L132.085 72.7764L126.595 72.6873L126.623 70.9776L140.205 71.1978L140.116 76.7068C140.094 78.0617 139.731 79.1423 139.028 79.9478C138.324 80.7535 137.377 81.1467 136.187 81.1274C134.312 81.097 133.186 80.2678 132.807 78.6404ZM137.945 78.7426C138.119 78.5555 138.256 78.3075 138.356 77.9989C138.456 77.6899 138.521 77.4124 138.55 77.1659C138.579 76.9194 138.597 76.6252 138.603 76.2832L138.658 72.8829L133.605 72.801L133.55 76.2013C133.544 76.5432 133.552 76.8378 133.573 77.0853C133.594 77.3326 133.65 77.612 133.74 77.924C133.83 78.2356 133.959 78.4881 134.127 78.6809C134.295 78.8735 134.539 79.042 134.86 79.1867C135.18 79.3311 135.569 79.4073 136.025 79.4147C136.48 79.422 136.871 79.3585 137.196 79.2245C137.521 79.0904 137.771 78.93 137.945 78.7426Z" fill="white"/>
<defs>
<filter id="filter0_b" x="-19.2754" y="-19.394" width="190" height="190" filterUnits="userSpaceOnUse" color-interpolation-filters="sRGB">
<feFlood flood-opacity="0" result="BackgroundImageFix"/>
<feGaussianBlur in="BackgroundImage" stdDeviation="10"/>
<feComposite in2="SourceAlpha" operator="in" result="effect1_backgroundBlur"/>
<feBlend mode="normal" in="SourceGraphic" in2="effect1_backgroundBlur" result="shape"/>
</filter>
</defs>
</svg>
