<svg width="23" height="23" viewBox="0 0 23 23" fill="none" xmlns="http://www.w3.org/2000/svg">
<path d="M14.7335 3.73968C17.1512 3.73968 19.31 4.85474 20.7263 6.59868L21.9893 3.8903C20.0155 2.02217 17.3256 0.870117 14.3583 0.870117C9.73948 0.870117 5.7892 3.66041 4.16682 7.60805H1.70153L0.245605 10.726H3.4164C3.39261 11.014 3.37676 11.3047 3.37676 11.6006C3.37676 11.9573 3.39526 12.3114 3.42961 12.6602H1.83628L0.383005 15.7808H4.2408C5.90811 19.6306 9.81082 22.3311 14.3556 22.3311C16.6465 22.3311 18.7736 21.6441 20.5334 20.4709V16.6501C19.1144 18.2645 17.0429 19.2845 14.7308 19.2845C12.0277 19.2845 9.65228 17.892 8.2677 15.7834H16.3453L17.8012 12.6628H7.0813C7.02581 12.2876 6.99675 11.9045 6.99675 11.5134C6.99675 11.2492 7.00996 10.9876 7.03638 10.7286H18.7049L20.1582 7.61069H8.04311C9.38541 5.29601 11.8798 3.73968 14.7335 3.73968Z" fill="white"/>
<path d="M14.7334 3.8348C17.0375 3.8348 19.1963 4.86531 20.6548 6.65945L20.75 6.77571L20.8134 6.64095L22.0764 3.93257L22.1055 3.87179L22.0579 3.82423C19.981 1.86098 17.2462 0.780273 14.3608 0.780273C12.1069 0.780273 9.93756 1.43821 8.08793 2.68539C6.28322 3.90086 4.89601 5.59459 4.08217 7.57633L4.16937 7.5182H1.70408H1.6433L1.61952 7.57105L0.166243 10.6916L0.105469 10.8238H0.250797H3.42159L3.32911 10.7233C3.30268 11.0483 3.28947 11.3337 3.28947 11.6059C3.28947 11.9547 3.30797 12.3167 3.34232 12.676L3.4348 12.573H1.84148H1.78335L1.75956 12.6258L0.303643 15.7464L0.242871 15.8785H0.388197H4.24599L4.16144 15.823C5.90009 19.8367 9.90585 22.4315 14.3635 22.4315C16.5989 22.4315 18.7524 21.7841 20.5941 20.5581L20.6363 20.5317V20.4814V16.6501V16.4017L20.4725 16.5893C19.0192 18.2434 16.9318 19.1894 14.7413 19.1894C12.165 19.1894 9.77638 17.8946 8.35745 15.7305L8.28082 15.8759H16.3584H16.4192L16.443 15.823L17.8989 12.7024L17.9623 12.5703H17.8143H7.09442L7.1869 12.6496C7.13141 12.2717 7.10235 11.8886 7.10235 11.5134C7.10235 11.2571 7.11556 10.9955 7.14198 10.7392L7.0495 10.8238H18.718H18.7788L18.8026 10.7709L20.2558 7.65032L20.3193 7.5182H20.1713H8.05623L8.1355 7.65825C9.49365 5.29865 12.025 3.8348 14.7334 3.8348ZM8.04566 7.70317H20.1607L20.0762 7.57105L18.6229 10.6916L18.7074 10.6388H7.03893H6.95438L6.94645 10.7233C6.92003 10.9876 6.90682 11.2545 6.90682 11.516C6.90682 11.9018 6.93588 12.2929 6.99137 12.6813L7.00458 12.7606H7.08385H17.8038L17.7192 12.6285L16.2633 15.749L16.3478 15.6962H8.27025H8.09586L8.19099 15.8415C9.64691 18.0611 12.0911 19.3849 14.7307 19.3849C16.9741 19.3849 19.1144 18.4152 20.6046 16.7214L20.4408 16.6606V20.4841L20.4831 20.3969C18.6731 21.6018 16.5566 22.2386 14.3582 22.2386C9.97456 22.2386 6.03749 19.6888 4.32791 15.7438L4.30412 15.6883H4.24335H0.385557L0.470111 15.823L1.92339 12.7024L1.83884 12.7579H3.43216H3.53521L3.52464 12.6549C3.49029 12.3035 3.47179 11.9494 3.47179 11.6032C3.47179 11.339 3.485 11.0563 3.51143 10.7366L3.51935 10.6361H3.41894H0.248155L0.332709 10.7683L1.78863 7.64768L1.70408 7.70317H4.16937H4.23278L4.25656 7.64503C5.05719 5.695 6.41798 4.03298 8.19363 2.836C10.0115 1.61261 12.1439 0.965236 14.3608 0.965236C17.1987 0.965236 19.8859 2.02745 21.9284 3.95899L21.9073 3.85066L20.6443 6.56168L20.8002 6.54318C19.3046 4.70413 17.093 3.64984 14.7334 3.64984C11.9563 3.64984 9.36418 5.15068 7.96375 7.56576L7.88183 7.70581H8.04566V7.70317Z" fill="#333333"/>
</svg>
