<svg width="17" height="17" viewBox="0 0 17 17" fill="none" xmlns="http://www.w3.org/2000/svg">
<g opacity="1" clip-path="url(#clip0)">
<path d="M8.23421 3.72485C4.90088 3.72485 2.05421 5.79819 0.900879 8.72485C2.05421 11.6515 4.90088 13.7249 8.23421 13.7249C11.5675 13.7249 14.4142 11.6515 15.5675 8.72485C14.4142 5.79819 11.5675 3.72485 8.23421 3.72485ZM8.23421 12.0582C6.39421 12.0582 4.90088 10.5649 4.90088 8.72485C4.90088 6.88485 6.39421 5.39152 8.23421 5.39152C10.0742 5.39152 11.5675 6.88485 11.5675 8.72485C11.5675 10.5649 10.0742 12.0582 8.23421 12.0582ZM8.23421 6.72485C7.12755 6.72485 6.23421 7.61819 6.23421 8.72485C6.23421 9.83152 7.12755 10.7249 8.23421 10.7249C9.34088 10.7249 10.2342 9.83152 10.2342 8.72485C10.2342 7.61819 9.34088 6.72485 8.23421 6.72485Z" fill="white"/>
</g>
<defs>
<clipPath id="clip0">
<rect width="16" height="16" fill="white" transform="translate(0.234375 0.724854)"/>
</clipPath>
</defs>
</svg>
