<svg width="13" height="13" viewBox="0 0 13 13" fill="none" xmlns="http://www.w3.org/2000/svg">
<g clip-path="url(#clip0)">
<path d="M6.37793 0.929688C3.06807 0.929688 0.37793 3.61983 0.37793 6.92969C0.37793 10.2395 3.06807 12.9297 6.37793 12.9297C9.68779 12.9297 12.3779 10.2395 12.3779 6.92969C12.3779 3.61983 9.68779 0.929688 6.37793 0.929688ZM6.37793 12.3241C3.4061 12.3241 0.983564 9.90152 0.983564 6.92969C0.983564 3.95786 3.4061 1.53532 6.37793 1.53532C9.34976 1.53532 11.7723 3.95786 11.7723 6.92969C11.7723 9.90152 9.34976 12.3241 6.37793 12.3241Z" fill="#F64949"/>
<path d="M6.80043 6.90139L8.56099 5.14083C8.67367 5.02815 8.67367 4.83097 8.56099 4.7183C8.44831 4.60562 8.25113 4.60562 8.13845 4.7183L6.37789 6.47886L4.61733 4.7183C4.50466 4.60562 4.30747 4.60562 4.1948 4.7183C4.08212 4.83097 4.08212 5.02815 4.1948 5.14083L5.95536 6.90139L4.1948 8.64787C4.08212 8.76055 4.08212 8.95773 4.1948 9.07041C4.25114 9.12674 4.33564 9.15491 4.40606 9.15491C4.47649 9.15491 4.56099 9.12674 4.61733 9.07041L6.37789 7.30984L8.13845 9.07041C8.19479 9.12674 8.2793 9.15491 8.34972 9.15491C8.42014 9.15491 8.50465 9.12674 8.56099 9.07041C8.67367 8.95773 8.67367 8.76055 8.56099 8.64787L6.80043 6.90139Z" fill="#F64949"/>
</g>
<defs>
<clipPath id="clip0">
<rect width="12" height="12" fill="white" transform="translate(0.37793 0.929688)"/>
</clipPath>
</defs>
</svg>
