<svg width="20" height="23" viewBox="0 0 20 23" fill="none" xmlns="http://www.w3.org/2000/svg">
<path opacity="0.6" d="M17.5852 6.19531C17.5648 6.32581 17.5414 6.45922 17.5152 6.59628C16.6134 11.2264 13.5281 12.8259 9.58769 12.8259H7.58139C7.0995 12.8259 6.69343 13.1758 6.61834 13.6511L5.59113 20.1658L5.30025 22.0124C5.28866 22.0856 5.29309 22.1605 5.31322 22.2319C5.33335 22.3033 5.36871 22.3695 5.41686 22.4258C5.46502 22.4823 5.52482 22.5275 5.59216 22.5586C5.6595 22.5897 5.73277 22.6058 5.80693 22.6058H9.36533C9.78671 22.6058 10.1447 22.2996 10.211 21.8841L10.246 21.7033L10.916 17.4516L10.959 17.2183C11.0246 16.8013 11.3833 16.4951 11.8047 16.4951H12.3369C15.7845 16.4951 18.4833 15.0953 19.2722 11.0448C19.6017 9.35275 19.4311 7.93989 18.5592 6.94622C18.2828 6.63883 17.9528 6.38437 17.5852 6.19531Z" fill="white"/>
<path opacity="0.8" d="M16.6416 5.81907C16.3537 5.73577 16.0608 5.67076 15.7646 5.62442C15.1794 5.53448 14.588 5.49133 13.996 5.49538H8.63612C8.43215 5.49522 8.23484 5.56804 8.07987 5.70068C7.92491 5.83332 7.8225 6.01702 7.79118 6.21858L6.65097 13.4404L6.61816 13.6511C6.65368 13.4212 6.77032 13.2116 6.94696 13.0602C7.1236 12.9088 7.34859 12.8257 7.58122 12.8258H9.58751C13.5279 12.8258 16.6132 11.2256 17.515 6.59622C17.542 6.45916 17.5646 6.32574 17.585 6.19525C17.347 6.07046 17.099 5.96584 16.8436 5.88249C16.7766 5.86027 16.7093 5.83913 16.6416 5.81907Z" fill="white"/>
<path d="M7.79108 6.21878C7.82214 6.01716 7.92449 5.83337 8.07953 5.7008C8.23458 5.56823 8.43203 5.49567 8.63602 5.4963H13.9959C14.6309 5.4963 15.2236 5.53786 15.7645 5.62534C16.1306 5.68287 16.4916 5.76892 16.8442 5.88269C17.1103 5.9709 17.3574 6.07516 17.5856 6.19545C17.8539 4.48441 17.5834 3.31941 16.6583 2.26451C15.6384 1.10316 13.7976 0.605957 11.4421 0.605957H4.60375C4.12259 0.605957 3.71214 0.955892 3.63778 1.43195L0.789451 19.4864C0.776184 19.5703 0.781232 19.656 0.804247 19.7376C0.827262 19.8193 0.867698 19.8951 0.922774 19.9596C0.977851 20.0242 1.04626 20.0761 1.1233 20.1117C1.20033 20.1473 1.28417 20.1658 1.36903 20.1659H5.59086L6.65087 13.4406L7.79108 6.21878Z" fill="white"/>
</svg>
