<svg width="41" height="41" viewBox="0 0 41 41" fill="none" xmlns="http://www.w3.org/2000/svg">
<g opacity="0.5" clip-path="url(#clip0)">
<path fill-rule="evenodd" clip-rule="evenodd" d="M37.7098 10.0795C36.8399 9.04665 35.4667 8.56386 33.8412 8.71941C33.5684 8.74573 33.2941 8.7903 33.0192 8.85102V7.59051C33.0192 7.26894 32.7587 7.00811 32.4368 7.00811C32.1152 7.00811 31.8547 7.26894 31.8547 7.59051V9.20938C31.6552 9.28805 31.4569 9.37509 31.26 9.47052L30.1823 8.39276C29.9549 8.16543 29.5861 8.16543 29.3588 8.39276C29.1315 8.6201 29.1315 8.98892 29.3588 9.21626L30.2131 10.0703C29.9083 10.2722 29.611 10.4932 29.3244 10.7343C27.803 12.0158 26.7719 13.6915 26.4618 15.3119C24.7071 14.0537 22.6931 13.3822 20.5896 13.3822C20.2441 13.3822 19.901 13.4013 19.5612 13.4372C20.0231 12.1926 20.1906 10.8073 20.0587 9.4062C20.4137 9.54769 20.8116 9.62187 21.2417 9.62187C21.367 9.62187 21.4954 9.61559 21.6258 9.60303C22.6213 9.50761 23.6518 9.04905 24.5273 8.312C25.4028 7.57465 26.0304 6.63749 26.2939 5.67281C26.5787 4.63095 26.4142 3.67524 25.8303 2.98186C25.2464 2.28849 24.3326 1.96334 23.2578 2.06654C23.2013 2.07192 23.1444 2.0788 23.0876 2.08658V1.11023C23.0876 0.78867 22.8271 0.527832 22.5055 0.527832C22.1839 0.527832 21.9231 0.78867 21.9231 1.11023V2.40335C21.5821 2.54185 21.2474 2.71983 20.9258 2.93221L20.382 1.77758C20.2453 1.48683 19.8983 1.3621 19.6073 1.4991C19.3162 1.6361 19.1918 1.98278 19.3285 2.27383L19.9946 3.6881C19.4825 4.19363 19.0787 4.77034 18.8128 5.37368C16.7455 1.61575 12.6589 -0.284894 9.19588 1.09228C7.79447 1.64956 6.66377 2.68842 5.90219 4.02193L5.17562 2.83469C5.00811 2.5604 4.64945 2.47425 4.37515 2.64206C4.10086 2.80987 4.01441 3.16822 4.18222 3.44282L5.318 5.2986C5.19207 5.65336 5.08917 6.02189 5.0099 6.40118H3.46491C3.14335 6.40118 2.88281 6.66172 2.88281 6.98358C2.88281 7.30514 3.14335 7.56568 3.46491 7.56568H4.84598C4.80859 8.06013 4.80829 8.56745 4.85106 9.08345C4.87799 9.40411 5.16126 9.64251 5.47953 9.61559C5.77534 9.59103 6.00089 9.34985 6.01318 9.06089C6.01421 9.0366 6.01374 9.01198 6.01167 8.98713C5.75383 5.87442 7.20639 3.13651 9.62632 2.17452C12.8386 0.896655 16.7243 3.05485 18.2875 6.98477C19.1924 9.26053 19.1517 11.7424 18.1897 13.6819C16.2807 14.1653 14.5122 15.2248 13.0298 16.7889C10.361 16.6301 7.81451 14.5838 6.63595 11.6203C6.56805 11.4486 6.50972 11.2892 6.45797 11.1328C6.44919 11.1062 6.43867 11.0806 6.42659 11.0562C6.29996 10.8005 6.00122 10.6704 5.72242 10.7624C5.41701 10.8635 5.2513 11.1929 5.3521 11.4983C5.41103 11.6763 5.47684 11.8566 5.55341 12.0499C6.77714 15.1267 9.33078 17.3366 12.1282 17.849C11.0723 19.2334 10.2793 20.8361 9.77917 22.5684L7.86865 21.6363C7.5797 21.4951 7.23091 21.615 7.09003 21.904C6.94884 22.1933 7.06879 22.5417 7.35804 22.6826L9.49231 23.7242C9.31313 24.5869 9.20425 25.475 9.16895 26.3789L7.29523 26.1513C6.97666 26.113 6.68591 26.3397 6.64702 26.6592C6.60813 26.9784 6.83547 27.2685 7.15464 27.3074L9.16387 27.5515C9.24374 30.1204 9.91946 32.5855 11.1303 34.7105C12.0187 36.2695 13.153 37.5764 14.4671 38.5704C14.4671 38.5704 17.4497 40.606 20.5688 40.606C23.6878 40.606 26.7085 38.5704 26.7085 38.5704C27.6876 37.8277 28.5664 36.9112 29.3136 35.8588L30.0276 36.5729C30.1413 36.6865 30.2903 36.7434 30.4395 36.7434C30.5885 36.7434 30.7375 36.6865 30.8511 36.5729C31.0788 36.3452 31.0788 35.9767 30.8511 35.7494L29.96 34.858C30.4874 33.9594 30.9268 32.983 31.2615 31.9466C31.2711 31.917 31.2781 31.8872 31.2828 31.8574C31.3265 31.579 31.1626 31.3026 30.8861 31.2134C30.5801 31.1144 30.252 31.2828 30.153 31.5888C29.1374 34.7359 27.0908 37.2725 24.5264 38.5701C24.5264 38.5701 22.1064 39.4192 20.5688 39.4192C19.0311 39.4192 16.6516 38.5701 16.6516 38.5701C14.8293 37.6485 13.2724 36.1173 12.142 34.1338C10.9503 32.0423 10.3203 29.5874 10.3203 27.0346C10.3203 20.1487 14.9268 14.5467 20.5893 14.5467C26.2515 14.5467 30.858 20.1487 30.858 27.0346C30.858 27.8351 30.7949 28.6364 30.6711 29.416C30.6205 29.7336 30.8371 30.0322 31.1547 30.0824C31.4417 30.1279 31.7142 29.9548 31.8005 29.6859C31.8095 29.6579 31.8164 29.6289 31.8212 29.599C31.9549 28.7591 32.0225 27.8961 32.0225 27.0346C32.0225 25.5378 31.8215 24.0775 31.4362 22.6973L33.0129 22.0966C33.3135 21.9821 33.4643 21.6456 33.35 21.3452C33.2355 21.0446 32.899 20.8939 32.5983 21.0081L31.0797 21.5866C30.9163 21.1382 30.7324 20.7003 30.5287 20.2741C30.5329 20.2741 30.5371 20.2744 30.5412 20.2744C32.2155 20.2744 34.0769 19.5433 35.6354 18.2304C37.003 17.0794 37.9817 15.6206 38.3909 14.1231C38.8214 12.5488 38.5794 11.1127 37.7098 10.0795ZM23.6407 3.21399C22.854 3.21399 21.9096 3.57234 21.1062 4.24837C19.7526 5.38834 19.2202 7.0778 19.9444 7.93749C20.2743 8.32935 20.8319 8.50882 21.5148 8.44361C22.2773 8.37063 23.0807 8.00719 23.7774 7.4209C24.4738 6.83431 24.9688 6.10445 25.1707 5.3656C25.3517 4.70394 25.2694 4.12393 24.9395 3.73177C24.6452 3.3821 24.18 3.21399 23.6407 3.21399ZM34.8852 17.3399C36.0742 16.3394 36.9201 15.0881 37.2677 13.8162C37.594 12.6221 37.4346 11.5611 36.8187 10.8294C36.2031 10.0984 35.1852 9.76037 33.9522 9.87882C32.6399 10.0045 31.2624 10.6248 30.0743 11.6251C28.5365 12.9206 27.5805 14.6439 27.5305 16.1811C27.9433 16.5589 28.3376 16.972 28.71 17.4207C29.1365 17.9343 29.5239 18.4817 29.8718 19.0572C31.4126 19.3118 33.3082 18.6684 34.8852 17.3399Z" fill="white"/>
<path d="M5.47953 9.61559C5.16126 9.64251 4.87799 9.40411 4.85106 9.08345C4.85106 9.08345 4.91232 9.83449 5.0099 10.3059C5.10809 10.7803 5.3521 11.4983 5.3521 11.4983C5.2513 11.1929 5.41701 10.8635 5.72242 10.7624C6.00122 10.6704 6.29996 10.8005 6.42659 11.0562C6.35412 10.8766 6.17606 10.418 6.10693 10.0852C6.03691 9.74807 6.01796 9.24761 6.01318 9.06089C6.00089 9.34985 5.77534 9.59103 5.47953 9.61559Z" fill="white"/>
<path d="M30.8861 31.2134C31.1626 31.3026 31.3265 31.579 31.2828 31.8574L31.8005 29.6859C31.7142 29.9548 31.4417 30.1279 31.1547 30.0824C30.8371 30.0322 30.6205 29.7336 30.6711 29.416L30.153 31.5888C30.252 31.2828 30.5801 31.1144 30.8861 31.2134Z" fill="white"/>
</g>
<defs>
<clipPath id="clip0">
<rect width="40" height="40" fill="white" transform="translate(0.724609 0.605957)"/>
</clipPath>
</defs>
</svg>
