<svg width="41" height="41" viewBox="0 0 41 41" fill="none" xmlns="http://www.w3.org/2000/svg">
<g opacity="0.5" clip-path="url(#clip0)">
<path d="M40.7218 22.1102C40.6995 21.8807 40.5446 21.6854 40.3261 21.6117C40.2419 21.5832 38.2347 20.9188 35.7535 21.2316C35.0935 21.3147 34.3643 21.4742 33.6142 21.756C33.6886 21.4896 33.7534 21.1912 33.7965 20.8635C33.9664 19.5723 33.8276 17.5507 32.2017 15.2527C30.4963 12.8425 32.3499 10.7514 32.4281 10.6652C32.5883 10.4914 32.6284 10.2385 32.5299 10.0236C32.4313 9.80878 32.2125 9.67409 31.9771 9.68237C31.9274 9.68409 30.7443 9.7344 29.4077 10.6046C28.1465 11.4257 27.3067 12.6032 26.7476 13.8044C26.1449 11.4146 24.816 9.47136 23.6071 7.70331C22.3748 5.90097 21.3105 4.34456 21.3105 2.75269C21.3105 2.42909 21.0481 2.16675 20.7245 2.16675C20.401 2.16675 20.1386 2.42909 20.1386 2.75269C20.1386 4.34456 19.0743 5.90097 17.842 7.70315C16.6327 9.47183 15.3039 11.4164 14.7015 13.8073C14.157 12.634 13.3601 11.5142 12.1925 10.7059C10.7951 9.73839 9.52533 9.68401 9.47197 9.68222C9.23517 9.67331 9.01783 9.80862 8.91923 10.0235C8.82072 10.2383 8.86079 10.4913 9.02103 10.665C9.02587 10.6703 9.51392 11.2145 9.78665 12.0456C10.1503 13.1539 9.96892 14.2329 9.24751 15.2525C7.62158 17.5507 7.48275 19.5722 7.65267 20.8634C7.69579 21.1911 7.76056 21.4895 7.83494 21.7558C7.08486 21.4741 6.35564 21.3146 5.69572 21.2314C3.21431 20.9186 1.20728 21.5831 1.12306 21.6115C0.904545 21.6853 0.749623 21.8805 0.727357 22.11C0.705091 22.3396 0.819545 22.5609 1.01986 22.6753C2.31587 23.416 3.5672 25.2846 5.01611 27.4485C6.60923 29.8277 8.41486 32.5244 10.8813 34.6669C13.7795 37.1845 16.9985 38.4085 20.7224 38.409L20.7246 38.4092L20.7268 38.409C24.4508 38.4085 27.6699 37.1845 30.5681 34.6669C33.0345 32.5244 34.8402 29.8277 36.4333 27.4485C37.8822 25.2846 39.1335 23.416 40.4295 22.6753C40.6296 22.561 40.7441 22.3398 40.7218 22.1102ZM17.3953 34.3784C18.4153 35.2463 19.2559 35.9621 19.8495 37.211C12.6846 36.7931 8.9847 31.2695 5.9897 26.7966C4.82165 25.0522 3.77509 23.4892 2.6629 22.4567C3.39908 22.3375 4.42212 22.2521 5.54915 22.3942C8.48962 22.7648 10.6774 24.4567 12.0515 27.4231C13.0127 29.4982 14.0597 31.1053 15.3464 32.4805C15.366 32.5015 15.3869 32.5207 15.4087 32.5381C15.6323 32.7172 15.9593 32.7095 16.1746 32.5081C16.411 32.287 16.4233 31.9162 16.2022 31.6799C15.0032 30.3983 14.0222 28.8892 13.1149 26.9305C12.1184 24.7794 10.7964 23.412 9.43251 22.55C9.41329 22.5221 7.53556 19.7011 10.2042 15.9294C11.3845 14.2613 11.2342 12.698 10.9002 11.6803C10.8449 11.5115 10.7827 11.3521 10.7171 11.2032C12 11.7763 13.8643 13.2849 14.5099 17.2508C15.204 21.5143 16.3682 24.0276 17.4942 26.4581C18.6866 29.0322 19.7421 31.312 20.0488 35.3309C19.481 34.6147 18.8281 34.0587 18.1549 33.4859C17.9084 33.2761 17.5385 33.3059 17.3289 33.5525C17.1301 33.786 17.1464 34.1304 17.3584 34.3442C17.3701 34.356 17.3824 34.3674 17.3953 34.3784ZM26.1965 18.4639C25.881 18.3926 25.5671 18.5907 25.4958 18.9063C24.8196 21.898 23.8663 23.9382 22.9445 25.9114C22.0888 27.7428 21.2613 29.5141 20.7294 31.8844C20.2075 29.5276 19.3963 27.7763 18.5574 25.9656C17.4647 23.6067 16.3348 21.1676 15.6665 17.0626C15.6321 16.8513 15.5914 16.6318 15.5444 16.407C15.5602 13.1177 17.2856 10.5931 18.8094 8.36464C19.541 7.29472 20.2495 6.25839 20.7245 5.20417C21.1995 6.25839 21.9081 7.29472 22.6397 8.36464C24.1705 10.6033 25.9055 13.1407 25.9055 16.4522C25.9055 16.7396 26.1153 16.9848 26.399 17.0308C26.7076 17.0807 27.0008 16.88 27.0659 16.5745C27.8036 13.1108 29.5258 11.7431 30.7319 11.2035C30.6664 11.3524 30.6043 11.5117 30.5489 11.6803C30.215 12.698 30.0646 14.2614 31.2449 15.9295C33.8895 19.6671 32.0969 22.4303 32.0164 22.5503C30.6525 23.4121 29.3306 24.7796 28.3342 26.9306C26.6006 30.673 24.8666 32.1483 23.3367 33.4499C22.6263 34.0542 21.9679 34.6146 21.4027 35.3243C21.7163 31.3099 22.7915 29.0071 24.0061 26.4075C24.9543 24.3781 25.9348 22.2797 26.6388 19.1646C26.644 19.1415 26.6478 19.1184 26.6502 19.0954C26.6805 18.8044 26.489 18.53 26.1965 18.4639ZM35.4593 26.7967C32.4642 31.2697 28.7649 36.7946 21.5995 37.2121C22.1981 35.9571 23.0555 35.2277 24.096 34.3425C25.6375 33.031 27.5559 31.3989 29.3976 27.4232C30.7649 24.4715 32.9386 22.7813 35.8582 22.3996C36.287 22.3435 36.702 22.3209 37.0927 22.3209C37.739 22.3209 38.3189 22.3828 38.7847 22.4581C37.673 23.4907 36.6269 25.0529 35.4593 26.7967Z" fill="white"/>
<path d="M16.1746 32.5081C15.9593 32.7095 15.6323 32.7172 15.4087 32.5381L17.3584 34.3442C17.1464 34.1304 17.1301 33.786 17.3289 33.5525C17.5385 33.3059 17.9084 33.2761 18.1549 33.4859L16.2022 31.6799C16.4233 31.9162 16.411 32.287 16.1746 32.5081Z" fill="white"/>
<path d="M25.4958 18.9063C25.5671 18.5907 25.881 18.3926 26.1965 18.4639C26.489 18.53 26.6805 18.8044 26.6502 19.0954L27.0659 16.5745C27.0008 16.88 26.7076 17.0807 26.399 17.0308C26.1153 16.9848 25.9055 16.7396 25.9055 16.4522L25.4958 18.9063Z" fill="white"/>
</g>
<defs>
<clipPath id="clip0">
<rect width="40" height="40" fill="white" transform="translate(0.724609 0.288086)"/>
</clipPath>
</defs>
</svg>
