<svg width="23" height="23" viewBox="0 0 23 23" fill="none" xmlns="http://www.w3.org/2000/svg">
<g opacity="0.5" clip-path="url(#clip0)">
<path d="M19.3543 4.02006C19.3457 4.01043 19.3375 4.0005 19.3282 3.99127C19.3084 3.97141 19.2875 3.95305 19.266 3.9359C17.2955 2.07722 14.6411 0.936035 11.725 0.936035C5.65967 0.936035 0.725098 5.87071 0.725098 11.9364C0.725298 14.8512 1.86548 17.5044 3.72265 19.4747C3.74041 19.4971 3.75927 19.5189 3.78003 19.5396C3.79076 19.5502 3.8021 19.5596 3.81323 19.5696C5.81505 21.6438 8.62192 22.936 11.7251 22.936C17.7902 22.936 22.7246 18.0017 22.7246 11.9363C22.7245 8.83085 21.4307 6.02217 19.3543 4.02006ZM11.725 2.44063C13.9857 2.44063 16.0639 3.23536 17.6962 4.5594L4.34837 17.9073C3.02452 16.275 2.22989 14.1968 2.22969 11.9363C2.22969 6.70044 6.48931 2.44063 11.725 2.44063ZM11.725 21.4314C9.29066 21.4314 7.06757 20.51 5.38523 18.9982L18.7872 5.59637C20.2988 7.27871 21.2199 9.5019 21.2199 11.9363C21.2199 17.1719 16.9605 21.4314 11.725 21.4314Z" fill="white"/>
</g>
<defs>
<clipPath id="clip0">
<rect width="22" height="22" fill="white" transform="translate(0.724609 0.936035)"/>
</clipPath>
</defs>
</svg>
