<svg width="151" height="151" viewBox="0 0 151 151" fill="none" xmlns="http://www.w3.org/2000/svg">
<g clip-path="url(#clip0)">
<path fill-rule="evenodd" clip-rule="evenodd" d="M75.7979 1.84358C76.3282 2.61622 76.5763 3.58265 76.5413 4.74328C76.5064 5.90413 76.2008 6.85409 75.6247 7.59317C75.0485 8.33244 74.2274 8.68589 73.1613 8.65371C72.1086 8.62195 71.3134 8.21667 70.7764 7.4371C70.2391 6.65791 69.9879 5.69444 70.0225 4.54712C70.057 3.40017 70.3656 2.45358 70.9488 1.70776C71.5316 0.962323 72.3497 0.605099 73.4025 0.636685C74.4684 0.668851 75.2669 1.07115 75.7979 1.84358ZM71.9621 2.71093C71.6376 3.16725 71.4635 3.79355 71.4397 4.58981C71.4156 5.38627 71.5517 6.02168 71.8483 6.49667C72.1446 6.97165 72.5965 7.21827 73.204 7.23654C73.8114 7.2548 74.277 7.03578 74.6017 6.57946C74.9259 6.12335 75.1003 5.49707 75.1241 4.7006C75.1481 3.90454 75.0117 3.26872 74.7155 2.79373C74.4188 2.31875 73.9672 2.07213 73.3598 2.05386C72.7526 2.0356 72.2866 2.25462 71.9621 2.71093ZM63.7032 5.1869C64.2931 6.14261 64.7487 7.28994 65.0697 8.6293C65.5672 10.7042 65.5406 12.505 64.9903 14.0324C64.4399 15.5596 63.2848 16.5342 61.5255 16.9559C59.7658 17.3777 58.2948 17.0326 57.1117 15.9208C55.9288 14.8088 55.0886 13.2157 54.5914 11.1408C54.2703 9.80147 54.156 8.57251 54.2489 7.45318C54.3416 6.33424 54.7132 5.34953 55.3633 4.49925C56.0136 3.64917 56.9359 3.08087 58.1309 2.79432C59.3257 2.50799 60.4057 2.59637 61.3708 3.05923C62.3356 3.52249 63.1128 4.23178 63.7032 5.1869ZM58.5086 4.37019C57.3005 4.6597 56.5444 5.38606 56.2399 6.54889C55.9355 7.71211 55.9768 9.1009 56.3641 10.7159C56.7513 12.331 57.3432 13.5846 58.1403 14.4766C58.9373 15.3686 59.9395 15.67 61.1478 15.3803C62.3557 15.0908 63.1128 14.3678 63.4188 13.2113C63.7248 12.055 63.6843 10.6692 63.2971 9.05404C62.9099 7.43908 62.3172 6.18232 61.5185 5.2836C60.7201 4.38507 59.7165 4.08067 58.5086 4.37019ZM48.6705 10.0719C49.0666 10.8702 49.2074 11.6861 49.0932 12.5189C48.9791 13.3521 48.7078 14.1271 48.2801 14.8443C47.8522 15.5618 47.4032 16.2595 46.9332 16.9371C46.4632 17.6152 46.0791 18.3145 45.7811 19.0351C45.483 19.7559 45.3965 20.4243 45.5214 21.0407L45.5394 21.077L52.2523 17.7458L52.9725 19.1972L44.2821 23.5097C43.2197 21.3689 43.574 18.9545 45.3456 16.2667C45.4546 16.0919 45.6475 15.8042 45.9233 15.4033C46.1995 15.0028 46.3766 14.7375 46.4556 14.6078C46.5345 14.4782 46.6651 14.2629 46.847 13.9613C47.0291 13.6601 47.1367 13.4444 47.1707 13.3148C47.204 13.1851 47.259 12.9994 47.3353 12.7582C47.4113 12.5169 47.4346 12.3132 47.4052 12.147C47.3754 11.9808 47.3367 11.7892 47.289 11.5713C47.2414 11.3541 47.1606 11.1303 47.0466 10.9003C46.7285 10.2594 46.2753 9.80206 45.6876 9.52843C45.0996 9.255 44.3701 9.33442 43.4993 9.76651C41.6002 10.7089 41.179 12.2445 42.2354 14.3731L40.6024 15.1835C39.9243 13.8167 39.7515 12.5119 40.0843 11.2689C40.4173 10.026 41.3276 9.03538 42.8153 8.2971C43.9401 7.73892 45.0545 7.60806 46.1588 7.90413C47.263 8.20039 48.1002 8.92299 48.6705 10.0719ZM21.9331 25.4239L25.1308 28.6707L30.4269 23.4549L31.5639 24.6094L26.2679 29.8252L29.8209 33.433L35.9827 27.3643L37.1197 28.5188L29.659 35.8665L19.4974 25.5484L26.7849 18.3713L27.9219 19.5258L21.9331 25.4239ZM23.7869 44.2892L8.8255 40.8961L9.84655 39.2652L22.7685 42.4807L22.7794 42.4636L14.2425 32.244L15.2635 30.6129L24.8511 42.5897L23.7869 44.2892ZM126.556 42.6816L125.668 41.0897L138.314 34.0329L139.202 35.6246L133.825 38.625L137.596 45.3814L142.972 42.381L143.861 43.9727L131.215 51.0297L130.326 49.4377L136.181 46.1709L132.41 39.4147L126.556 42.6816ZM16.3096 50.9075L14.1629 56.9155L17.1476 59.337L16.5137 61.1108L4.6758 51.2026L5.35729 49.2954L20.7869 49.152L20.1531 50.9258L16.3096 50.9075ZM6.59279 50.8337L12.8416 55.7981L14.5862 50.9153L6.60649 50.7956L6.59279 50.8337ZM139.074 58.871L139.373 60.6692C137.096 61.2945 136.181 62.9524 136.628 65.6432C136.821 66.8019 137.189 67.6134 137.732 68.0775C138.274 68.5415 138.899 68.7149 139.605 68.5973C140.524 68.4444 141.117 68.0614 141.385 67.4492C141.652 66.8364 141.842 65.6309 141.953 63.833C141.984 63.2802 142.024 62.8185 142.072 62.448C142.12 62.0773 142.215 61.6404 142.357 61.1378C142.499 60.6349 142.677 60.2222 142.89 59.8992C143.103 59.5763 143.406 59.2796 143.799 59.0088C144.192 58.7381 144.655 58.5584 145.188 58.4697C146.333 58.2792 147.317 58.5535 148.138 59.2929C148.959 60.0322 149.499 61.1813 149.758 62.7397C150.016 64.2846 149.835 65.6047 149.216 66.7004C148.598 67.7955 147.572 68.524 146.141 68.8854L145.841 67.0874C146.791 66.7923 147.461 66.3148 147.851 65.6543C148.241 64.9941 148.344 64.111 148.16 63.0056C147.996 62.0197 147.693 61.2868 147.25 60.806C146.807 60.3255 146.286 60.1349 145.687 60.2346C145.26 60.3056 144.914 60.4419 144.646 60.644C144.379 60.8458 144.182 61.1216 144.055 61.4712C143.928 61.8207 143.838 62.1813 143.783 62.5533C143.729 62.925 143.679 63.3884 143.635 63.9434C143.621 64.1098 143.615 64.2343 143.615 64.3164C143.568 64.858 143.533 65.2643 143.51 65.535C143.486 65.8058 143.445 66.1581 143.388 66.5922C143.33 67.026 143.261 67.3557 143.183 67.581C143.104 67.8062 143.001 68.0765 142.876 68.3918C142.751 68.7069 142.603 68.9506 142.433 69.1225C142.263 69.2945 142.061 69.4786 141.827 69.6751C141.593 69.8713 141.313 70.024 140.989 70.1329C140.665 70.2413 140.303 70.329 139.904 70.3956C138.771 70.584 137.747 70.3094 136.831 69.5723C135.914 68.8348 135.314 67.6138 135.03 65.9091C134.74 64.164 134.945 62.6448 135.647 61.3507C136.349 60.0566 137.491 59.23 139.074 58.871ZM3.36067 65.64C2.80984 66.1732 2.47624 66.9973 2.36028 68.1118C2.25682 69.1059 2.35491 69.8932 2.65416 70.474C2.9534 71.055 3.40515 71.3769 4.0096 71.4398C4.4395 71.4845 4.81023 71.4452 5.12159 71.3213C5.43314 71.1978 5.69625 70.9841 5.9111 70.6805C6.12595 70.3771 6.30923 70.0534 6.46014 69.7093C6.61145 69.3656 6.78222 68.9319 6.97225 68.4085C7.02924 68.2514 7.06896 68.1335 7.0906 68.0542C7.27944 67.5445 7.42102 67.1621 7.51534 66.9071C7.60986 66.6523 7.74251 66.3235 7.91328 65.9202C8.08444 65.5173 8.23774 65.2177 8.37336 65.0213C8.50938 64.8251 8.67955 64.5918 8.88408 64.3209C9.08881 64.0505 9.29591 63.8547 9.50521 63.734C9.7147 63.6132 9.95814 63.4893 10.2361 63.362C10.5141 63.2349 10.8239 63.1619 11.1651 63.143C11.5066 63.1243 11.8787 63.1357 12.2816 63.1778C13.4232 63.2965 14.3382 63.833 15.026 64.7868C15.7143 65.7411 15.9688 67.0775 15.7899 68.7965C15.6069 70.556 15.0054 71.9663 13.9853 73.0276C12.9655 74.0892 11.6446 74.583 10.0233 74.5091L10.2119 72.696C12.5739 72.6974 13.896 71.3418 14.1783 68.6287C14.2999 67.4603 14.1607 66.5805 13.7606 65.9889C13.3608 65.3976 12.8048 65.0648 12.093 64.9907C11.1662 64.8944 10.4925 65.1061 10.0719 65.6255C9.65135 66.1454 9.14878 67.2572 8.56419 68.9611C8.38746 69.4857 8.22701 69.9206 8.08226 70.2651C7.9379 70.6098 7.73039 71.0058 7.45994 71.4526C7.18929 71.8999 6.90851 72.2506 6.61721 72.5054C6.32591 72.7601 5.95518 72.9659 5.50423 73.1225C5.05367 73.2794 4.55963 73.3298 4.0223 73.2738C2.86742 73.1537 1.99213 72.6283 1.39662 71.6974C0.801108 70.7669 0.585064 69.5155 0.748685 67.9442C0.910718 66.3865 1.43514 65.1615 2.32215 64.2695C3.20916 63.3775 4.39105 62.9472 5.86741 62.9786L5.67877 64.7917C4.68453 64.8241 3.9119 65.1069 3.36067 65.64ZM150.754 75.855L150.612 77.6723L140.98 76.9194C138.664 76.7385 137.41 77.8862 137.216 80.3634C137.023 82.8401 138.083 84.1691 140.399 84.3502L150.031 85.1032L149.889 86.9205L140.257 86.1676C138.708 86.0464 137.509 85.4922 136.659 84.5047C135.808 83.517 135.456 82.0947 135.601 80.2371C135.746 78.3793 136.315 77.0288 137.309 76.1855C138.303 75.3419 139.574 74.9811 141.122 75.1021L150.754 75.855ZM146.457 99.9721C145.989 101.367 145.31 102.361 144.421 102.953C143.531 103.544 142.555 103.662 141.493 103.305C140.085 102.833 139.376 101.804 139.366 100.22L139.328 100.207C138.938 100.945 138.368 101.466 137.618 101.77C136.868 102.074 136.006 102.062 135.034 101.736C133.779 101.315 132.939 100.57 132.514 99.5017C132.09 98.4332 132.118 97.1822 132.599 95.7485L134.584 89.8345L148.313 94.4421L146.457 99.9721ZM135.54 92.0782L134.077 96.437C133.463 98.2674 133.975 99.4576 135.614 100.008C136.356 100.257 137.023 100.242 137.615 99.9638C138.207 99.685 138.624 99.1874 138.864 98.4707L140.456 93.7279L135.54 92.0782ZM140.626 98.3141C140.316 99.2358 140.279 99.9421 140.512 100.434C140.746 100.925 141.202 101.285 141.881 101.513C142.534 101.732 143.113 101.713 143.62 101.455C144.126 101.198 144.509 100.686 144.766 99.9175L146.197 95.6546L141.992 94.2434L140.626 98.3141ZM16.7183 107.283L10.7975 92.2003L12.3058 91.6084L18.2266 106.691L16.7183 107.283ZM129.785 104.959C131.171 104.461 132.573 104.606 133.993 105.392L133.018 106.933C130.903 105.882 129.116 106.508 127.657 108.813C127.029 109.806 126.763 110.656 126.858 111.363C126.953 112.071 127.303 112.616 127.908 112.999C128.696 113.497 129.393 113.607 130.001 113.328C130.609 113.05 131.553 112.277 132.834 111.011C133.226 110.619 133.563 110.301 133.845 110.057C134.128 109.812 134.49 109.55 134.931 109.27C135.372 108.989 135.779 108.8 136.153 108.701C136.527 108.603 136.951 108.583 137.425 108.643C137.898 108.703 138.363 108.877 138.819 109.166C139.8 109.787 140.351 110.647 140.471 111.746C140.591 112.844 140.228 114.061 139.383 115.396C138.545 116.719 137.531 117.583 136.34 117.988C135.149 118.393 133.899 118.253 132.591 117.569L133.566 116.028C134.47 116.441 135.288 116.531 136.019 116.299C136.75 116.066 137.415 115.476 138.014 114.529C138.548 113.685 138.81 112.936 138.801 112.282C138.791 111.629 138.529 111.14 138.016 110.815C137.65 110.584 137.301 110.454 136.967 110.427C136.633 110.399 136.302 110.473 135.975 110.65C135.648 110.826 135.34 111.035 135.051 111.276C134.763 111.517 134.417 111.829 134.014 112.214C133.894 112.329 133.806 112.417 133.751 112.478C133.355 112.851 133.058 113.131 132.861 113.317C132.662 113.503 132.398 113.739 132.065 114.024C131.733 114.309 131.462 114.509 131.254 114.625C131.045 114.74 130.789 114.874 130.485 115.025C130.181 115.177 129.909 115.26 129.668 115.275C129.426 115.29 129.153 115.293 128.848 115.283C128.542 115.273 128.232 115.201 127.918 115.067C127.604 114.931 127.276 114.756 126.933 114.539C125.963 113.925 125.382 113.038 125.19 111.878C124.998 110.717 125.364 109.407 126.288 107.946C127.234 106.452 128.4 105.456 129.785 104.959ZM126.743 120.322C128.246 121.912 129.028 123.648 129.089 125.532C129.151 127.415 128.466 129.034 127.033 130.388C125.787 131.566 124.427 132.182 122.955 132.236C121.482 132.291 120.191 131.858 119.08 130.938L120.405 129.686C120.732 129.915 121.086 130.101 121.464 130.246C121.842 130.39 122.271 130.486 122.752 130.533C123.233 130.58 123.751 130.494 124.307 130.276C124.862 130.057 125.4 129.702 125.92 129.211C126.518 128.645 126.937 128.017 127.176 127.326C127.415 126.636 127.478 125.955 127.363 125.283C127.248 124.611 127.025 123.962 126.694 123.337C126.363 122.711 125.937 122.124 125.418 121.574C124.899 121.025 124.334 120.565 123.723 120.194C123.113 119.824 122.476 119.562 121.811 119.41C121.147 119.257 120.463 119.281 119.76 119.481C119.057 119.681 118.407 120.064 117.808 120.63C116.798 121.585 116.297 122.588 116.305 123.639C116.314 124.69 116.656 125.621 117.33 126.433L116.005 127.685C115 126.387 114.548 124.989 114.647 123.492C114.747 121.995 115.429 120.649 116.695 119.452C118.128 118.098 119.783 117.504 121.66 117.672C123.537 117.839 125.231 118.723 126.743 120.322ZM31.9402 133.302L31.9712 133.328L39.6274 124.232L41.022 125.406L31.6964 136.485L29.9918 135.051L32.1421 121.268L32.1112 121.241L24.4289 130.368L23.0344 129.194L32.36 118.115L34.0645 119.55L31.9402 133.302ZM45.2092 130.114C46.9852 129.371 48.8321 129.435 50.7501 130.306C52.6681 131.177 53.9318 132.525 54.5408 134.351C55.1502 136.178 54.9997 138.093 54.0896 140.097C53.1796 142.101 51.8383 143.471 50.0648 144.209C48.2918 144.946 46.4461 144.879 44.5281 144.008C42.6101 143.137 41.3452 141.791 40.7333 139.971C40.1215 138.151 40.2704 136.239 41.1802 134.235C42.0903 132.231 43.4334 130.857 45.2092 130.114ZM42.1228 137.866C42.0915 138.801 42.3317 139.692 42.8439 140.54C43.3562 141.388 44.1409 142.053 45.1981 142.533C46.2555 143.013 47.272 143.166 48.2473 142.994C49.2231 142.822 50.0523 142.416 50.7352 141.777C51.4185 141.138 51.9832 140.327 52.4298 139.343C52.8766 138.36 53.1171 137.398 53.1512 136.456C53.1856 135.516 52.9467 134.621 52.4344 133.773C51.9223 132.925 51.1377 132.261 50.0801 131.781C49.0229 131.301 48.0067 131.147 47.0309 131.32C46.0555 131.492 45.2247 131.901 44.5388 132.546C43.853 133.191 43.2867 134.005 42.8401 134.989C42.3935 135.972 42.1546 136.931 42.1228 137.866ZM62.7979 134.594L59.5308 148.702L57.755 148.291L61.0219 134.182L62.7979 134.594ZM70.2171 148.617L70.9927 135.779L72.8122 135.889L72.0368 148.727L76.8483 149.017L76.7506 150.635L65.3076 149.944L65.4053 148.326L70.2171 148.617ZM81.8445 146.173C81.6036 144.748 81.8493 143.628 82.581 142.813C83.3129 141.997 84.3777 141.472 85.7756 141.235L89.6499 140.581L88.6406 134.609L90.438 134.306L92.8514 148.585L87.1799 149.543C85.7817 149.78 84.6034 149.633 83.6441 149.104C82.6853 148.574 82.0852 147.597 81.8445 146.173ZM86.7101 147.979L90.7841 147.291L89.9199 142.178L85.8459 142.867C84.0885 143.164 83.3538 144.164 83.6418 145.869C83.9299 147.573 84.9525 148.277 86.7101 147.979ZM96.3242 132.31L101.079 145.989L99.3568 146.587L94.6024 132.908L96.3242 132.31ZM105.024 140.177C104.055 138.429 104.221 136.947 105.523 135.731L105.503 135.696C104.925 135.878 104.362 135.85 103.814 135.614C103.265 135.377 102.791 135.023 102.39 134.551C101.989 134.078 101.627 133.592 101.303 133.092C100.979 132.592 100.695 132.163 100.45 131.805C100.205 131.447 100.014 131.283 99.876 131.313L99.817 131.207L101.535 130.254C101.676 130.284 101.863 130.496 102.097 130.892C102.332 131.286 102.595 131.712 102.886 132.168C103.178 132.624 103.509 133.061 103.881 133.481C104.252 133.9 104.702 134.168 105.23 134.284C105.758 134.401 106.323 134.292 106.925 133.958L110.556 131.944L107.717 126.825L109.311 125.941L116.335 138.605L111.199 141.454C109.935 142.155 108.744 142.395 107.626 142.174C106.507 141.952 105.64 141.287 105.024 140.177ZM109.069 140.516C109.407 140.444 109.698 140.356 109.942 140.252C110.185 140.148 110.466 140.008 110.785 139.831L113.955 138.072L111.342 133.361L108.171 135.119C107.853 135.296 107.584 135.46 107.367 135.612C107.15 135.763 106.922 135.963 106.682 136.212C106.441 136.461 106.277 136.714 106.188 136.972C106.1 137.23 106.074 137.545 106.111 137.918C106.148 138.291 106.284 138.691 106.52 139.116C106.756 139.541 107.023 139.868 107.319 140.097C107.616 140.326 107.897 140.471 108.163 140.532C108.428 140.593 108.73 140.588 109.069 140.516ZM120.324 34.7746L119.077 33.4455L128.455 24.6435L125.156 21.1289L126.337 20.0198L134.182 28.3786L133.001 29.4876L129.702 25.9728L120.324 34.7746ZM111.884 27.0963L120.753 15.6481L122.194 16.7645L113.325 28.2126L111.884 27.0963ZM104.43 22.2097L106.709 9.55563L106.672 9.53816L98.3492 19.3388L96.5176 18.474L99.4588 3.84794L101.199 4.66943L98.6222 16.5782L98.6588 16.5955L106.657 7.24627L108.488 8.11103L106.351 20.2274L106.388 20.2448L113.946 10.6881L115.686 11.5095L106.261 23.0745L104.43 22.2097ZM78.7943 11.3561C78.8288 10.2091 79.1374 9.26254 79.7206 8.51672C80.3034 7.77128 81.1215 7.41406 82.1743 7.44563C83.2403 7.47779 84.0387 7.88009 84.5695 8.65254C85.1001 9.42517 85.3481 10.3916 85.3131 11.5522C85.2782 12.7131 84.9726 13.663 84.3965 14.4021C83.8203 15.1414 82.999 15.4949 81.9331 15.4627C80.8803 15.4309 80.0852 15.0256 79.5482 14.246C79.0109 13.4669 78.7597 12.5034 78.7943 11.3561ZM83.3733 13.3884C83.6978 12.9321 83.8719 12.3062 83.8959 11.5095C83.92 10.7135 83.7835 10.0777 83.4873 9.60269C83.1906 9.12771 82.7391 8.88108 82.1316 8.86282C81.5242 8.84456 81.0584 9.06356 80.7339 9.51988C80.4092 9.97619 80.2353 10.6025 80.2115 11.3988C80.1874 12.1952 80.3235 12.8306 80.6201 13.3056C80.9164 13.7806 81.3683 14.0272 81.9758 14.0455C82.583 14.0637 83.0486 13.8447 83.3733 13.3884ZM73.0743 14.9124L80.8441 1.14422L82.2613 1.18692L74.4915 14.9551L73.0743 14.9124Z" fill="white"/>
<circle opacity="0.15" cx="75.7246" cy="75.606" r="20" fill="white"/>
<circle cx="75.7248" cy="75.6061" r="6.66667" fill="white"/>
</g>
<defs>
<clipPath id="clip0">
<rect width="150.206" height="150" fill="white" transform="translate(0.724609 0.605957)"/>
</clipPath>
</defs>
</svg>
