<svg width="23" height="23" viewBox="0 0 23 23" fill="none" xmlns="http://www.w3.org/2000/svg">
<path fill-rule="evenodd" clip-rule="evenodd" d="M0.105469 3.60409C0.105469 1.94827 1.44778 0.605957 3.10361 0.605957H19.1073C20.7632 0.605957 22.1055 1.94827 22.1055 3.6041V19.6078C22.1055 21.2636 20.7632 22.606 19.1073 22.606H3.10361C1.44778 22.606 0.105469 21.2636 0.105469 19.6078V3.60409ZM10.1754 7.05705H8.14467V8.22812H8.12437C7.65052 7.42935 6.87883 6.90812 5.92437 6.90812C3.90714 6.90812 3.00006 8.34997 3.00006 10.2792C3.00006 12.1949 4.11021 13.542 5.88375 13.542C6.78406 13.542 7.52868 13.19 8.06344 12.4318H8.09052V12.7838C8.09052 14.0496 7.39329 14.6589 6.10037 14.6589C5.16621 14.6589 4.59083 14.4626 3.90714 14.1241L3.79206 15.8909C4.31329 16.0804 5.20006 16.3038 6.2696 16.3038C8.88252 16.3038 10.1754 15.4441 10.1754 12.7838V7.05705ZM6.58098 8.6275C5.7416 8.6275 5.30837 9.35858 5.30837 10.2453C5.30837 11.254 5.90406 11.8226 6.58098 11.8226C7.37298 11.8226 8.00929 11.1524 8.00929 10.1573C8.00929 9.43304 7.5896 8.6275 6.58098 8.6275ZM14.1746 12.6282V16.1482H11.9272V7.05714H13.9918V8.22822H14.0189C14.4724 7.32114 15.4133 6.90822 16.4355 6.90822C18.2293 6.90822 19.2109 8.6073 19.2109 10.1778C19.2109 12.0935 18.1819 13.6842 16.2527 13.6842C15.4743 13.6842 14.6281 13.3999 14.2016 12.6282H14.1746ZM16.9026 10.2251C16.9026 11.2608 16.3949 11.9648 15.5487 11.9648C14.8041 11.9648 14.1813 11.2541 14.1813 10.3064C14.1813 9.33837 14.7296 8.61407 15.5487 8.61407C16.4152 8.62084 16.9026 9.36545 16.9026 10.2251Z" fill="white"/>
</svg>
