<svg width="215" height="215" viewBox="0 0 215 215" fill="none" xmlns="http://www.w3.org/2000/svg">
<g filter="url(#filter0_b)">
<circle cx="107.826" cy="107.705" r="87.2806" transform="rotate(-15 107.826 107.705)" fill="white" fill-opacity="0.2"/>
</g>
<path d="M122.164 103.074C122.908 103.273 123.157 104.203 122.613 104.747L101.021 126.339C100.476 126.884 99.5467 126.635 99.3475 125.891L91.4442 96.3956C91.245 95.652 91.9254 94.9716 92.669 95.1708L122.164 103.074Z" fill="white"/>
<path fill-rule="evenodd" clip-rule="evenodd" d="M169.844 80.8816C167.758 82.0734 165.691 82.4303 163.645 81.9529C161.598 81.4754 160.004 80.2383 158.864 78.2416C157.724 76.2451 157.467 74.2438 158.096 72.2384C158.724 70.233 160.081 68.6344 162.168 67.4428C164.254 66.2511 166.317 65.8959 168.357 66.377C170.397 66.858 171.988 68.097 173.128 70.0937C174.269 72.0904 174.528 74.0895 173.906 76.0914C173.284 78.0931 171.93 79.6901 169.844 80.8816ZM171.592 70.9711C170.964 69.8701 170.162 69.0846 169.189 68.6135C168.216 68.1425 167.222 67.9713 166.21 68.1002C165.197 68.2289 164.178 68.5857 163.155 69.1706C162.13 69.7557 161.303 70.4532 160.671 71.264C160.039 72.0746 159.679 73.0189 159.59 74.0967C159.501 75.1743 159.771 76.2636 160.4 77.3644C161.028 78.465 161.83 79.2507 162.803 79.7219C163.776 80.1928 164.773 80.3619 165.792 80.2297C166.811 80.0971 167.833 79.7388 168.857 79.1539C169.881 78.5691 170.705 77.8728 171.331 77.0659C171.956 76.2588 172.313 75.3164 172.402 74.2387C172.491 73.1608 172.221 72.0717 171.592 70.9711ZM158.459 54.606L154.775 58.1744L159.681 63.2409L158.411 64.4715L153.504 59.405L148.374 64.373L146.99 62.9437L158.346 51.946L165.806 59.6489L164.535 60.8795L158.459 54.606ZM149.467 54.5897C148.12 56.7201 146.554 58.0316 144.769 58.5247C142.983 59.0175 141.162 58.6774 139.306 57.5036L134.466 54.4432L142.915 41.0818L147.755 44.1421C149.611 45.3159 150.697 46.818 151.013 48.6484C151.329 50.4791 150.814 52.4594 149.467 54.5897ZM146.81 45.6372L143.651 43.6401L137.093 54.0116L140.252 56.0086C143.092 57.8046 145.603 56.9773 147.785 53.5262C149.975 50.0629 149.65 47.4331 146.81 45.6372ZM133.202 51.9433L132.627 53.6158L122.905 50.2724L128.046 35.3233L129.927 35.9704L125.362 49.2468L133.202 51.9433ZM119.205 49.4255L118.23 45.3451L111.303 44.624L109.507 48.416L107.462 48.2033L114.904 33.0841L117.104 33.3131L121.251 49.6384L119.205 49.4255ZM115.792 35.0215L112.145 42.9334L117.775 43.5192L115.836 35.0261L115.792 35.0215ZM102.331 40.2346L102.337 40.2784C103.248 40.2976 104.036 40.5986 104.699 41.1815C105.363 41.7646 105.774 42.6105 105.932 43.7194C106.136 45.1497 105.82 46.3335 104.986 47.2709C104.152 48.2089 102.917 48.7939 101.283 49.0266L94.5414 49.9868L92.3126 34.3363L98.6165 33.4386C100.207 33.2121 101.509 33.3877 102.522 33.9654C103.534 34.5436 104.127 35.4378 104.3 36.649C104.528 38.2545 103.872 39.4496 102.331 40.2346ZM96.2621 47.9551L101.231 47.2475C103.317 46.9504 104.228 45.868 103.962 43.9999C103.841 43.1538 103.5 42.5101 102.939 42.0687C102.377 41.6277 101.688 41.4652 100.87 41.5817L95.464 42.3516L96.2621 47.9551ZM101.453 35.48C100.954 35.1119 100.267 34.99 99.3912 35.1147L94.5318 35.8069L95.2146 40.6006L99.855 39.9396C100.906 39.79 101.613 39.4808 101.978 39.0119C102.343 38.5433 102.471 37.9222 102.361 37.1484C102.255 36.4043 101.952 35.8482 101.453 35.48ZM129.346 178.745L127.397 179.146L126.04 172.564L117.768 174.268L119.125 180.851L117.176 181.253L113.985 165.77L115.934 165.368L117.411 172.536L125.683 170.831L124.206 163.663L126.155 163.262L129.346 178.745ZM76.2386 50.4576L81.526 47.7833L82.3244 49.3617L77.0367 52.0359L76.2386 50.4576ZM110.178 165.896L112.232 166.001L105.597 181.491L103.389 181.378L98.3867 165.294L100.44 165.399L101.63 169.423L108.585 169.777L110.178 165.896ZM102.18 171.222L104.564 179.601L104.608 179.603L107.833 171.51L102.18 171.222ZM52.2186 58.1272L53.618 56.7128L63.5983 66.5873L69.4297 60.6932L70.6872 61.9373L63.4562 69.2457L52.2186 58.1272ZM61.0919 72.2086L56.9935 71.3108L53.3292 77.2334L55.9619 80.5002L54.8799 82.2489L44.5077 68.9676L45.6708 67.0875L62.1737 70.46L61.0919 72.2086ZM46.6615 68.9743L46.6381 69.012L52.174 75.7388L55.1521 70.9254L46.6615 68.9743ZM53.7565 85.8798L39.134 79.873L39.8899 78.0324L54.5127 84.0393L53.7565 85.8798ZM44.8344 89.1664L44.8776 89.1765C45.1529 88.5745 45.5869 88.1378 46.1791 87.8662C46.7716 87.5948 47.4057 87.4691 48.0819 87.4893C48.7579 87.5096 49.4171 87.5713 50.0587 87.6744C50.7008 87.7774 51.2563 87.8607 51.7256 87.9238C52.1954 87.987 52.4681 87.952 52.5444 87.8181L52.6737 87.8481L52.1904 89.9376C52.0636 90.0295 51.7541 90.0258 51.2623 89.9271C50.7709 89.8287 50.2336 89.731 49.6509 89.6338C49.0684 89.5369 48.4711 89.4857 47.8596 89.4804C47.2481 89.475 46.7022 89.644 46.222 89.9867C45.742 90.3294 45.4169 90.867 45.2475 91.5994L44.2262 96.0153L50.4515 97.4553L50.003 99.3939L34.6013 95.8314L36.0462 89.5845C36.4016 88.0481 37.0779 86.9071 38.0747 86.1619C39.0718 85.4166 40.2453 85.2001 41.5949 85.5124C43.7204 86.004 44.8001 87.2222 44.8344 89.1664ZM39.9823 87.4314C39.5794 87.5049 39.2564 87.6267 39.0126 87.7971C38.7689 87.9677 38.5526 88.2165 38.3635 88.5434C38.1743 88.8706 38.0333 89.1705 37.9396 89.4438C37.8463 89.7172 37.7545 90.0478 37.6649 90.4356L36.773 94.2914L42.5028 95.6167L43.3947 91.7609C43.4845 91.3732 43.5474 91.0361 43.5832 90.7492C43.6195 90.4627 43.6242 90.1312 43.5978 89.7541C43.5716 89.3776 43.4864 89.0589 43.3424 88.7987C43.1982 88.5384 42.9613 88.2872 42.6317 88.0443C42.3022 87.8018 41.8789 87.6204 41.362 87.501C40.8449 87.3814 40.3851 87.3583 39.9823 87.4314ZM41.57 102.123C43.9707 102.024 45.9702 102.657 47.5679 104.022C49.1659 105.387 50.0123 107.218 50.1072 109.515C50.2021 111.813 49.5096 113.708 48.0296 115.2C46.5498 116.692 44.6095 117.487 42.2088 117.586C39.8084 117.686 37.8128 117.053 36.2221 115.687C34.6315 114.322 33.7886 112.491 33.6936 110.193C33.5989 107.896 34.2879 106.001 35.7604 104.509C37.2333 103.018 39.1699 102.222 41.57 102.123ZM38.4953 104.828C37.5692 105.257 36.8185 105.93 36.2441 106.846C35.6699 107.763 35.4088 108.854 35.4611 110.12C35.5133 111.387 35.8636 112.453 36.5114 113.319C37.1596 114.185 37.9629 114.793 38.9215 115.144C39.8803 115.496 40.9486 115.647 42.1267 115.598C43.3051 115.55 44.3608 115.311 45.2947 114.881C46.2284 114.452 46.9828 113.779 47.5569 112.863C48.1314 111.946 48.3924 110.855 48.34 109.588C48.2876 108.322 47.9377 107.256 47.2894 106.39C46.6417 105.524 45.8346 104.916 44.8685 104.565C43.9025 104.214 42.8306 104.063 41.6521 104.111C40.4741 104.16 39.4218 104.399 38.4953 104.828ZM38.3853 126.668L51.8573 122.716L52.4174 124.625L38.9455 128.577L40.4268 133.627L38.7295 134.125L35.2068 122.116L36.9041 121.618L38.3853 126.668ZM54.3148 133.184C55.6911 133.546 56.888 134.607 57.9067 136.368C58.9254 138.128 59.249 139.695 58.8769 141.068C58.5052 142.442 57.5853 143.552 56.118 144.401L46.9896 149.683L45.9931 147.961L55.1215 142.679C57.3161 141.41 57.7341 139.601 56.3758 137.254C55.0177 134.906 53.2414 134.367 51.0468 135.637L41.9182 140.918L40.9217 139.196L50.0503 133.914C51.5176 133.065 52.9392 132.822 54.3148 133.184ZM55.2368 156.709L65.3601 146.981L66.7389 148.416L56.6157 158.144L60.2617 161.938L58.9864 163.164L50.3154 154.141L51.5908 152.915L55.2368 156.709ZM76.6173 172.555L78.9947 168.185L71.867 164.307L72.7124 162.753L79.8399 166.631L82.4815 161.776L74.1886 157.264L75.0339 155.71L85.0747 161.173L77.5199 175.059L67.7122 169.723L68.5574 168.17L76.6173 172.555ZM94.0977 163.98L95.2973 180.684L93.2701 180.134L92.5317 165.617L92.5102 165.611L84.5421 177.769L82.5148 177.219L91.9851 163.407L94.0977 163.98ZM133.368 159.743C135.106 158.901 136.76 158.649 138.332 158.985C139.903 159.322 141.12 160.263 141.984 161.811L140.193 162.678C138.836 160.485 136.818 160.037 134.139 161.335C132.984 161.894 132.248 162.529 131.929 163.24C131.61 163.951 131.621 164.658 131.961 165.361C132.404 166.277 132.988 166.78 133.712 166.872C134.436 166.964 135.757 166.791 137.674 166.354C138.263 166.216 138.758 166.115 139.161 166.051C139.564 165.987 140.051 165.952 140.621 165.946C141.192 165.94 141.678 165.999 142.082 166.123C142.486 166.247 142.89 166.473 143.295 166.801C143.699 167.129 144.03 167.559 144.287 168.089C144.839 169.23 144.855 170.345 144.333 171.432C143.812 172.52 142.775 173.44 141.223 174.191C139.684 174.936 138.246 175.154 136.908 174.843C135.571 174.533 134.492 173.683 133.673 172.295L135.463 171.428C136.065 172.332 136.771 172.887 137.583 173.092C138.395 173.296 139.351 173.132 140.452 172.599C141.434 172.124 142.108 171.58 142.475 170.969C142.842 170.357 142.882 169.753 142.592 169.156C142.387 168.731 142.137 168.41 141.843 168.192C141.55 167.974 141.2 167.852 140.795 167.827C140.39 167.803 139.984 167.819 139.578 167.876C139.172 167.933 138.671 168.024 138.076 168.149C137.898 168.186 137.765 168.217 137.68 168.243C137.098 168.36 136.662 168.449 136.371 168.508C136.08 168.566 135.699 168.633 135.226 168.706C134.754 168.779 134.388 168.809 134.128 168.796C133.867 168.782 133.553 168.758 133.184 168.724C132.815 168.69 132.515 168.61 132.282 168.485C132.05 168.36 131.795 168.206 131.517 168.021C131.239 167.836 130.993 167.59 130.78 167.285C130.566 166.978 130.363 166.627 130.17 166.229C129.624 165.101 129.596 163.944 130.086 162.757C130.576 161.57 131.67 160.565 133.368 159.743ZM156.449 151.045L152.266 155.242L151.013 153.993L155.196 149.796L156.449 151.045ZM168.45 133.452C169.817 133.005 171.184 133.128 172.551 133.821C173.918 134.514 174.825 135.544 175.273 136.911C175.72 138.278 175.61 139.619 174.943 140.934C174.277 142.248 173.26 143.129 171.893 143.576C170.526 144.024 169.159 143.9 167.791 143.207C166.424 142.514 165.517 141.484 165.07 140.117C164.623 138.75 164.733 137.409 165.399 136.094C166.066 134.78 167.083 133.899 168.45 133.452ZM165.917 139.84C166.289 140.979 167.048 141.839 168.191 142.419C169.322 142.992 170.46 143.094 171.606 142.725C172.752 142.355 173.601 141.625 174.155 140.534C174.708 139.443 174.795 138.326 174.416 137.183C174.036 136.041 173.282 135.183 172.151 134.61C171.007 134.03 169.866 133.926 168.727 134.299C167.587 134.671 166.741 135.403 166.188 136.494C165.635 137.585 165.544 138.7 165.917 139.84ZM167.728 138.663C168.089 138.847 168.463 138.933 168.849 138.922C169.235 138.911 169.537 138.689 169.757 138.255L170.197 137.387L168.147 136.347L168.567 135.519L173.634 138.089L172.594 140.14C172.335 140.652 172 140.995 171.59 141.167C171.18 141.339 170.752 141.312 170.305 141.086C169.608 140.732 169.334 140.213 169.483 139.529L169.464 139.519C169.284 139.741 169.038 139.861 168.725 139.875C168.411 139.89 168.12 139.837 167.851 139.717C167.581 139.597 167.329 139.49 167.096 139.397C166.862 139.303 166.726 139.279 166.686 139.325L166.647 139.305L167.097 138.418C167.156 138.398 167.366 138.48 167.728 138.663ZM170.262 139.874C170.341 139.996 170.472 140.104 170.656 140.198C170.84 140.291 171.003 140.336 171.145 140.334C171.286 140.331 171.416 140.265 171.532 140.134C171.648 140.002 171.729 139.899 171.776 139.824C171.822 139.748 171.899 139.605 172.005 139.395L172.445 138.527L170.947 137.767L170.507 138.635C170.407 138.832 170.338 138.975 170.302 139.064C170.265 139.152 170.23 139.279 170.196 139.444C170.162 139.608 170.184 139.752 170.262 139.874ZM174.641 120.721L172.612 128.578L170.9 128.135L172.928 120.279L167.576 118.897L165.216 128.038L163.504 127.596L166.361 116.528L181.668 120.48L178.877 131.291L177.164 130.849L179.458 121.965L174.641 120.721ZM177.454 114.279L177.454 112.289C177.881 112.2 178.294 112.06 178.692 111.869C179.09 111.677 179.488 111.408 179.886 111.061C180.284 110.715 180.604 110.24 180.847 109.635C181.09 109.031 181.212 108.338 181.212 107.557C181.212 106.658 181.027 105.854 180.659 105.147C180.29 104.44 179.796 103.879 179.177 103.467C178.558 103.054 177.876 102.745 177.132 102.539C176.387 102.332 175.602 102.229 174.777 102.229C173.952 102.23 173.163 102.332 172.412 102.539C171.66 102.746 170.974 103.055 170.355 103.468C169.736 103.881 169.243 104.441 168.874 105.149C168.506 105.856 168.322 106.66 168.322 107.559C168.322 109.077 168.742 110.226 169.583 111.008C170.423 111.789 171.418 112.216 172.568 112.29L172.568 114.28C170.784 114.103 169.336 113.414 168.223 112.213C167.11 111.011 166.553 109.46 166.553 107.559C166.553 105.407 167.323 103.649 168.863 102.286C170.403 100.922 172.374 100.24 174.777 100.24C177.165 100.239 179.129 100.921 180.669 102.284C182.21 103.647 182.98 105.404 182.981 107.557C182.981 109.428 182.451 110.969 181.389 112.178C180.328 113.386 179.016 114.087 177.454 114.279ZM172.906 93.923L172.863 93.9337C172.892 94.5951 172.704 95.1815 172.301 95.6929C171.897 96.2044 171.39 96.6052 170.779 96.8952C170.168 97.1851 169.553 97.4303 168.934 97.6309C168.316 97.8315 167.783 98.0106 167.337 98.1681C166.89 98.3257 166.663 98.4812 166.656 98.6349L166.527 98.6672L166.006 96.587C166.077 96.4474 166.354 96.3094 166.837 96.1735C167.319 96.0373 167.842 95.8795 168.405 95.7008C168.968 95.5216 169.523 95.2952 170.07 95.0213C170.617 94.7475 171.025 94.3488 171.297 93.8248C171.568 93.3009 171.613 92.6744 171.43 91.9453L170.328 87.5488L164.13 89.1023L163.646 87.172L178.98 83.3286L180.539 89.548C180.923 91.0776 180.84 92.4016 180.292 93.519C179.744 94.6366 178.798 95.3638 177.454 95.7006C175.338 96.231 173.822 95.6383 172.906 93.923ZM178.712 92.4903C178.852 92.2275 178.931 91.9075 178.95 91.5305C178.97 91.1531 178.959 90.8217 178.918 90.5357C178.876 90.2498 178.807 89.9138 178.711 89.5277L177.748 85.6889L172.044 87.1187L173.006 90.9575C173.102 91.3436 173.2 91.6724 173.299 91.9442C173.397 92.2157 173.544 92.513 173.739 92.8367C173.934 93.1599 174.155 93.4048 174.402 93.5709C174.648 93.7369 174.974 93.8528 175.378 93.9188C175.782 93.9845 176.241 93.9532 176.756 93.8242C177.271 93.6951 177.69 93.5062 178.016 93.2576C178.341 93.0089 178.573 92.7533 178.712 92.4903Z" fill="white"/>
<defs>
<filter id="filter0_b" x="-19.0703" y="-19.1913" width="253.793" height="253.793" filterUnits="userSpaceOnUse" color-interpolation-filters="sRGB">
<feFlood flood-opacity="0" result="BackgroundImageFix"/>
<feGaussianBlur in="BackgroundImage" stdDeviation="10"/>
<feComposite in2="SourceAlpha" operator="in" result="effect1_backgroundBlur"/>
<feBlend mode="normal" in="SourceGraphic" in2="effect1_backgroundBlur" result="shape"/>
</filter>
</defs>
</svg>
