<svg width="152" height="151" viewBox="0 0 152 151" fill="none" xmlns="http://www.w3.org/2000/svg">
<g clip-path="url(#clip0)">
<path fill-rule="evenodd" clip-rule="evenodd" d="M142.931 63.0457C140.744 63.7531 138.738 63.6826 136.915 62.8343C135.091 61.9861 133.841 60.5152 133.164 58.4216C132.487 56.3279 132.639 54.4032 133.621 52.6481C134.602 50.8926 136.187 49.6613 138.374 48.9539C140.562 48.2465 142.564 48.3178 144.381 49.1684C146.197 50.0186 147.444 51.4909 148.121 53.5845C148.798 55.6781 148.65 57.6015 147.675 59.3547C146.7 61.1078 145.119 62.3383 142.931 63.0457ZM146.511 54.1052C146.138 52.9509 145.541 52.058 144.722 51.4262C143.902 50.7942 143.005 50.4394 142.032 50.3617C141.058 50.2837 140.034 50.4185 138.96 50.7656C137.886 51.113 136.974 51.6041 136.224 52.2398C135.473 52.8751 134.95 53.6891 134.656 54.6814C134.362 55.6732 134.401 56.7464 134.774 57.9007C135.148 59.0547 135.744 59.9477 136.564 60.5799C137.383 61.2116 138.283 61.5653 139.264 61.6411C140.245 61.7167 141.272 61.5811 142.345 61.2338C143.419 60.8866 144.328 60.3961 145.072 59.7629C145.815 59.1294 146.335 58.3166 146.629 57.3247C146.923 56.3324 146.884 55.2593 146.511 54.1052ZM127.811 45.7577L133.728 32.4807L133.704 32.4458L123.49 39.5109L122.406 37.9449L134.848 29.3392L136.172 31.2533L130.22 44.5545L130.244 44.5893L140.493 37.5001L141.576 39.0662L129.135 47.6719L127.811 45.7577ZM111.335 28.1369L109.769 27.0539L113.295 21.9549L113.848 11.4825L115.536 12.6495L114.927 21.2313L114.961 21.2554L122.793 17.6672L124.481 18.8344L114.861 23.0379L111.335 28.1369ZM111.867 126.093C112.18 126.456 112.529 126.845 112.912 127.261C113.295 127.676 113.716 128.066 114.175 128.429C114.634 128.792 115.146 128.985 115.71 129.008C116.274 129.031 116.835 128.816 117.393 128.362L120.759 125.625L116.901 120.881L118.378 119.68L127.922 131.417L123.162 135.288C121.991 136.24 120.81 136.705 119.619 136.683C118.428 136.66 117.414 136.135 116.578 135.106C115.261 133.486 115.161 131.932 116.277 130.443L116.25 130.41C115.688 130.703 115.104 130.778 114.497 130.635C113.89 130.492 113.337 130.215 112.838 129.802C112.339 129.39 111.878 128.956 111.453 128.502C111.029 128.047 110.658 127.657 110.34 127.334C110.023 127.01 109.796 126.877 109.66 126.933L109.58 126.835L111.172 125.54C111.322 125.545 111.554 125.729 111.867 126.093ZM117.282 132.584C117.388 132.961 117.601 133.346 117.922 133.74C118.242 134.135 118.576 134.422 118.923 134.603C119.271 134.784 119.586 134.882 119.871 134.896C120.155 134.911 120.465 134.85 120.799 134.714C121.134 134.578 121.417 134.434 121.648 134.282C121.88 134.131 122.143 133.935 122.439 133.695L125.377 131.306L121.827 126.939L118.888 129.328C118.593 129.568 118.347 129.786 118.151 129.982C117.956 130.177 117.757 130.425 117.556 130.725C117.355 131.025 117.232 131.316 117.188 131.597C117.144 131.878 117.175 132.207 117.282 132.584ZM102.922 15.3106L102.907 15.3504C103.444 15.6862 103.805 16.152 103.989 16.7476C104.174 17.3435 104.214 17.9606 104.111 18.5997C104.008 19.2387 103.868 19.8566 103.691 20.4527C103.514 21.0493 103.366 21.5661 103.248 22.0037C103.13 22.4416 103.129 22.7047 103.247 22.7936L103.202 22.9125L101.28 22.1953C101.208 22.0635 101.25 21.7702 101.404 21.3159C101.559 20.8618 101.718 20.3642 101.882 19.8231C102.046 19.2824 102.169 18.7219 102.25 18.1422C102.33 17.5627 102.238 17.024 101.972 16.5258C101.706 16.0278 101.236 15.6529 100.562 15.4013L96.4985 13.8854L94.3613 19.6145L92.5772 18.9488L97.8647 4.77527L103.613 6.91964C105.027 7.44721 106.026 8.23024 106.61 9.26834C107.194 10.3068 107.254 11.447 106.79 12.689C106.061 14.6451 104.771 15.5189 102.922 15.3106ZM104.942 9.95597C104.81 9.70345 104.601 9.46738 104.314 9.24758C104.027 9.02757 103.76 8.85655 103.512 8.73372C103.265 8.61128 102.962 8.48335 102.606 8.35033L99.0572 7.02661L97.0901 12.2996L100.639 13.6233C100.995 13.7563 101.307 13.858 101.575 13.9275C101.843 13.9973 102.157 14.0427 102.517 14.0645C102.878 14.0862 103.191 14.0449 103.456 13.9405C103.721 13.8359 103.988 13.6423 104.26 13.3596C104.531 13.0767 104.755 12.6975 104.933 12.2218C105.11 11.7459 105.189 11.3124 105.169 10.9212C105.149 10.53 105.074 10.2083 104.942 9.95597ZM85.4959 4.13643L84.062 17.4948L82.1688 17.2916L83.6026 3.93327L78.5959 3.39571L78.7765 1.71289L90.6834 2.99097L90.5028 4.67379L85.4959 4.13643ZM85.8853 148.303L84.9981 135.915L86.8974 135.779L87.978 150.868L85.6567 151.034L77.2324 139.144L77.1901 139.147L78.0805 151.577L76.181 151.713L75.1004 136.624L77.4219 136.457L85.843 148.306L85.8853 148.303ZM66.0911 149.014C64.4385 150.15 62.5376 150.48 60.3891 150.005C58.2408 149.529 56.6573 148.427 55.6384 146.699C54.6199 144.971 54.359 142.985 54.8558 140.74C55.3528 138.495 56.4287 136.801 58.0829 135.658C59.7375 134.514 61.639 134.181 63.7873 134.656C65.9356 135.132 67.5187 136.237 68.5356 137.972C69.5532 139.707 69.8131 141.697 69.3161 143.942C68.8191 146.186 67.7444 147.877 66.0911 149.014ZM67.5704 140.424C67.4023 139.455 66.9649 138.592 66.2578 137.836C65.5514 137.08 64.606 136.571 63.4213 136.309C62.2371 136.047 61.1653 136.109 60.2054 136.496C59.2458 136.883 58.4849 137.48 57.9233 138.288C57.362 139.095 56.959 140.05 56.7149 141.152C56.471 142.253 56.4342 143.285 56.6039 144.248C56.7739 145.21 57.2119 146.069 57.9186 146.825C58.6254 147.581 59.5708 148.09 60.7551 148.352C61.9397 148.614 63.0117 148.552 63.9712 148.165C64.9312 147.778 65.6911 147.184 66.251 146.383C66.8111 145.583 67.2131 144.632 67.457 143.53C67.7009 142.428 67.7387 141.393 67.5704 140.424ZM66.6424 13.6021C65.8899 13.7209 65.246 13.5761 64.7104 13.168C64.1748 12.7599 63.8508 12.2006 63.7387 11.4901C63.6265 10.7795 63.7624 10.1476 64.1464 9.59433C64.5302 9.04109 65.0985 8.70512 65.8507 8.5864C66.603 8.46768 67.2472 8.61226 67.7828 9.02033C68.3184 9.42859 68.6422 9.9879 68.7544 10.6984C68.8665 11.409 68.7307 12.0408 68.3468 12.5942C67.9628 13.1474 67.3947 13.4834 66.6424 13.6021ZM41.732 13.027L41.6949 13.0473L44.8874 26.0936L43.0337 27.1135L32.461 15.664L34.222 14.6951L42.7191 24.1714L42.7563 24.151L39.7463 11.6562L41.6001 10.6363L50.5422 19.8678L50.5792 19.8474L47.1244 7.59728L48.8854 6.62853L52.8958 21.6881L51.0419 22.708L41.732 13.027ZM35.3057 30.7934C35.4499 32.7996 34.7715 34.6066 33.2701 36.2154C31.7688 37.8242 30.0128 38.6262 28.0016 38.6205C25.9906 38.6154 24.1446 37.8283 22.4636 36.2597C20.7827 34.6913 19.8727 32.9066 19.7336 30.9052C19.5945 28.9042 20.2757 27.099 21.7769 25.4902C23.2781 23.8816 25.0317 23.0777 27.0377 23.078C29.0436 23.0788 30.8873 23.8632 32.5679 25.4316C34.249 27.0003 35.1615 28.7879 35.3057 30.7934ZM31.2689 26.8237C30.4439 26.054 29.5737 25.4979 28.6589 25.155C27.744 24.8128 26.7813 24.7536 25.771 24.9779C24.7609 25.2028 23.842 25.7582 23.0145 26.6451C22.1866 27.5321 21.696 28.4874 21.5416 29.5104C21.3873 30.5338 21.5128 31.4902 21.9178 32.379C22.3227 33.2682 22.9379 34.0977 23.7626 34.8676C24.588 35.6375 25.4601 36.1962 26.3805 36.5435C27.3005 36.8911 28.2659 36.9526 29.276 36.7277C30.2862 36.5034 31.2048 35.9476 32.0327 35.0607C32.8602 34.1739 33.3512 33.219 33.5053 32.1954C33.6597 31.1724 33.5316 30.2137 33.1216 29.3196C32.7113 28.4258 32.094 27.5938 31.2689 26.8237ZM24.7852 47.0382L10.3034 48.2917L10.2846 48.3298L21.4129 53.8441L20.5674 55.5502L7.01258 48.8334L8.04578 46.7482L22.5656 45.5132L22.5844 45.4754L11.4183 39.9423L12.2638 38.236L25.8186 44.9528L24.7852 47.0382ZM17.3881 69.9954L17.2063 71.891L11.0353 71.2988L1.62207 75.9215L1.81817 73.8786L9.60792 70.2264L9.61204 70.1843L2.66115 65.0962L2.85725 63.0533L11.2173 69.4032L17.3881 69.9954ZM6.10574 81.4603C8.17038 81.1502 9.55973 81.8545 10.2742 83.5728L10.3159 83.5665C10.3494 82.9339 10.582 82.3926 11.0135 81.9427C11.4453 81.4927 11.9654 81.1579 12.5743 80.9381C13.1832 80.7183 13.7913 80.5414 14.3988 80.4074C15.0065 80.2734 15.5301 80.1519 15.9699 80.043C16.4103 79.9341 16.6405 79.8069 16.6615 79.661L16.787 79.6422L17.0919 81.6717C17.0112 81.7981 16.7345 81.9039 16.2622 81.9889C15.7903 82.0741 15.2778 82.1762 14.725 82.2947C14.1725 82.4134 13.6228 82.5778 13.0768 82.7882C12.5306 82.9986 12.1043 83.3406 11.7974 83.8147C11.491 84.2886 11.3907 84.8814 11.4974 85.5928L12.1418 89.8819L18.1883 88.9739L18.4712 90.8569L3.51118 93.1037L2.60003 87.036C2.37591 85.5436 2.57652 84.2902 3.20145 83.2764C3.82678 82.2626 4.79494 81.6572 6.10574 81.4603ZM4.33985 87.2241L4.9023 90.9692L10.4677 90.1334L9.90531 86.3881C9.84889 86.0116 9.78639 85.6893 9.71743 85.4215C9.64867 85.1537 9.53642 84.8569 9.38028 84.5308C9.22454 84.2048 9.03667 83.9513 8.81686 83.7702C8.59706 83.5892 8.29791 83.449 7.91923 83.3489C7.54054 83.2489 7.09995 83.2364 6.59785 83.3118C6.09575 83.3873 5.67827 83.5285 5.34563 83.7354C5.01298 83.9425 4.7683 84.1644 4.61138 84.4018C4.45446 84.6393 4.34945 84.9371 4.29617 85.2944C4.24288 85.6519 4.2229 85.9685 4.23563 86.2447C4.24856 86.521 4.28324 86.8473 4.33985 87.2241ZM8.94733 104.234L21.3248 99.0083L22.0653 100.763L9.68805 105.988L11.6465 110.627L10.0871 111.285L5.42948 100.253L6.98888 99.5946L8.94733 104.234ZM23.8104 117.004C24.3652 116.546 24.9784 116.341 25.65 116.391C26.3215 116.44 26.8998 116.758 27.3847 117.345C27.8696 117.933 28.0725 118.561 27.9936 119.23C27.9146 119.898 27.5976 120.462 27.0428 120.92C26.488 121.378 25.8749 121.582 25.2033 121.533C24.5317 121.484 23.9534 121.165 23.4686 120.578C22.9837 119.99 22.7807 119.362 22.8597 118.694C22.9388 118.025 23.2556 117.462 23.8104 117.004ZM43.1413 126.169L39.4947 139.096L39.531 139.118L49.1738 129.768L50.9908 130.852L46.4566 145.762L44.7305 144.732L48.6113 132.611L48.5749 132.589L39.3157 141.502L37.4987 140.418L40.9436 128.036L40.9072 128.015L32.0841 137.188L30.3579 136.158L41.3243 125.085L43.1413 126.169ZM102.685 130.411L105.3 136.031L114.054 141.806L112.193 142.672L105.098 137.805L105.06 137.823L104.194 146.394L102.333 147.259L103.573 136.835L100.958 131.214L102.685 130.411ZM123.959 113.09L125.097 111.563L135.867 119.595L138.877 115.558L140.235 116.57L133.076 126.17L131.719 125.158L134.729 121.121L123.959 113.09ZM138.23 101.837C137.554 101.591 137.067 101.166 136.769 100.562C136.471 99.9576 136.453 99.2978 136.714 98.5822C136.975 97.8666 137.413 97.3735 138.03 97.1027C138.647 96.832 139.293 96.8198 139.969 97.0663C140.645 97.3125 141.131 97.7379 141.429 98.3418C141.727 98.9458 141.746 99.6056 141.485 100.321C141.224 101.037 140.785 101.53 140.169 101.801C139.552 102.071 138.906 102.083 138.23 101.837ZM136.271 80.522L149.296 77.2415L149.296 77.1992L136.385 73.4986L136.419 71.383L151.606 67.8838L151.573 69.8936L139.129 72.5696L139.129 72.6119L151.471 76.1978L151.436 78.3131L138.985 81.497L138.984 81.5393L151.334 84.6173L151.302 86.6271L136.237 82.6373L136.271 80.522Z" fill="white"/>
<g filter="url(#filter0_b)">
<ellipse cx="76.6143" cy="76.7129" rx="20" ry="20" fill="white" fill-opacity="0.15"/>
</g>
<ellipse cx="76.6144" cy="76.7131" rx="6.66666" ry="6.66667" fill="white"/>
</g>
<defs>
<filter id="filter0_b" x="46.6143" y="46.7129" width="60" height="60" filterUnits="userSpaceOnUse" color-interpolation-filters="sRGB">
<feFlood flood-opacity="0" result="BackgroundImageFix"/>
<feGaussianBlur in="BackgroundImage" stdDeviation="5"/>
<feComposite in2="SourceAlpha" operator="in" result="effect1_backgroundBlur"/>
<feBlend mode="normal" in="SourceGraphic" in2="effect1_backgroundBlur" result="shape"/>
</filter>
<clipPath id="clip0">
<rect width="150.206" height="150" fill="white" transform="translate(0.993652 0.824219)"/>
</clipPath>
</defs>
</svg>
