<svg width="61" height="61" viewBox="0 0 61 61" fill="none" xmlns="http://www.w3.org/2000/svg">
<g opacity="0.5">
<circle cx="30.7227" cy="30.6104" r="29.2" stroke="white" stroke-width="1.6"/>
<path d="M17.667 39.4558C17.292 39.4558 17.1046 39.2683 17.1046 38.8933V22.1464C17.1046 21.7543 17.292 21.5583 17.667 21.5583H24.3403C25.2266 21.5583 25.9936 21.6861 26.6414 21.9418C27.2891 22.1805 27.826 22.5128 28.2521 22.939C28.6783 23.3651 28.9851 23.8509 29.1726 24.3963C29.3771 24.9418 29.4794 25.5213 29.4794 26.135C29.4794 26.6804 29.4112 27.1662 29.2749 27.5923C29.1385 28.0185 28.9595 28.3935 28.7379 28.7173C28.5163 29.0412 28.2692 29.3139 27.9965 29.5355C27.7408 29.74 27.4851 29.902 27.2294 30.0213C27.5703 30.1917 27.8942 30.4133 28.201 30.686C28.5249 30.9588 28.8061 31.2826 29.0447 31.6576C29.2834 32.0326 29.4709 32.4502 29.6072 32.9104C29.7606 33.3707 29.8373 33.865 29.8373 34.3934C29.8373 35.0411 29.718 35.6718 29.4794 36.2854C29.2578 36.882 28.9254 37.4189 28.4822 37.8962C28.0391 38.3734 27.4851 38.757 26.8203 39.0467C26.1556 39.3194 25.3885 39.4558 24.5192 39.4558H17.667ZM18.7153 23.0924V29.3309H24.0079C25.2863 29.3309 26.2493 29.0582 26.897 28.5128C27.5448 27.9503 27.8686 27.1577 27.8686 26.135C27.8686 24.1066 26.5817 23.0924 24.0079 23.0924H18.7153ZM18.7153 30.865V37.9217H24.2636C25.5419 37.9217 26.522 37.5894 27.2039 36.9246C27.8857 36.2598 28.2266 35.4161 28.2266 34.3934C28.2266 33.3536 27.8857 32.5099 27.2039 31.8622C26.522 31.1974 25.5419 30.865 24.2636 30.865H18.7153ZM43.1153 33.7286C43.1153 33.0638 42.9959 32.4758 42.7573 31.9644C42.5187 31.436 42.1948 30.9929 41.7857 30.6349C41.3766 30.2769 40.8908 30.0042 40.3284 29.8167C39.7829 29.6292 39.1948 29.5355 38.5642 29.5355C37.9165 29.5355 37.3881 29.6207 36.979 29.7912C36.5869 29.9446 36.246 30.115 35.9563 30.3025C35.6835 30.49 35.4364 30.669 35.2148 30.8394C35.0102 30.9929 34.7716 31.0696 34.4989 31.0696H34.0387C33.8853 31.0696 33.7489 31.0184 33.6296 30.9161C33.5103 30.7968 33.4591 30.6605 33.4762 30.5071L34.2432 22.1464C34.2773 21.7543 34.4648 21.5583 34.8057 21.5583H43.1408C43.5158 21.5583 43.7033 21.7458 43.7033 22.1208V22.5299C43.7033 22.9049 43.5158 23.0924 43.1408 23.0924H35.8028L35.2659 28.8707C35.4364 28.7514 35.7858 28.5809 36.3142 28.3594C36.8596 28.1207 37.6096 28.0014 38.5642 28.0014C39.4164 28.0014 40.2176 28.1292 40.9676 28.3849C41.7175 28.6236 42.3653 28.99 42.9107 29.4843C43.4732 29.9616 43.9164 30.5582 44.2402 31.2741C44.5641 31.973 44.726 32.7911 44.726 33.7286C44.726 34.7343 44.5641 35.6121 44.2402 36.3621C43.9164 37.095 43.4732 37.7172 42.9107 38.2286C42.3653 38.7229 41.7175 39.0979 40.9676 39.3535C40.2176 39.5922 39.4164 39.7115 38.5642 39.7115C37.6267 39.7115 36.8 39.5751 36.0841 39.3024C35.3682 39.0297 34.7631 38.6717 34.2688 38.2286C33.7745 37.7854 33.3909 37.2825 33.1182 36.72C32.8455 36.1576 32.7006 35.578 32.6836 34.9814C32.6665 34.828 32.7091 34.7087 32.8114 34.6235C32.9137 34.5383 33.0415 34.4956 33.1949 34.4956H33.6807C33.8171 34.4956 33.9364 34.5297 34.0387 34.5979C34.158 34.6661 34.2517 34.828 34.3199 35.0837C34.4563 35.6462 34.6608 36.1235 34.9335 36.5155C35.2233 36.9075 35.5557 37.2314 35.9307 37.4871C36.3227 37.7257 36.7403 37.9047 37.1835 38.024C37.6437 38.1263 38.104 38.1774 38.5642 38.1774C39.1948 38.1774 39.7829 38.0837 40.3284 37.8962C40.8908 37.6916 41.3766 37.4019 41.7857 37.0269C42.1948 36.6519 42.5187 36.1916 42.7573 35.6462C42.9959 35.0837 43.1153 34.4445 43.1153 33.7286Z" fill="white"/>
</g>
</svg>
