<svg width="60" height="61" viewBox="0 0 60 61" fill="none" xmlns="http://www.w3.org/2000/svg">
<g opacity="0.5" clip-path="url(#clip0)">
<path d="M59.996 33.6725C59.9626 33.3282 59.7303 33.0353 59.4025 32.9247C59.2762 32.882 56.2654 31.8854 52.5435 32.3546C51.5535 32.4793 50.4598 32.7186 49.3347 33.1412C49.4462 32.7417 49.5434 32.294 49.6081 31.8025C49.863 29.8656 49.6547 26.8333 47.2158 23.3862C44.6577 19.7709 47.4381 16.6342 47.5554 16.505C47.7958 16.2444 47.8559 15.8649 47.7081 15.5426C47.5602 15.2204 47.2321 15.0183 46.879 15.0308C46.8045 15.0333 45.0298 15.1088 43.025 16.414C41.1331 17.6457 39.8734 19.4121 39.0347 21.2138C38.1306 17.6292 36.1374 14.7142 34.324 12.0622C32.4755 9.35865 30.8791 7.02404 30.8791 4.63623C30.8791 4.15084 30.4855 3.75732 30.0001 3.75732C29.5148 3.75732 29.1212 4.15084 29.1212 4.63623C29.1212 7.02404 27.5248 9.35865 25.6764 12.0619C23.8623 14.7149 21.8692 17.6317 20.9656 21.2181C20.1489 19.4582 18.9535 17.7785 17.2021 16.566C15.106 15.1148 13.2013 15.0332 13.1213 15.0305C12.7661 15.0172 12.4401 15.2201 12.2922 15.5424C12.1444 15.8647 12.2045 16.2441 12.4449 16.5047C12.4521 16.5126 13.1842 17.3289 13.5933 18.5756C14.1388 20.2381 13.8667 21.8566 12.7846 23.386C10.3457 26.8332 10.1375 29.8655 10.3923 31.8023C10.457 32.2939 10.5542 32.7414 10.6657 33.1409C9.54062 32.7183 8.44679 32.479 7.4569 32.3544C3.7348 31.8851 0.724248 32.8818 0.59792 32.9245C0.270147 33.0352 0.0377641 33.328 0.00436568 33.6722C-0.0290328 34.0167 0.142647 34.3485 0.443116 34.5202C2.38714 35.6312 4.26413 38.4342 6.43749 41.6799C8.82718 45.2487 11.5356 49.2938 15.2353 52.5076C19.5825 56.2839 24.411 58.12 29.9969 58.1207L30.0003 58.121L30.0035 58.1207C35.5895 58.12 40.4181 56.2839 44.7654 52.5076C48.465 49.2938 51.1736 45.2487 53.5633 41.6799C55.7366 38.4342 57.6135 35.6312 59.5576 34.5202C59.8578 34.3488 60.0294 34.0169 59.996 33.6725ZM25.0063 52.0748C26.5363 53.3766 27.7971 54.4503 28.6875 56.3238C17.9403 55.6968 12.3904 47.4114 7.89788 40.7021C6.14581 38.0855 4.57597 35.7411 2.90769 34.1922C4.01194 34.0135 5.54651 33.8853 7.23706 34.0985C11.6478 34.6544 14.9294 37.1923 16.9906 41.6418C18.4325 44.7546 20.0029 47.1651 21.933 49.2279C21.9624 49.2594 21.9936 49.2882 22.0263 49.3144C22.3618 49.583 22.8522 49.5715 23.1753 49.2693C23.5298 48.9377 23.5483 48.3815 23.2166 48.027C21.4182 46.1047 19.9466 43.841 18.5856 40.903C17.0909 37.6763 15.108 35.6252 13.0621 34.3322C13.0333 34.2904 10.2167 30.0589 14.2197 24.4013C15.99 21.8991 15.7646 19.5542 15.2637 18.0276C15.1806 17.7745 15.0875 17.5353 14.989 17.3119C16.9133 18.1716 19.7098 20.4345 20.6782 26.3834C21.7193 32.7787 23.4657 36.5486 25.1546 40.1943C26.9432 44.0555 28.5265 47.4752 28.9866 53.5035C28.1348 52.4293 27.1554 51.5953 26.1456 50.736C25.7759 50.4214 25.2211 50.466 24.9067 50.8359C24.6084 51.1863 24.6329 51.7027 24.951 52.0235C24.9685 52.0412 24.987 52.0583 25.0063 52.0748ZM38.2081 28.2031C37.7348 28.0961 37.264 28.3932 37.157 28.8666C36.1428 33.3542 34.7128 36.4146 33.33 39.3742C32.0465 42.1215 30.8052 44.7783 30.0074 48.3338C29.2246 44.7986 28.0077 42.1716 26.7495 39.4556C25.1104 35.9173 23.4155 32.2586 22.4131 26.1011C22.3615 25.7841 22.3005 25.4549 22.2299 25.1177C22.2536 20.1837 24.8418 16.3968 27.1274 13.0542C28.2249 11.4493 29.2876 9.89478 30.0001 8.31346C30.7126 9.89478 31.7754 11.4493 32.8729 13.0542C35.1691 16.4122 37.7716 20.2182 37.7716 25.1855C37.7716 25.6167 38.0863 25.9844 38.5118 26.0534C38.9747 26.1283 39.4145 25.8272 39.5121 25.3689C40.6187 20.1734 43.202 18.1218 45.0112 17.3125C44.913 17.5358 44.8198 17.7747 44.7367 18.0276C44.2359 19.5542 44.0103 21.8992 45.7807 24.4014C49.7475 30.0078 47.0587 34.1527 46.938 34.3326C44.8921 35.6254 42.9093 37.6767 41.4147 40.9031C38.8143 46.5167 36.2132 48.7297 33.9183 50.682C32.8528 51.5885 31.8652 52.429 31.0175 53.4937C31.4877 47.472 33.1006 44.0178 34.9225 40.1184C36.3448 37.0743 37.8155 33.9268 38.8715 29.2542C38.8793 29.2195 38.885 29.1849 38.8886 29.1504C38.9341 28.7138 38.6469 28.3023 38.2081 28.2031ZM52.1023 40.7022C47.6097 47.4118 42.0606 55.699 31.3126 56.3254C32.2104 54.4428 33.4966 53.3487 35.0574 52.0209C37.3696 50.0538 40.2471 47.6056 43.0097 41.6419C45.0607 37.2145 48.3212 34.6791 52.7007 34.1065C53.3439 34.0224 53.9664 33.9885 54.5525 33.9885C55.5218 33.9885 56.3917 34.0815 57.0904 34.1943C55.4228 35.7432 53.8537 38.0866 52.1023 40.7022Z" fill="white"/>
<path d="M37.157 28.8666C37.264 28.3932 37.7348 28.0961 38.2081 28.2031C38.6469 28.3023 38.9341 28.7138 38.8886 29.1504L39.5121 25.3689C39.4145 25.8272 38.9747 26.1283 38.5118 26.0534C38.0863 25.9844 37.7716 25.6167 37.7716 25.1855L37.157 28.8666Z" fill="white"/>
<path d="M23.1753 49.2693C22.8522 49.5715 22.3618 49.583 22.0263 49.3144L24.951 52.0235C24.6329 51.7027 24.6084 51.1863 24.9067 50.8359C25.2211 50.466 25.7759 50.4214 26.1456 50.736L23.2166 48.027C23.5483 48.3815 23.5298 48.9377 23.1753 49.2693Z" fill="white"/>
</g>
<defs>
<clipPath id="clip0">
<rect width="60" height="60" fill="white" transform="translate(0 0.939209)"/>
</clipPath>
</defs>
</svg>
