<svg width="151" height="38" viewBox="0 0 151 38" fill="none" xmlns="http://www.w3.org/2000/svg">
<g clip-path="url(#clip0)">
<path d="M39.6021 13.2627H54.8282V16.1035H48.8413V32.0729H45.5492V16.1035H39.5889V13.2627H39.6021ZM54.1777 18.4531H56.992V21.0815H57.0451C57.138 20.7098 57.3106 20.3514 57.5628 20.0062C57.815 19.6611 58.1203 19.3292 58.4787 19.0505C58.8371 18.7584 59.2354 18.5327 59.6735 18.3469C60.1115 18.1743 60.5629 18.0814 61.0142 18.0814C61.3593 18.0814 61.6116 18.0947 61.7443 18.108C61.8771 18.1212 62.0098 18.1478 62.1558 18.1611V21.0549C61.9434 21.0151 61.731 20.9886 61.5054 20.962C61.2797 20.9355 61.0673 20.9222 60.8549 20.9222C60.3505 20.9222 59.8726 21.0284 59.4212 21.2275C58.9699 21.4266 58.5849 21.7319 58.2531 22.1169C57.9212 22.5151 57.6557 22.993 57.4566 23.5771C57.2575 24.1612 57.1645 24.8249 57.1645 25.5816V32.0596H54.1645V18.4531H54.1777ZM75.9482 32.0729H73.0012V30.1746H72.9481C72.5764 30.8649 72.0322 31.4092 71.3021 31.8207C70.572 32.2322 69.8286 32.4446 69.0719 32.4446C67.2798 32.4446 65.9789 32.0065 65.1824 31.1171C64.386 30.2277 63.9877 28.887 63.9877 27.0949V18.4531H66.9878V26.8029C66.9878 27.9976 67.2135 28.8472 67.6781 29.3383C68.1294 29.8295 68.7799 30.0817 69.6029 30.0817C70.2401 30.0817 70.7578 29.9888 71.1826 29.7897C71.6074 29.5906 71.9525 29.3383 72.2048 29.0065C72.4702 28.6879 72.6561 28.2896 72.7756 27.8383C72.895 27.387 72.9481 26.8958 72.9481 26.3648V18.4664H75.9482V32.0729ZM81.059 27.7055C81.1519 28.5817 81.4838 29.1923 82.0546 29.5507C82.6386 29.8959 83.3289 30.0817 84.1387 30.0817C84.4175 30.0817 84.736 30.0552 85.0945 30.0153C85.4529 29.9755 85.798 29.8826 86.1033 29.7631C86.4219 29.6437 86.6742 29.4578 86.8866 29.2189C87.0857 28.9799 87.1786 28.6746 87.1653 28.2896C87.152 27.9047 87.006 27.5861 86.7405 27.3471C86.475 27.0949 86.1432 26.9091 85.7317 26.7498C85.3201 26.6037 84.8555 26.471 84.3245 26.3648C83.7935 26.2586 83.2626 26.1391 82.7183 26.0197C82.1608 25.9002 81.6165 25.7409 81.0988 25.5683C80.5811 25.3958 80.1165 25.1568 79.7049 24.8515C79.2934 24.5594 78.9616 24.1745 78.7226 23.7099C78.4704 23.2453 78.3509 22.6744 78.3509 21.9842C78.3509 21.2408 78.5368 20.6301 78.8952 20.1257C79.2536 19.6213 79.7182 19.223 80.2625 18.9177C80.82 18.6124 81.4307 18.4 82.1077 18.2673C82.7847 18.1478 83.4351 18.0814 84.0458 18.0814C84.7493 18.0814 85.4263 18.1611 86.0635 18.3071C86.7007 18.4531 87.2848 18.692 87.8025 19.0372C88.3202 19.369 88.745 19.8071 89.0901 20.3381C89.4353 20.8691 89.6477 21.5195 89.7406 22.2762H86.6078C86.4618 21.5594 86.1432 21.0682 85.6255 20.8293C85.1077 20.577 84.5104 20.4576 83.8466 20.4576C83.6343 20.4576 83.382 20.4708 83.09 20.5107C82.7979 20.5505 82.5324 20.6169 82.267 20.7098C82.0147 20.8027 81.8023 20.9487 81.6165 21.1346C81.4439 21.3204 81.351 21.5594 81.351 21.8647C81.351 22.2364 81.4837 22.5284 81.736 22.7541C81.9882 22.9798 82.3201 23.1656 82.7316 23.3249C83.1431 23.4709 83.6077 23.6037 84.1387 23.7099C84.6697 23.8161 85.2139 23.9355 85.7715 24.055C86.3157 24.1745 86.8467 24.3338 87.3777 24.5063C87.9087 24.6789 88.3733 24.9179 88.7848 25.2232C89.1963 25.5285 89.5282 25.9002 89.7804 26.3515C90.0326 26.8029 90.1654 27.3737 90.1654 28.0374C90.1654 28.8472 89.9795 29.5242 89.6079 30.095C89.2362 30.6525 88.7583 31.1171 88.1742 31.4623C87.5901 31.8074 86.9264 32.0729 86.2095 32.2322C85.4927 32.3915 84.7759 32.4712 84.0723 32.4712C83.2095 32.4712 82.413 32.3782 81.6829 32.1791C80.9528 31.98 80.3156 31.688 79.7846 31.303C79.2536 30.9047 78.8288 30.4136 78.5235 29.8295C78.2182 29.2454 78.0589 28.5419 78.0323 27.7321H81.059V27.7055ZM90.9619 18.4531H93.2318V14.3645H96.2319V18.4531H98.94V20.6965H96.2319V27.971C96.2319 28.2896 96.2452 28.5551 96.2717 28.7941C96.2983 29.0197 96.3647 29.2189 96.4576 29.3782C96.5505 29.5375 96.6965 29.6569 96.8957 29.7366C97.0948 29.8162 97.347 29.856 97.6921 29.856C97.9045 29.856 98.1169 29.856 98.3293 29.8428C98.5417 29.8295 98.7541 29.8029 98.9665 29.7498V32.0729C98.6346 32.1127 98.3028 32.1393 97.9974 32.1791C97.6789 32.2189 97.3603 32.2322 97.0284 32.2322C96.2319 32.2322 95.5947 32.1526 95.1169 32.0065C94.639 31.8605 94.254 31.6349 93.9885 31.3428C93.7097 31.0508 93.5372 30.6924 93.431 30.2543C93.338 29.8162 93.2717 29.3118 93.2584 28.7542V20.7231H90.9884V18.4531H90.9619ZM101.064 18.4531H103.905V20.2983H103.958C104.383 19.5018 104.967 18.9443 105.723 18.5991C106.48 18.254 107.29 18.0814 108.179 18.0814C109.254 18.0814 110.184 18.2672 110.98 18.6522C111.777 19.0239 112.44 19.5416 112.971 20.2054C113.502 20.8691 113.887 21.639 114.153 22.5151C114.418 23.3913 114.551 24.3338 114.551 25.3294C114.551 26.2453 114.432 27.1347 114.193 27.9843C113.954 28.8472 113.595 29.6038 113.117 30.2676C112.639 30.9313 112.029 31.449 111.285 31.8472C110.542 32.2455 109.679 32.4446 108.67 32.4446C108.232 32.4446 107.794 32.4048 107.356 32.3251C106.918 32.2455 106.493 32.1127 106.095 31.9402C105.697 31.7676 105.312 31.5419 104.98 31.2632C104.635 30.9844 104.356 30.6658 104.117 30.3074H104.064V37.104H101.064V18.4531ZM111.551 25.2763C111.551 24.6656 111.471 24.0683 111.312 23.4842C111.153 22.9001 110.914 22.3957 110.595 21.9443C110.277 21.493 109.878 21.1346 109.414 20.8691C108.936 20.6036 108.392 20.4576 107.781 20.4576C106.52 20.4576 105.564 20.8956 104.927 21.7718C104.29 22.6479 103.971 23.8161 103.971 25.2763C103.971 25.9666 104.051 26.6037 104.223 27.1878C104.396 27.7719 104.635 28.2764 104.98 28.7011C105.312 29.1259 105.71 29.4578 106.175 29.6967C106.639 29.949 107.184 30.0684 107.794 30.0684C108.484 30.0684 109.055 29.9224 109.533 29.6437C110.011 29.3649 110.396 28.9932 110.701 28.5551C111.007 28.1038 111.232 27.5993 111.365 27.0285C111.485 26.4577 111.551 25.8736 111.551 25.2763ZM116.847 13.2627H119.848V16.1035H116.847V13.2627ZM116.847 18.4531H119.848V32.0729H116.847V18.4531ZM122.529 13.2627H125.529V32.0729H122.529V13.2627ZM134.728 32.4446C133.64 32.4446 132.671 32.2588 131.821 31.9003C130.972 31.5419 130.255 31.0375 129.658 30.4136C129.073 29.7764 128.622 29.0197 128.317 28.1436C128.012 27.2675 127.852 26.2984 127.852 25.2497C127.852 24.2143 128.012 23.2585 128.317 22.3824C128.622 21.5063 129.073 20.7496 129.658 20.1124C130.242 19.4752 130.972 18.9841 131.821 18.6257C132.671 18.2673 133.64 18.0814 134.728 18.0814C135.817 18.0814 136.786 18.2673 137.636 18.6257C138.485 18.9841 139.202 19.4885 139.799 20.1124C140.384 20.7496 140.835 21.5063 141.14 22.3824C141.445 23.2585 141.605 24.2143 141.605 25.2497C141.605 26.2984 141.445 27.2675 141.14 28.1436C140.835 29.0197 140.384 29.7764 139.799 30.4136C139.215 31.0508 138.485 31.5419 137.636 31.9003C136.786 32.2588 135.817 32.4446 134.728 32.4446ZM134.728 30.0684C135.392 30.0684 135.976 29.9224 136.467 29.6437C136.959 29.3649 137.357 28.9932 137.675 28.5419C137.994 28.0905 138.22 27.5728 138.379 27.002C138.525 26.4312 138.605 25.8471 138.605 25.2497C138.605 24.6656 138.525 24.0948 138.379 23.5107C138.233 22.9267 137.994 22.4222 137.675 21.9709C137.357 21.5195 136.959 21.1611 136.467 20.8824C135.976 20.6036 135.392 20.4576 134.728 20.4576C134.065 20.4576 133.481 20.6036 132.99 20.8824C132.498 21.1611 132.1 21.5328 131.782 21.9709C131.463 22.4222 131.237 22.9267 131.078 23.5107C130.932 24.0948 130.852 24.6656 130.852 25.2497C130.852 25.8471 130.932 26.4312 131.078 27.002C131.224 27.5728 131.463 28.0905 131.782 28.5419C132.1 28.9932 132.498 29.3649 132.99 29.6437C133.481 29.9357 134.065 30.0684 134.728 30.0684ZM142.481 18.4531H144.751V14.3645H147.751V18.4531H150.459V20.6965H147.751V27.971C147.751 28.2896 147.764 28.5551 147.791 28.7941C147.817 29.0197 147.884 29.2189 147.977 29.3782C148.07 29.5375 148.216 29.6569 148.415 29.7366C148.614 29.8162 148.866 29.856 149.211 29.856C149.424 29.856 149.636 29.856 149.848 29.8428C150.061 29.8295 150.273 29.8029 150.486 29.7498V32.0729C150.154 32.1127 149.822 32.1393 149.516 32.1791C149.198 32.2189 148.879 32.2322 148.547 32.2322C147.751 32.2322 147.114 32.1526 146.636 32.0065C146.158 31.8605 145.773 31.6349 145.508 31.3428C145.229 31.0508 145.056 30.6924 144.95 30.2543C144.857 29.8162 144.791 29.3118 144.777 28.7542V20.7231H142.507V18.4531H142.481Z" fill="white"/>
<path d="M36.0977 13.2627H22.3451L18.0972 0.173828L13.8361 13.2627L0.0834961 13.2494L11.221 21.3469L6.95978 34.4225L18.0972 26.3382L29.2214 34.4225L24.9735 21.3469L36.0977 13.2627Z" fill="#00B67A"/>
<path d="M25.929 24.3069L24.9732 21.3467L18.0969 26.338L25.929 24.3069Z" fill="#005128"/>
</g>
<defs>
<clipPath id="clip0">
<rect width="150.376" height="36.9302" fill="white" transform="translate(0.0834961 0.173828)"/>
</clipPath>
</defs>
</svg>
