<svg width="23" height="15" viewBox="0 0 23 15" fill="none" xmlns="http://www.w3.org/2000/svg">
<path d="M22.1064 0.614502H14.0891C12.8246 0.614502 11.5971 0.614502 10.4968 1.1727C9.39653 1.73162 8.42604 2.84874 7.67747 5.08334C7.51578 5.56338 7.42974 5.97746 7.41863 6.33633C7.40751 6.69699 7.47025 7.00352 7.60648 7.26953C7.77463 7.59434 8.04674 7.90087 8.3884 8.15792C8.73006 8.41497 9.1384 8.62542 9.57865 8.75914C9.5955 8.7638 9.8271 8.83013 10.1075 8.91044C10.386 8.99074 10.7133 9.08646 10.9202 9.14849C11.0403 9.18685 11.174 9.23453 11.2952 9.30623C11.4153 9.37865 11.5236 9.47509 11.592 9.6081C11.6365 9.69665 11.6605 9.79273 11.663 9.89706C11.6663 10.0014 11.6487 10.1136 11.6075 10.2315C11.5056 10.5356 11.3504 10.7306 11.0532 10.8511C10.7578 10.9704 10.3222 11.0088 9.66147 11.0135H1.41071L0.106445 14.5971H8.93728C9.76831 14.5971 11.2877 14.5971 12.7475 13.9769C14.2077 13.3567 15.6074 12.1162 16.2003 9.63534C16.4241 8.70393 16.3549 7.94353 15.9895 7.34733C15.6224 6.75005 14.9603 6.31805 13.9959 6.04163C13.9959 6.04163 13.7793 5.9789 13.5255 5.9054C13.2731 5.83298 12.9802 5.74945 12.8303 5.70643C12.5837 5.63652 12.394 5.49311 12.2811 5.31063C12.1703 5.12922 12.1363 4.90874 12.2001 4.68324C12.2671 4.44913 12.4263 4.26199 12.6579 4.13292C12.8902 4.00458 13.1953 3.93395 13.5513 3.93395H18.6855C18.7221 3.88125 18.7547 3.82496 18.7913 3.77226C19.7284 2.44577 20.8638 1.37275 22.1064 0.614502Z" fill="white"/>
</svg>
