<svg width="160" height="161" viewBox="0 0 160 161" fill="none" xmlns="http://www.w3.org/2000/svg">
<path d="M55.2883 69.4695H56.5889V73.2732H58.2331L59.73 67.2364V64.8069H55.2638V69.4695H55.2883ZM35.3865 74.6474C36.3681 74.6474 36.8343 75.4327 36.8343 81.5922H33.6196C33.7423 75.4327 34.2576 74.6474 35.3865 74.6474ZM41.3497 87.04H39.2638V87.7517C39.2638 90.7701 38.4049 92.218 36.638 92.218C34.6012 92.218 33.6196 90.9173 33.6196 84.0216V83.5063H41.6196C41.6196 75.4572 39.8527 72.2916 35.3865 72.2916C30.9202 72.2916 28.049 76.8805 28.049 83.948C28.049 90.9664 30.7975 94.7701 35.5092 94.7701C39.5828 94.7701 41.3497 92.4879 41.3497 87.629V87.04ZM96.9816 74.6474C97.9632 74.6474 98.4294 75.4327 98.4294 81.5922H95.411C95.5337 75.4327 95.8773 74.6474 96.9816 74.6474ZM102.945 87.04H100.859V87.7517C100.859 90.7701 100 92.218 98.2331 92.218C96.1963 92.218 95.411 90.9173 95.411 84.0216V83.5063H103.215C103.215 75.4572 101.448 72.2916 96.9816 72.2916C92.5153 72.2916 89.6441 76.8805 89.6441 83.948C89.6441 90.9664 92.3926 94.7701 97.1042 94.7701C101.178 94.7701 102.945 92.4879 102.945 87.629V87.04ZM131.902 94.7701C134.847 94.7701 136.098 92.9296 136.098 90.3038V87.04H134.135V90.3038C134.135 91.6781 133.939 92.1443 133.276 92.1443C132.687 92.1443 132.491 91.7517 132.491 90.5002V74.7701H136.098V72.7333H132.564V66.6474H130.528L127.509 73.0032H125.742V74.6965H127.313V89.2486C127.313 93.0523 127.975 94.7701 131.902 94.7701ZM116.712 78.1321C116.712 74.0584 114.871 72.3652 110.945 72.3652C107.018 72.3652 104.319 75.1873 104.319 78.5247V79.8253H108.834V76.7578C108.834 74.991 109.227 74.3284 110.209 74.3284C111.19 74.3284 111.583 74.9173 111.583 76.7578V80.3652C105.62 82.402 103.779 83.8989 103.779 88.9542C103.779 92.8805 105.35 94.7946 108.049 94.7946C110.331 94.7946 111.386 93.2241 111.975 92.2425V94.402H117.816V92.6351H116.712V78.1321ZM150.847 92.6106V77.0769C150.847 73.8621 149.399 72.3652 146.847 72.3652C143.779 72.3652 142.528 74.6474 142.528 74.6474V64.5615L136.049 65.2732V66.9664H137.546V92.5861H136.491V94.3529H143.705V92.5861H142.65V79.0155C142.65 76.6597 143.313 75.6781 144.491 75.6781C145.35 75.6781 145.669 76.1934 145.669 77.5186V92.5861H144.491V94.3529H152.294V92.5861H150.847V92.6106ZM111.583 82.1811V88.856C111.583 90.8192 111.19 91.6045 110.086 91.6045C109.227 91.6045 108.834 90.8928 108.834 88.537C108.834 84.537 109.178 83.5554 111.583 82.1811ZM88.638 92.6106V66.5983H90.1349V64.9051H81.1533V66.5983H82.9938V78.7946H77.227V66.5983H79.1165V64.9051H70.0122V66.5983H71.5828V92.6106H70.0122V94.3775H79.1165V92.6106H77.227V80.8069H82.9938V92.6106H81.1533V94.3775H90.1349V92.6106H88.638ZM124.687 92.6106V64.5615L117.939 65.2732V66.9664H119.583V92.5861H118.528V94.3529H126.258V92.5861H124.687V92.6106ZM69.7178 88.537C69.7178 81.5922 62.2576 81.1259 62.2576 76.537C62.2576 74.9664 63.0429 74.1811 64.2944 74.1811C66.184 74.1811 67.1656 76.0707 67.3128 80.0707H69.0061V73.5186C69.0061 73.5186 67.1165 72.3407 64.2208 72.3407C60.7607 72.3407 57.9386 74.3039 57.9386 78.3039C57.9386 84.856 65.2024 85.764 65.2024 90.2302C65.2024 91.9971 64.3435 92.856 62.9693 92.856C60.8834 92.856 59.8282 91.0155 59.7055 86.5002H58.0122V93.5676C58.0122 93.5676 60.0981 94.7456 63.1901 94.7456C66.9693 94.7701 69.7178 92.6106 69.7178 88.537ZM27.0674 92.6106V66.5983H28.4417V64.9051H20.7607L16.957 81.494L12.8834 64.9051H5.03064V66.5983H6.67481V92.6106H5.03064V94.3775H11.0674V92.6106H9.17788V74.3284L13.9632 94.3775H16.7116L21.4233 74.2057V92.6106H19.6564V94.3775H28.4417V92.6106H27.0674ZM56.0736 92.6106V77.0769C56.0736 73.8621 54.6257 72.3652 52.1472 72.3652C49.0797 72.3652 47.8282 74.6474 47.8282 74.6474V72.3652L41.276 73.0769V74.8437H42.773V92.6106H41.2024V94.3775H49.0061V92.6106H47.9509V79.04C47.9509 76.6842 48.6135 75.7026 49.7914 75.7026C50.6503 75.7026 50.9693 76.218 50.9693 77.5431V92.6106H49.7914V94.3775H57.1288V92.6106H56.0736Z" fill="white"/>
</svg>
