<svg width="141" height="141" viewBox="0 0 141 141" fill="none" xmlns="http://www.w3.org/2000/svg">
<path fill-rule="evenodd" clip-rule="evenodd" d="M87.8802 65.9941C87.8802 54.2526 83.8899 48.4392 75.9107 48.4392C67.8174 48.4392 63.8271 54.2533 63.8271 65.9941C63.8271 77.7348 67.8174 83.5496 75.9107 83.5496C83.8899 83.5496 87.8802 77.7348 87.8802 65.9941ZM72.1484 54.1385C72.6053 51.6306 73.8581 50.3763 75.9107 50.3763C77.8485 50.3763 79.1028 51.6306 79.5575 54.1385C79.901 55.5062 80.0143 59.4958 80.0143 65.9941C80.0143 72.6056 79.901 76.4805 79.5575 77.9629C79.1021 80.3575 77.8477 81.6111 75.9107 81.6111C73.8581 81.6111 72.6053 80.3568 72.1484 77.9629C71.8063 76.4805 71.693 72.6049 71.693 65.9941C71.693 59.4958 71.8063 55.5062 72.1484 54.1385ZM14.8094 48.4385C6.71543 48.4385 2.72583 54.2526 2.72583 65.9933C2.72583 77.7341 6.71616 83.5489 14.8094 83.5489C22.7893 83.5489 26.7789 77.7341 26.7789 65.9933C26.7789 54.2526 22.7886 48.4385 14.8094 48.4385ZM18.4569 54.1385C18.7997 55.5062 18.913 59.4958 18.913 65.9941C18.913 72.6056 18.7997 76.4805 18.4569 77.9629C18.0015 80.3575 16.7472 81.6111 14.8094 81.6111C12.7569 81.6111 11.504 80.3568 11.0479 77.9629C10.7058 76.4805 10.5917 72.6049 10.5917 65.9941C10.5917 59.4965 10.7058 55.5069 11.0479 54.1385C11.504 51.6306 12.7576 50.3763 14.8094 50.3763C16.7472 50.3763 18.0008 51.6306 18.4569 54.1385ZM55.0497 49.236H52.5418V74.8841C52.4277 76.8233 51.9716 78.419 50.832 79.4445C49.9205 80.4701 48.7802 80.9269 47.4126 80.9269C44.6766 80.9269 43.3089 78.8744 43.3089 74.8841V50.2622C43.3089 49.5788 42.9669 49.236 42.1686 49.236H35.5571V73.1751C35.5571 80.1287 38.9765 83.6622 45.7021 83.6622C51.8583 83.6622 54.9357 80.6989 55.0504 74.8841V49.236H55.0497ZM114.897 51.9727V49.2367H92.0972V51.9727H99.621V81.8392C99.621 82.5241 99.9631 82.8662 100.533 82.8662H107.259V51.9727H114.897ZM129.26 66.4502H136.1V63.8282H129.26V51.9727H138.38V49.2367H121.623V81.8392C121.623 82.5241 121.965 82.8662 122.535 82.8662H138.609V80.2435H129.261V66.4502H129.26ZM25.7527 92.3263L27.007 91.5289L26.893 91.3008L16.4051 85.3727C15.2648 84.6892 14.1252 84.804 12.8709 85.6007L9.45143 87.7666L17.0893 92.099C18.913 92.8965 21.0789 93.1245 23.4728 92.8965L25.7527 92.3263Z" fill="white"/>
</svg>
