<svg width="20" height="21" viewBox="0 0 20 21" fill="none" xmlns="http://www.w3.org/2000/svg">
<path d="M20 4.2041H0V17.5376H20V4.2041Z" fill="#F0F0F0"/>
<path d="M11.25 4.20361H8.75V9.62025H0V12.1203H8.75V17.5369H11.25V12.1203H20V9.62025H11.25V4.20361Z" fill="#D60A2E"/>
<path d="M15.3821 13.189L19.9999 15.7544V13.189H15.3821Z" fill="#41479B"/>
<path d="M12.1738 13.189L19.9999 17.5368V16.3073L14.3869 13.189H12.1738Z" fill="#41479B"/>
<path d="M17.9153 17.5367L12.1738 14.3467V17.5367H17.9153Z" fill="#41479B"/>
<path d="M12.1738 13.189L19.9999 17.5368V16.3073L14.3869 13.189H12.1738Z" fill="#F0F0F0"/>
<path d="M12.1738 13.189L19.9999 17.5368V16.3073L14.3869 13.189H12.1738Z" fill="#D60A2E"/>
<path d="M3.52895 13.189L0 15.1495V13.189H3.52895Z" fill="#41479B"/>
<path d="M7.8262 13.7417V17.5367H0.99585L7.8262 13.7417Z" fill="#41479B"/>
<path d="M5.61301 13.189L0 16.3073V17.5368L7.82609 13.189H5.61301Z" fill="#D60A2E"/>
<path d="M4.61777 8.55131L0 5.98584V8.55131H4.61777Z" fill="#41479B"/>
<path d="M7.82609 8.55143L0 4.20361V5.43307L5.61301 8.55143H7.82609Z" fill="#41479B"/>
<path d="M2.08472 4.20361L7.8262 7.39361V4.20361H2.08472Z" fill="#41479B"/>
<path d="M7.82609 8.55143L0 4.20361V5.43307L5.61301 8.55143H7.82609Z" fill="#F0F0F0"/>
<path d="M7.82609 8.55143L0 4.20361V5.43307L5.61301 8.55143H7.82609Z" fill="#D60A2E"/>
<path d="M16.4709 8.55137L19.9999 6.59082V8.55137H16.4709Z" fill="#41479B"/>
<path d="M12.1738 7.99857V4.20361H19.0042L12.1738 7.99857Z" fill="#41479B"/>
<path d="M14.3869 8.55143L19.9999 5.43307V4.20361L12.1738 8.55143H14.3869Z" fill="#D60A2E"/>
</svg>
