<svg width="61" height="61" viewBox="0 0 61 61" fill="none" xmlns="http://www.w3.org/2000/svg">
<g opacity="0.5" clip-path="url(#clip0)">
<path d="M38.2934 14.8532C37.8355 14.6926 37.3339 14.9338 37.1732 15.392L35.4066 20.4329L33.6786 15.4037C33.5208 14.9446 33.0208 14.7005 32.5618 14.8581C32.1027 15.0158 31.8584 15.5159 32.0163 15.9749L34.5674 23.3992C34.6891 23.7532 35.0216 23.9913 35.3959 23.9925H35.3985C35.7719 23.9925 36.1044 23.7567 36.228 23.4042L38.8322 15.9733C38.9927 15.5152 38.7515 15.0137 38.2934 14.8532Z" fill="white"/>
<path d="M22.4497 14.8037C21.9642 14.8037 21.5708 15.1972 21.5708 15.6826V20.6754C21.5708 22.5355 23.0774 23.9925 25.0009 23.9925H25.1503C27.0757 23.9925 28.5838 22.5354 28.5838 20.6754V15.6826C28.5838 15.1972 28.1904 14.8037 27.7049 14.8037C27.2194 14.8037 26.826 15.1972 26.826 15.6826V20.6754C26.826 21.5644 26.1056 22.2347 25.1503 22.2347H25.0009C24.0476 22.2347 23.3286 21.5644 23.3286 20.6754V15.6826C23.3286 15.1972 22.9352 14.8037 22.4497 14.8037Z" fill="white"/>
<path d="M54.2475 13.8125C53.789 13.1761 52.9869 12.9927 52.0624 12.8336C44.0828 11.466 39.2578 9.49289 31.7601 1.41527C31.4376 1.06805 30.9273 0.606445 30.2243 0.606445C29.5214 0.606445 29.0112 1.06805 28.6883 1.41563C21.1913 9.49254 16.3672 11.4657 8.38935 12.8337C7.46404 12.9927 6.6606 13.1762 6.20181 13.8131C5.80244 14.3675 5.82119 15.0254 5.84732 15.936C5.85892 16.343 5.87216 16.8043 5.85927 17.3739C5.85915 17.3805 5.85904 17.3871 5.85904 17.3938C5.85904 17.3938 5.85716 32.0723 5.85552 32.2257C5.8458 33.0998 5.83865 33.7314 6.19302 34.8485C8.81755 43.0649 19.8379 55.3416 27.0182 59.6283C28.1092 60.2825 29.1574 60.6026 30.2293 60.6066C31.2932 60.6027 32.3408 60.2824 33.4304 59.6285C40.6113 55.3414 51.6315 43.0648 54.2565 34.8468C54.612 33.7257 54.6056 33.0902 54.5965 32.2107C54.5949 32.0616 54.5933 31.902 54.5933 31.7276V17.3937C54.5933 17.3866 54.5932 17.3797 54.5931 17.3728C54.5795 16.8022 54.5923 16.3403 54.6035 15.9327C54.6285 15.0233 54.6465 14.3663 54.2475 13.8125ZM52.8463 15.8843C52.8351 16.2894 52.8212 16.793 52.8354 17.4039V31.7276C52.8354 31.9084 52.8372 32.074 52.8387 32.2288C52.847 33.0502 52.8512 33.4624 52.5813 34.3137C50.1099 42.0514 39.3094 54.0714 32.5276 58.1202C31.7152 58.6077 30.9613 58.8459 30.2292 58.8486C29.4886 58.8459 28.7336 58.6076 27.9212 58.1202C27.9208 58.1198 27.9202 58.1195 27.9196 58.1191C21.1396 54.0715 10.339 42.0516 7.86798 34.3154C7.59951 33.4689 7.60408 33.06 7.6131 32.2453C7.61486 32.0858 7.61673 17.4036 7.61673 17.4036C7.63021 16.7937 7.6158 16.2905 7.60431 15.8857C7.59224 15.4632 7.57865 14.9863 7.62904 14.8439C7.69162 14.7995 7.91228 14.6993 8.68677 14.5662C16.9007 13.1578 22.1815 11.0098 29.9763 2.61188C30.0966 2.4825 30.1778 2.41746 30.2244 2.3857C30.2709 2.41746 30.352 2.48238 30.472 2.61152C38.2676 11.01 43.5496 13.158 51.7648 14.5661C52.538 14.6992 52.7582 14.7993 52.8205 14.8436C52.871 14.9857 52.8579 15.4622 52.8463 15.8843Z" fill="white"/>
<path d="M34.7157 39.1985C34.7157 36.7228 32.7016 34.7087 30.2259 34.7087C27.7484 34.7087 25.7329 36.7228 25.7329 39.1985C25.7329 41.676 27.7484 43.6916 30.2259 43.6916C32.7017 43.6916 34.7157 41.676 34.7157 39.1985ZM30.226 41.9338C28.7178 41.9338 27.4908 40.7067 27.4908 39.1985C27.4908 37.6921 28.7178 36.4666 30.226 36.4666C31.7323 36.4666 32.958 37.6921 32.958 39.1985C32.9579 40.7067 31.7323 41.9338 30.226 41.9338Z" fill="white"/>
<path d="M40.5787 39.1985C40.5787 38.7131 40.1853 38.3196 39.6998 38.3196H37.627C37.1414 38.3196 36.748 38.7131 36.748 39.1985C36.748 39.6839 37.1414 40.0774 37.627 40.0774H39.6998C40.1853 40.0774 40.5787 39.6839 40.5787 39.1985Z" fill="white"/>
<path d="M19.8701 39.1985C19.8701 39.6839 20.2635 40.0774 20.749 40.0774H22.8218C23.3073 40.0774 23.7007 39.6839 23.7007 39.1985C23.7007 38.7131 23.3073 38.3196 22.8218 38.3196H20.749C20.2635 38.3196 19.8701 38.7131 19.8701 39.1985Z" fill="white"/>
<path d="M23.5224 46.7777C23.747 46.7777 23.9717 46.6921 24.1432 46.5209L25.6114 45.056C25.955 44.7131 25.9556 44.1567 25.6127 43.8131C25.2698 43.4694 24.7132 43.4689 24.3698 43.8117L22.9016 45.2766C22.5581 45.6195 22.5575 46.1759 22.9002 46.5195C23.072 46.6917 23.2973 46.7777 23.5224 46.7777Z" fill="white"/>
<path d="M36.3044 31.8768L34.8395 33.3418C34.4962 33.685 34.4962 34.2415 34.8395 34.5847C35.0111 34.7562 35.2361 34.8421 35.461 34.8421C35.6859 34.8421 35.9109 34.7563 36.0826 34.5847L37.5476 33.1197C37.8908 32.7765 37.8908 32.2199 37.5476 31.8768C37.2042 31.5336 36.6477 31.5336 36.3044 31.8768Z" fill="white"/>
<path d="M36.3043 46.5202C36.476 46.6918 36.701 46.7777 36.9259 46.7777C37.1508 46.7777 37.3758 46.6919 37.5474 46.5202C37.8907 46.177 37.8907 45.6204 37.5474 45.2773L36.0825 43.8124C35.7391 43.4691 35.1827 43.4691 34.8395 43.8124C34.4962 44.1556 34.4962 44.7121 34.8395 45.0553L36.3043 46.5202Z" fill="white"/>
<path d="M22.9002 31.8773C22.5575 32.2209 22.5581 32.7774 22.9016 33.1202L24.3698 34.5851C24.5414 34.7563 24.766 34.8419 24.9906 34.8419C25.2159 34.8419 25.4412 34.7559 25.6128 34.5837C25.9557 34.2401 25.9551 33.6836 25.6115 33.3408L24.1434 31.8759C23.7995 31.5331 23.2431 31.5336 22.9002 31.8773Z" fill="white"/>
<path d="M29.3472 46.603V48.6758C29.3472 49.1612 29.7406 49.5547 30.2261 49.5547C30.7116 49.5547 31.105 49.1612 31.105 48.6758V46.603C31.105 46.1176 30.7116 45.7241 30.2261 45.7241C29.7406 45.7241 29.3472 46.1176 29.3472 46.603Z" fill="white"/>
<path d="M31.105 31.7973V29.7212C31.105 29.2358 30.7116 28.8423 30.2261 28.8423C29.7406 28.8423 29.3472 29.2358 29.3472 29.7212V31.7973C29.3472 32.2827 29.7406 32.6762 30.2261 32.6762C30.7115 32.6762 31.105 32.2827 31.105 31.7973Z" fill="white"/>
</g>
<defs>
<clipPath id="clip0">
<rect width="60" height="60" fill="white" transform="translate(0.224609 0.606445)"/>
</clipPath>
</defs>
</svg>
