<svg width="20" height="21" viewBox="0 0 20 21" fill="none" xmlns="http://www.w3.org/2000/svg">
<g clip-path="url(#clip0)">
<path d="M14.1904 0.683594H5.80969C2.60621 0.683594 0 3.2898 0 6.49328V14.8739C0 18.0774 2.60621 20.6836 5.80969 20.6836H14.1903C17.3938 20.6836 20 18.0774 20 14.8739V6.49328C20 3.2898 17.3938 0.683594 14.1904 0.683594ZM18.4375 14.8739C18.4375 17.2158 16.5322 19.1211 14.1904 19.1211H5.80969C3.46777 19.1211 1.5625 17.2158 1.5625 14.8739V6.49328C1.5625 4.15137 3.46777 2.24609 5.80969 2.24609H14.1903C16.5322 2.24609 18.4375 4.15137 18.4375 6.49328V14.8739Z" fill="white"/>
<path d="M10 5.29297C7.02758 5.29297 4.60938 7.71117 4.60938 10.6836C4.60938 13.656 7.02758 16.0742 10 16.0742C12.9724 16.0742 15.3906 13.656 15.3906 10.6836C15.3906 7.71117 12.9724 5.29297 10 5.29297ZM10 14.5117C7.88918 14.5117 6.17188 12.7944 6.17188 10.6836C6.17188 8.57277 7.88918 6.85547 10 6.85547C12.1108 6.85547 13.8281 8.57277 13.8281 10.6836C13.8281 12.7944 12.1108 14.5117 10 14.5117Z" fill="white"/>
<path d="M15.4688 5.99609C15.9002 5.99609 16.25 5.64632 16.25 5.21484C16.25 4.78337 15.9002 4.43359 15.4688 4.43359C15.0373 4.43359 14.6875 4.78337 14.6875 5.21484C14.6875 5.64632 15.0373 5.99609 15.4688 5.99609Z" fill="white"/>
</g>
<defs>
<clipPath id="clip0">
<rect width="20" height="20" fill="white" transform="translate(0 0.683594)"/>
</clipPath>
</defs>
</svg>
