<svg width="41" height="41" viewBox="0 0 41 41" fill="none" xmlns="http://www.w3.org/2000/svg">
<g opacity="0.5" clip-path="url(#clip0)">
<path fill-rule="evenodd" clip-rule="evenodd" d="M36.434 3.83659L40.5143 7.91691C40.7458 8.14847 40.7458 8.52386 40.5142 8.7555L35.1144 14.1553L33.2849 15.9847V40.0129C33.2849 40.3405 33.0195 40.6059 32.6919 40.6059H8.2846C7.95703 40.6059 7.69163 40.3405 7.69163 40.0129V31.3541L1.041 27.2159C0.867012 27.1076 0.76123 26.9173 0.76123 26.7124V20.6059C0.76123 20.3994 0.868653 20.2077 1.0449 20.1C1.22115 19.9924 1.44092 19.9841 1.62451 20.0783L7.69163 23.186V1.19893C7.69163 0.871348 7.95703 0.605957 8.2846 0.605957H32.692C33.0196 0.605957 33.285 0.871348 33.285 1.19893V5.82644L35.6275 3.80674C35.8626 3.60424 36.2144 3.61713 36.434 3.83659ZM1.94717 26.383L7.69163 29.9575V27.1065C5.78093 26.8455 3.3303 24.7048 1.94717 23.3498V26.383ZM1.94717 21.6551C3.47319 23.2948 6.09327 25.5951 7.69163 25.9112V24.5185L1.94717 21.576V21.6551ZM32.2727 15.3198L34.1047 13.4879C34.1615 9.76043 35.4794 6.25269 35.9659 5.08081L33.0793 7.56964C32.9037 7.72105 32.656 7.75621 32.4452 7.65964C32.2343 7.56308 32.0992 7.35245 32.0992 7.12058V1.7919H29.5762V11.8762C29.5762 12.2038 29.3108 12.4692 28.9832 12.4692C28.6557 12.4692 28.3903 12.2038 28.3903 11.8762V1.7919H23.4043H22.2184H18.2326V8.81847C18.2326 8.86285 18.2275 8.90707 18.2177 8.95035C18.1918 9.06363 15.6974 20.3015 20.9373 22.3132C21.243 22.4306 21.3956 22.7736 21.2783 23.0793C21.1877 23.3151 20.9629 23.4598 20.7246 23.4598C20.6539 23.4598 20.5821 23.4471 20.5121 23.4203C14.4867 21.1069 16.809 9.83222 17.0466 8.75293V1.7919H14.0109V11.8762C14.0109 12.2038 13.7455 12.4692 13.4179 12.4692C13.0903 12.4692 12.8249 12.2038 12.8249 11.8762V1.7919H8.87765V39.4201H11.9213V29.3373C11.9213 29.0097 12.1867 28.7443 12.5143 28.7443C12.8419 28.7443 13.1073 29.0097 13.1073 29.3373V39.4201H16.0265H17.2124H20.1317V27.3098C20.1317 26.9823 20.397 26.7169 20.7246 26.7169C21.0522 26.7169 21.3176 26.9823 21.3176 27.3098V39.4202H24.3654V24.8131C24.3654 24.6503 24.4324 24.4945 24.5507 24.3826C24.5797 24.3551 27.4832 21.5696 27.8612 18.6586C27.9034 18.3336 28.2009 18.104 28.5256 18.1468C28.8504 18.189 29.0794 18.4865 29.0373 18.8112C28.6599 21.7175 26.2501 24.3507 25.5514 25.0606V39.4201H28.7599H29.9458H32.0991V15.7392C32.0991 15.5818 32.1615 15.4311 32.2727 15.3198ZM36.8903 5.97003C36.4261 7.17441 35.6087 9.59301 35.3615 12.2311L39.2564 8.33613L36.8903 5.97003Z" fill="white"/>
<path fill-rule="evenodd" clip-rule="evenodd" d="M26.0077 12.7481C25.5383 10.6635 24.7002 8.81783 23.8723 8.04619C23.5024 7.70151 23.1672 7.595 22.8978 7.59171H22.6022C22.3328 7.595 21.9976 7.70151 21.6278 8.04619C20.7999 8.81783 19.9617 10.6635 19.4924 12.7481C19.1769 14.1497 18.7777 16.8146 19.6486 18.9141C20.6068 21.2235 21.8884 21.6279 22.6674 21.6279H22.8326C23.6117 21.6279 24.8932 21.2235 25.8514 18.9141C26.7224 16.8146 26.3232 14.1497 26.0077 12.7481ZM23.7943 9.98049C23.3615 9.14245 23.0218 8.84869 22.8978 8.78838C22.8978 8.78838 22.8106 8.72378 22.7465 8.72488C22.685 8.72595 22.6022 8.78838 22.6022 8.78838C22.4782 8.84869 22.1385 9.14245 21.7057 9.98049C20.5113 12.2938 19.8039 16.1933 20.7442 18.4596C21.2579 19.6976 21.9357 20.4103 22.6211 20.441H22.8788C23.5643 20.4102 24.2422 19.6976 24.7558 18.4596C25.6962 16.1933 24.9888 12.2938 23.7943 9.98049Z" fill="white"/>
<path d="M16.7118 25.9133C15.012 24.2136 13.0839 19.425 13.0646 19.3769C12.9429 19.0728 12.5974 18.9251 12.2938 19.0467C11.9897 19.1682 11.8418 19.5133 11.9635 19.8174C12.0459 20.0233 14.0014 24.8803 15.8731 26.7518C17.438 28.3169 16.9852 31.2173 16.9806 31.2455C16.9268 31.5686 17.1451 31.8741 17.468 31.928C17.5011 31.9335 17.5339 31.9362 17.5662 31.9362C17.8509 31.9362 18.102 31.7306 18.1505 31.4406C18.1743 31.2974 18.7116 27.9132 16.7118 25.9133Z" fill="white"/>
</g>
<defs>
<clipPath id="clip0">
<rect width="40" height="40" fill="white" transform="translate(0.724609 0.605957)"/>
</clipPath>
</defs>
</svg>
