<svg width="41" height="41" viewBox="0 0 41 41" fill="none" xmlns="http://www.w3.org/2000/svg">
<g opacity="0.5" clip-path="url(#clip0)">
<path d="M11.2715 14.8247C8.43055 14.8247 5.76742 16.1817 3.77266 18.646C1.80703 21.0739 0.724609 24.2949 0.724609 27.7153C0.724609 31.1358 1.80703 34.3567 3.77266 36.7848C5.76742 39.2489 8.43055 40.606 11.2715 40.606C14.1124 40.606 16.7755 39.2489 18.7703 36.7848C20.7359 34.3567 21.8184 31.1358 21.8184 27.7153C21.8184 24.2949 20.7359 21.0739 18.7703 18.646C16.7755 16.1817 14.1124 14.8247 11.2715 14.8247ZM11.2715 39.4341C6.10211 39.4341 1.89648 34.1771 1.89648 27.7153C1.89648 21.2536 6.10211 15.9966 11.2715 15.9966C16.4409 15.9966 20.6465 21.2536 20.6465 27.7153C20.6465 34.1771 16.4409 39.4341 11.2715 39.4341Z" fill="white"/>
<path d="M37.6766 4.42713C35.6818 1.96299 33.0187 0.605957 30.1777 0.605957C27.3368 0.605957 24.6737 1.96299 22.6789 4.42713C20.7133 6.85518 19.6309 10.0761 19.6309 13.4966C19.6309 16.9171 20.7133 20.138 22.6789 22.566C24.6737 25.0302 27.3368 26.3872 30.1777 26.3872C33.0187 26.3872 35.6818 25.0302 37.6766 22.566C39.6422 20.138 40.7246 16.9171 40.7246 13.4966C40.7246 10.0761 39.6422 6.85518 37.6766 4.42713ZM30.1777 25.2153C25.0084 25.2153 20.8027 19.9583 20.8027 13.4966C20.8027 7.03486 25.0084 1.77783 30.1777 1.77783C35.3471 1.77783 39.5527 7.03486 39.5527 13.4966C39.5527 19.9583 35.3471 25.2153 30.1777 25.2153Z" fill="white"/>
<path d="M29.6441 13.4963L29.6483 11.1525C29.6487 10.9305 29.5237 10.7274 29.3252 10.6277C29.1268 10.5281 28.8891 10.5493 28.7114 10.6823L26.8333 12.0876C26.3847 12.4256 26.1284 12.9383 26.1284 13.4952C26.1284 14.4644 26.9169 15.253 27.8862 15.253C28.8555 15.253 29.6441 14.4645 29.6441 13.4963ZM27.3003 13.4952C27.3003 13.3098 27.3864 13.1385 27.5365 13.0251L28.4743 12.3233L28.4722 13.4952C28.4722 13.8183 28.2094 14.0811 27.8862 14.0811C27.5631 14.0811 27.3003 13.8183 27.3003 13.4952Z" fill="white"/>
<path d="M32.5823 15.253C33.5516 15.253 34.3401 14.4644 34.3401 13.4952C34.3401 12.9383 34.0838 12.4258 33.6369 12.0889C33.6352 12.0876 31.7573 10.6823 31.7573 10.6823C31.5795 10.5493 31.3419 10.5281 31.1434 10.6278C30.945 10.7273 30.8198 10.9305 30.8203 11.1525L30.8246 13.4952C30.8245 14.4645 31.613 15.253 32.5823 15.253ZM32.9319 13.025C33.0821 13.1384 33.1682 13.3098 33.1682 13.4953C33.1682 13.8184 32.9054 14.0812 32.5823 14.0812C32.2591 14.0812 31.9963 13.8184 31.9963 13.4942L31.9942 12.3234L32.9319 13.025Z" fill="white"/>
<path d="M35.8554 5.90188C35.1245 4.99899 34.2863 4.28594 33.3639 3.78258C32.8142 3.48258 32.1642 3.49438 31.6254 3.81399C31.0861 4.13407 30.7641 4.69946 30.7641 5.32641V7.60407C30.7641 7.93055 30.5143 8.20789 30.2072 8.22243C30.0444 8.22899 29.8908 8.17274 29.7739 8.06125C29.6568 7.94954 29.5922 7.79899 29.5922 7.63719V5.32641C29.5922 4.69954 29.2702 4.13407 28.7309 3.81407C28.1921 3.49422 27.5422 3.48258 26.9924 3.78266C26.07 4.28602 25.2318 4.99907 24.5009 5.90196C23.1032 7.62852 22.2488 9.83141 22.03 12.2724C22.0268 12.3083 22.0269 12.3436 22.03 12.3782C22.0551 12.6549 22.2749 12.8827 22.5614 12.9084C22.8833 12.9377 23.1684 12.6994 23.1973 12.3771C23.3952 10.1685 24.161 8.18446 25.4118 6.6393C26.0459 5.8561 26.7665 5.2411 27.5539 4.81133C27.8177 4.66735 28.0468 4.77079 28.1329 4.82204C28.2193 4.87329 28.4204 5.02516 28.4204 5.32657V7.63719C28.4204 8.1154 28.619 8.57907 28.9651 8.90922C29.3161 9.24407 29.7772 9.41493 30.2624 9.39297C31.2009 9.34875 31.936 8.56297 31.936 7.60407V5.32641C31.936 5.025 32.137 4.87313 32.2235 4.82188C32.3097 4.77071 32.5387 4.66735 32.8026 4.81118C33.5899 5.24094 34.3105 5.85594 34.9446 6.63914C36.4051 8.44344 37.2094 10.8788 37.2094 13.4966C37.2094 16.1145 36.4051 18.5498 34.9446 20.3539C33.6303 21.9775 31.9376 22.8716 30.1782 22.8716C28.4188 22.8716 26.7261 21.9775 25.4118 20.3539C24.161 18.8088 23.3952 16.8248 23.1973 14.6161C23.1684 14.2938 22.8829 14.0559 22.5614 14.0848C22.2748 14.1105 22.055 14.3384 22.03 14.6152C22.0269 14.6498 22.0268 14.685 22.03 14.7208C22.2489 17.1619 23.1032 19.3648 24.5009 21.0913C26.0421 22.995 28.0583 24.0434 30.1782 24.0434C32.298 24.0434 34.3143 22.995 35.8554 21.0913C37.4843 19.0791 38.3813 16.382 38.3813 13.4966C38.3813 10.6112 37.4843 7.91407 35.8554 5.90188Z" fill="white"/>
<path d="M22.5614 12.9084C22.2749 12.8827 22.0551 12.6549 22.03 12.3782C22.03 12.3782 21.9673 13.0598 21.9673 13.4966C21.9673 13.9334 22.03 14.6152 22.03 14.6152C22.055 14.3384 22.2748 14.1105 22.5614 14.0848C22.8829 14.0559 23.1684 14.2938 23.1973 14.6161C23.1973 14.6161 23.1195 13.9338 23.1195 13.4966C23.1195 13.0594 23.1973 12.3771 23.1973 12.3771C23.1684 12.6994 22.8833 12.9377 22.5614 12.9084Z" fill="white"/>
</g>
<defs>
<clipPath id="clip0">
<rect width="40" height="40" fill="white" transform="translate(0.724609 0.605957)"/>
</clipPath>
</defs>
</svg>
