<svg width="214" height="214" viewBox="0 0 214 214" fill="none" xmlns="http://www.w3.org/2000/svg">
<g filter="url(#filter0_b)">
<circle cx="106.897" cy="106.896" r="87.2806" transform="rotate(-15 106.897 106.896)" fill="white" fill-opacity="0.05"/>
<circle cx="106.897" cy="106.896" r="86.7806" transform="rotate(-15 106.897 106.896)" stroke="white" stroke-opacity="0.5"/>
</g>
<path d="M121.235 102.266C121.978 102.465 122.227 103.394 121.683 103.939L100.091 125.531C99.5465 126.075 98.6171 125.826 98.4178 125.083L90.5146 95.5871C90.3153 94.8435 90.9957 94.1631 91.7393 94.3624L121.235 102.266Z" fill="white"/>
<path fill-rule="evenodd" clip-rule="evenodd" d="M168.914 80.0733C166.828 81.265 164.761 81.622 162.715 81.1446C160.668 80.667 159.075 79.43 157.934 77.4333C156.794 75.4368 156.537 73.4354 157.166 71.4301C157.794 69.4246 159.152 67.8261 161.238 66.6345C163.324 65.4428 165.387 65.0876 167.428 65.5687C169.468 66.0497 171.058 67.2887 172.199 69.2854C173.339 71.2821 173.598 73.2811 172.977 75.283C172.354 77.2847 171 78.8818 168.914 80.0733ZM170.663 70.1627C170.034 69.0617 169.233 68.2762 168.26 67.8051C167.286 67.3341 166.293 67.163 165.28 67.2918C164.267 67.4205 163.249 67.7774 162.225 68.3622C161.201 68.9473 160.373 69.6448 159.741 70.4556C159.109 71.2662 158.749 72.2105 158.66 73.2884C158.571 74.3659 158.841 75.4552 159.47 76.556C160.099 77.6566 160.9 78.4424 161.873 78.9136C162.847 79.3844 163.843 79.5535 164.863 79.4213C165.882 79.2888 166.903 78.9304 167.927 78.3455C168.951 77.7607 169.776 77.0645 170.401 76.2575C171.027 75.4505 171.384 74.5081 171.473 73.4303C171.561 72.3524 171.291 71.2633 170.663 70.1627ZM157.53 53.7976L153.845 57.3661L158.752 62.4326L157.481 63.6631L152.574 58.5966L147.444 63.5647L146.06 62.1353L157.416 51.1376L164.876 58.8406L163.605 60.0712L157.53 53.7976ZM148.538 53.7813C147.191 55.9117 145.624 57.2233 143.839 57.7164C142.054 58.2091 140.233 57.869 138.377 56.6952L133.537 53.6349L141.985 40.2734L146.825 43.3337C148.681 44.5075 149.768 46.0096 150.084 47.84C150.4 49.6707 149.885 51.6511 148.538 53.7813ZM145.88 44.8288L142.722 42.8318L136.164 53.2032L139.322 55.2003C142.162 56.9963 144.674 56.1689 146.856 52.7179C149.046 49.2546 148.72 46.6248 145.88 44.8288ZM132.272 51.1349L131.697 52.8075L121.975 49.4641L127.116 34.515L128.998 35.162L124.432 48.4385L132.272 51.1349ZM118.276 48.6171L117.3 44.5367L110.373 43.8156L108.578 47.6077L106.533 47.395L113.975 32.2757L116.174 32.5047L120.321 48.8301L118.276 48.6171ZM114.863 34.2132L111.216 42.1251L116.846 42.7109L114.906 34.2178L114.863 34.2132ZM101.402 39.4263L101.408 39.47C102.319 39.4893 103.106 39.7902 103.77 40.3731C104.433 40.9562 104.844 41.8021 105.002 42.9111C105.206 44.3413 104.891 45.5251 104.056 46.4626C103.222 47.4005 101.988 47.9856 100.353 48.2183L93.6117 49.1784L91.3829 33.528L97.6868 32.6302C99.2772 32.4037 100.579 32.5794 101.592 33.157C102.605 33.7352 103.198 34.6295 103.37 35.8406C103.599 37.4461 102.942 38.6412 101.402 39.4263ZM95.3324 47.1467L100.301 46.4392C102.388 46.142 103.298 45.0597 103.032 43.1915C102.912 42.3454 102.571 41.7018 102.009 41.2603C101.447 40.8193 100.758 40.6569 99.9408 40.7733L94.5344 41.5432L95.3324 47.1467ZM100.524 34.6716C100.024 34.3036 99.3372 34.1816 98.4616 34.3064L93.6022 34.9986L94.2849 39.7922L98.9254 39.1312C99.976 38.9817 100.684 38.6724 101.049 38.2036C101.414 37.7349 101.541 37.1138 101.431 36.34C101.325 35.5959 101.023 35.0399 100.524 34.6716ZM128.416 177.937L126.467 178.338L125.111 171.755L116.838 173.46L118.195 180.043L116.246 180.445L113.055 164.962L115.004 164.56L116.481 171.728L124.753 170.023L123.276 162.855L125.225 162.454L128.416 177.937ZM75.3089 49.6492L80.5964 46.9749L81.3947 48.5533L76.107 51.2275L75.3089 49.6492ZM109.248 165.087L111.302 165.192L104.667 180.683L102.459 180.57L97.4571 164.486L99.5108 164.591L100.7 168.614L107.656 168.969L109.248 165.087ZM101.25 170.413L103.634 178.792L103.679 178.795L106.903 170.702L101.25 170.413ZM51.2889 57.3188L52.6884 55.9044L62.6687 65.7789L68.5 59.8849L69.7575 61.1289L62.5265 68.4374L51.2889 57.3188ZM60.1623 71.4002L56.0639 70.5024L52.3996 76.425L55.0322 79.6919L53.9503 81.4405L43.578 68.1592L44.7412 66.2791L61.244 69.6516L60.1623 71.4002ZM45.7318 68.1659L45.7085 68.2036L51.2443 74.9305L54.2224 70.1171L45.7318 68.1659ZM52.8269 85.0715L38.2043 79.0647L38.9603 77.224L53.5831 83.231L52.8269 85.0715ZM43.9048 88.358L43.9479 88.3682C44.2233 87.7661 44.6572 87.3294 45.2495 87.0579C45.8419 86.7865 46.476 86.6608 47.1522 86.681C47.8282 86.7013 48.4874 86.7629 49.1291 86.866C49.7711 86.9691 50.3267 87.0523 50.796 87.1154C51.2658 87.1787 51.5384 87.1436 51.6148 87.0097L51.7441 87.0398L51.2608 89.1292C51.1339 89.2211 50.8244 89.2175 50.3326 89.1187C49.8413 89.0203 49.304 88.9226 48.7212 88.8254C48.1387 88.7285 47.5414 88.6774 46.93 88.672C46.3185 88.6667 45.7726 88.8357 45.2924 89.1783C44.8124 89.5211 44.4873 90.0586 44.3179 90.7911L43.2965 95.207L49.5218 96.6469L49.0733 98.5855L33.6717 95.0231L35.1166 88.7762C35.472 87.2397 36.1483 86.0987 37.1451 85.3535C38.1422 84.6083 39.3156 84.3918 40.6652 84.7041C42.7907 85.1956 43.8705 86.4139 43.9048 88.358ZM39.0527 86.623C38.6498 86.6965 38.3267 86.8183 38.083 86.9887C37.8393 87.1593 37.6229 87.4082 37.4339 87.7351C37.2447 88.0623 37.1037 88.3622 37.0099 88.6355C36.9166 88.9089 36.8248 89.2394 36.7353 89.6273L35.8433 93.483L41.5731 94.8083L42.4651 90.9526C42.5549 90.5649 42.6178 90.2277 42.6536 89.9409C42.6899 89.6543 42.6946 89.3228 42.6682 88.9458C42.642 88.5692 42.5567 88.2505 42.4128 87.9903C42.2686 87.73 42.0317 87.4788 41.7021 87.2359C41.3726 86.9934 40.9492 86.8121 40.4323 86.6926C39.9152 86.573 39.4554 86.5499 39.0527 86.623ZM40.6404 101.314C43.0411 101.215 45.0405 101.849 46.6383 103.213C48.2363 104.578 49.0826 106.41 49.1775 108.707C49.2725 111.004 48.58 112.899 47.1 114.391C45.6201 115.883 43.6799 116.679 41.2791 116.778C38.8788 116.877 36.8832 116.244 35.2925 114.879C33.7018 113.514 32.8589 111.682 32.764 109.385C32.6693 107.087 33.3583 105.193 34.8307 103.701C36.3036 102.209 38.2402 101.414 40.6404 101.314ZM37.5657 104.019C36.6395 104.449 35.8889 105.122 35.3145 106.038C34.7403 106.954 34.4791 108.045 34.5314 109.312C34.5837 110.579 34.934 111.645 35.5817 112.51C36.2299 113.376 37.0333 113.985 37.9918 114.336C38.9506 114.687 40.019 114.839 41.197 114.79C42.3755 114.741 43.4312 114.502 44.365 114.073C45.2987 113.643 46.0531 112.971 46.6273 112.054C47.2018 111.138 47.4627 110.047 47.4103 108.78C47.358 107.514 47.0081 106.447 46.3598 105.581C45.7121 104.716 44.905 104.107 43.9389 103.756C42.9729 103.405 41.9009 103.254 40.7225 103.303C39.5444 103.351 38.4921 103.591 37.5657 104.019ZM37.4556 125.859L50.9276 121.907L51.4878 123.817L38.0158 127.769L39.4972 132.818L37.7998 133.316L34.2771 121.308L35.9745 120.81L37.4556 125.859ZM53.3852 132.375C54.7615 132.738 55.9584 133.799 56.9771 135.559C57.9958 137.32 58.3193 138.887 57.9472 140.26C57.5756 141.633 56.6557 142.744 55.1883 143.593L46.06 148.875L45.0635 147.152L54.1919 141.871C56.3864 140.601 56.8045 138.793 55.4462 136.445C54.0881 134.098 52.3117 133.559 50.1172 134.828L40.9886 140.11L39.9921 138.388L49.1206 133.106C50.588 132.257 52.0096 132.014 53.3852 132.375ZM54.3072 155.901L64.4304 146.173L65.8092 147.608L55.6861 157.336L59.332 161.13L58.0567 162.356L49.3858 153.332L50.6612 152.107L54.3072 155.901ZM75.6877 171.746L78.0651 167.376L70.9374 163.499L71.7828 161.945L78.9103 165.823L81.5519 160.967L73.2589 156.456L74.1043 154.902L84.1451 160.365L76.5903 174.251L66.7825 168.915L67.6277 167.361L75.6877 171.746ZM93.1681 163.171L94.3677 179.875L92.3405 179.326L91.602 164.809L91.5806 164.803L83.6125 176.96L81.5851 176.411L91.0555 162.599L93.1681 163.171ZM132.438 158.935C134.176 158.093 135.831 157.84 137.402 158.177C138.973 158.513 140.191 159.455 141.054 161.002L139.263 161.869C137.907 159.677 135.889 159.229 133.209 160.526C132.055 161.085 131.318 161.72 130.999 162.432C130.68 163.143 130.691 163.85 131.032 164.553C131.475 165.469 132.059 165.972 132.782 166.064C133.506 166.155 134.827 165.982 136.744 165.546C137.333 165.408 137.829 165.307 138.231 165.243C138.635 165.179 139.121 165.144 139.691 165.138C140.262 165.132 140.749 165.191 141.153 165.315C141.556 165.439 141.961 165.664 142.365 165.993C142.77 166.321 143.101 166.75 143.357 167.281C143.91 168.422 143.925 169.536 143.404 170.624C142.883 171.712 141.846 172.631 140.293 173.383C138.755 174.128 137.316 174.345 135.979 174.035C134.641 173.725 133.562 172.875 132.743 171.487L134.534 170.62C135.135 171.524 135.842 172.078 136.654 172.283C137.465 172.488 138.422 172.324 139.522 171.791C140.505 171.316 141.179 170.772 141.546 170.16C141.913 169.549 141.952 168.944 141.663 168.347C141.457 167.923 141.208 167.601 140.914 167.384C140.62 167.165 140.27 167.044 139.865 167.019C139.46 166.994 139.054 167.01 138.648 167.068C138.242 167.125 137.742 167.216 137.147 167.34C136.968 167.378 136.836 167.409 136.75 167.434C136.168 167.552 135.732 167.64 135.441 167.699C135.15 167.758 134.769 167.824 134.297 167.897C133.824 167.97 133.458 168 133.198 167.987C132.938 167.974 132.623 167.95 132.254 167.916C131.886 167.881 131.585 167.802 131.353 167.677C131.12 167.552 130.865 167.397 130.587 167.213C130.31 167.028 130.064 166.782 129.85 166.476C129.637 166.17 129.433 165.818 129.24 165.42C128.694 164.293 128.666 163.135 129.156 161.948C129.646 160.761 130.74 159.757 132.438 158.935ZM155.519 150.237L151.336 154.433L150.083 153.185L154.266 148.988L155.519 150.237ZM167.52 132.643C168.887 132.196 170.254 132.319 171.621 133.013C172.988 133.706 173.896 134.736 174.343 136.103C174.79 137.47 174.68 138.811 174.014 140.126C173.347 141.44 172.33 142.321 170.963 142.768C169.596 143.215 168.229 143.092 166.862 142.399C165.494 141.706 164.587 140.676 164.14 139.308C163.693 137.941 163.803 136.6 164.47 135.286C165.136 133.971 166.153 133.091 167.52 132.643ZM164.987 139.031C165.36 140.171 166.118 141.03 167.262 141.61C168.392 142.184 169.53 142.285 170.676 141.916C171.822 141.547 172.672 140.817 173.225 139.726C173.778 138.634 173.865 137.517 173.486 136.375C173.107 135.232 172.352 134.374 171.221 133.801C170.078 133.221 168.936 133.117 167.797 133.49C166.658 133.863 165.812 134.595 165.258 135.686C164.705 136.777 164.614 137.892 164.987 139.031ZM166.798 137.855C167.16 138.038 167.533 138.124 167.919 138.114C168.305 138.102 168.608 137.88 168.828 137.446L169.268 136.579L167.217 135.539L167.637 134.711L172.705 137.28L171.665 139.331C171.405 139.844 171.07 140.186 170.66 140.359C170.251 140.531 169.822 140.504 169.375 140.277C168.678 139.924 168.405 139.405 168.554 138.72L168.534 138.71C168.355 138.933 168.108 139.052 167.795 139.067C167.482 139.082 167.191 139.029 166.921 138.909C166.651 138.788 166.4 138.682 166.166 138.588C165.933 138.495 165.796 138.471 165.756 138.517L165.717 138.497L166.167 137.609C166.226 137.59 166.437 137.672 166.798 137.855ZM169.333 139.066C169.411 139.188 169.542 139.296 169.726 139.389C169.91 139.483 170.073 139.528 170.215 139.526C170.357 139.523 170.486 139.456 170.602 139.325C170.718 139.194 170.799 139.091 170.846 139.015C170.892 138.939 170.969 138.796 171.076 138.586L171.516 137.719L170.017 136.959L169.577 137.826C169.477 138.024 169.409 138.166 169.372 138.255C169.335 138.344 169.3 138.471 169.266 138.635C169.232 138.8 169.254 138.943 169.333 139.066ZM173.711 119.913L171.683 127.769L169.97 127.327L171.999 119.47L166.647 118.089L164.287 127.23L162.574 126.788L165.432 115.72L180.738 119.672L177.947 130.483L176.234 130.04L178.528 121.156L173.711 119.913ZM176.525 113.47L176.524 111.481C176.952 111.392 177.364 111.252 177.762 111.06C178.16 110.869 178.558 110.599 178.956 110.253C179.354 109.907 179.675 109.431 179.918 108.827C180.161 108.222 180.282 107.53 180.282 106.749C180.282 105.849 180.098 105.046 179.729 104.339C179.36 103.631 178.867 103.071 178.248 102.659C177.628 102.246 176.947 101.936 176.202 101.73C175.458 101.524 174.673 101.421 173.848 101.421C173.022 101.421 172.234 101.524 171.482 101.731C170.73 101.937 170.045 102.247 169.426 102.66C168.807 103.072 168.313 103.633 167.945 104.34C167.576 105.048 167.392 105.851 167.392 106.75C167.393 108.268 167.813 109.418 168.653 110.199C169.493 110.98 170.488 111.408 171.638 111.481L171.638 113.471C169.855 113.295 168.406 112.606 167.293 111.405C166.18 110.203 165.624 108.652 165.623 106.751C165.623 104.599 166.393 102.841 167.933 101.477C169.473 100.113 171.445 99.4315 173.847 99.4312C176.235 99.4309 178.199 100.112 179.74 101.475C181.28 102.839 182.051 104.596 182.051 106.748C182.051 108.62 181.521 110.161 180.46 111.369C179.399 112.578 178.087 113.279 176.525 113.47ZM171.976 93.1146L171.933 93.1253C171.962 93.7868 171.775 94.3732 171.371 94.8846C170.967 95.396 170.46 95.7969 169.849 96.0868C169.238 96.3767 168.623 96.6219 168.005 96.8226C167.386 97.0231 166.854 97.2023 166.407 97.3598C165.96 97.5174 165.733 97.6728 165.726 97.8266L165.598 97.8589L165.076 95.7787C165.147 95.639 165.425 95.5011 165.907 95.3652C166.389 95.229 166.912 95.0712 167.475 94.8924C168.038 94.7132 168.593 94.4868 169.14 94.2129C169.687 93.9392 170.096 93.5404 170.367 93.0164C170.638 92.4926 170.683 91.866 170.5 91.1369L169.398 86.7404L163.2 88.2939L162.716 86.3637L178.051 82.5202L179.61 88.7397C179.993 90.2693 179.911 91.5933 179.362 92.7107C178.814 93.8283 177.868 94.5555 176.525 94.8922C174.408 95.4226 172.892 94.8299 171.976 93.1146ZM177.783 91.682C177.922 91.4192 178.001 91.0991 178.021 90.7221C178.04 90.3447 178.029 90.0133 177.988 89.7273C177.947 89.4415 177.878 89.1054 177.781 88.7193L176.819 84.8805L171.114 86.3104L172.076 90.1492C172.173 90.5353 172.27 90.8641 172.369 91.1358C172.467 91.4074 172.614 91.7046 172.809 92.0283C173.004 92.3515 173.225 92.5964 173.472 92.7626C173.719 92.9285 174.044 93.0444 174.448 93.1105C174.852 93.1762 175.312 93.1449 175.826 93.0159C176.341 92.8868 176.761 92.6978 177.086 92.4492C177.411 92.2005 177.643 91.945 177.783 91.682Z" fill="white"/>
<defs>
<filter id="filter0_b" x="-20" y="-20" width="253.793" height="253.793" filterUnits="userSpaceOnUse" color-interpolation-filters="sRGB">
<feFlood flood-opacity="0" result="BackgroundImageFix"/>
<feGaussianBlur in="BackgroundImage" stdDeviation="10"/>
<feComposite in2="SourceAlpha" operator="in" result="effect1_backgroundBlur"/>
<feBlend mode="normal" in="SourceGraphic" in2="effect1_backgroundBlur" result="shape"/>
</filter>
</defs>
</svg>
