<svg width="30" height="31" viewBox="0 0 30 31" fill="none" xmlns="http://www.w3.org/2000/svg">
<g clip-path="url(#clip0)">
<path d="M27.9727 30.0621H2.02676C1.7042 30.0621 1.39485 29.934 1.16677 29.7059C0.938684 29.4778 0.810547 29.1685 0.810547 28.8459V11.0843C0.810547 10.9767 0.853259 10.8736 0.929287 10.7976C1.00532 10.7216 1.10843 10.6789 1.21595 10.6789H28.7835C28.891 10.6789 28.9942 10.7216 29.0702 10.7976C29.1462 10.8736 29.1889 10.9767 29.1889 11.0843V28.8459C29.1889 29.1685 29.0608 29.4778 28.8327 29.7059C28.6046 29.934 28.2953 30.0621 27.9727 30.0621ZM1.62136 11.4897V28.8459C1.62136 28.9534 1.66407 29.0565 1.7401 29.1326C1.81613 29.2086 1.91924 29.2513 2.02676 29.2513H27.9727C28.0802 29.2513 28.1833 29.2086 28.2594 29.1326C28.3354 29.0565 28.3781 28.9534 28.3781 28.8459V11.4897H1.62136Z" fill="white"/>
<path d="M28.7835 11.4896H1.21595C1.10843 11.4896 1.00532 11.4469 0.929287 11.3709C0.853259 11.2948 0.810547 11.1917 0.810547 11.0842V5.81392C0.810547 5.49136 0.938684 5.18201 1.16677 4.95392C1.39485 4.72584 1.7042 4.5977 2.02676 4.5977H6.01595C6.12347 4.5977 6.22659 4.64041 6.30262 4.71644C6.37865 4.79247 6.42136 4.89559 6.42136 5.00311C6.42136 5.11063 6.37865 5.21374 6.30262 5.28977C6.22659 5.3658 6.12347 5.40851 6.01595 5.40851H2.02676C1.91924 5.40851 1.81613 5.45123 1.7401 5.52725C1.66407 5.60328 1.62136 5.7064 1.62136 5.81392V10.6788H28.3781V5.81392C28.3781 5.7064 28.3354 5.60328 28.2594 5.52725C28.1833 5.45123 28.0802 5.40851 27.9727 5.40851H23.9835C23.876 5.40851 23.7729 5.3658 23.6969 5.28977C23.6208 5.21374 23.5781 5.11063 23.5781 5.00311C23.5781 4.89559 23.6208 4.79247 23.6969 4.71644C23.7729 4.64041 23.876 4.5977 23.9835 4.5977H27.9727C28.2953 4.5977 28.6046 4.72584 28.8327 4.95392C29.0608 5.18201 29.1889 5.49136 29.1889 5.81392V11.0842C29.1889 11.1917 29.1462 11.2948 29.0702 11.3709C28.9942 11.4469 28.891 11.4896 28.7835 11.4896Z" fill="white"/>
<path d="M20.8906 5.40851H9.10951C9.00199 5.40851 8.89887 5.3658 8.82284 5.28977C8.74681 5.21374 8.7041 5.11063 8.7041 5.00311C8.7041 4.89559 8.74681 4.79247 8.82284 4.71644C8.89887 4.64041 9.00199 4.5977 9.10951 4.5977H20.8906C20.9981 4.5977 21.1012 4.64041 21.1773 4.71644C21.2533 4.79247 21.296 4.89559 21.296 5.00311C21.296 5.11063 21.2533 5.21374 21.1773 5.28977C21.1012 5.3658 20.9981 5.40851 20.8906 5.40851Z" fill="white"/>
<path d="M22.4366 8.24646C21.9193 8.24592 21.4234 8.04023 21.0576 7.67451C20.6918 7.30879 20.486 6.81291 20.4854 6.29565V3.71078C20.4927 3.19821 20.7015 2.70914 21.0666 2.34928C21.4317 1.98942 21.9237 1.78769 22.4364 1.78769C22.949 1.78769 23.441 1.98942 23.8061 2.34928C24.1712 2.70914 24.38 3.19821 24.3874 3.71078V6.29565C24.3868 6.81287 24.1811 7.30875 23.8154 7.67449C23.4497 8.04022 22.9538 8.24592 22.4366 8.24646ZM22.4366 2.57078C22.1343 2.5711 21.8445 2.6913 21.6307 2.90501C21.4169 3.11872 21.2966 3.4085 21.2962 3.71078V6.29565C21.3018 6.59432 21.4244 6.87887 21.6376 7.0881C21.8508 7.29733 22.1376 7.41455 22.4364 7.41455C22.7351 7.41455 23.0219 7.29733 23.2351 7.0881C23.4483 6.87887 23.5709 6.59432 23.5766 6.29565V3.71078C23.5762 3.40853 23.456 3.11876 23.2423 2.90503C23.0286 2.69131 22.7388 2.5711 22.4366 2.57078Z" fill="white"/>
<path d="M7.56311 8.24646C7.04589 8.24592 6.55001 8.04022 6.18428 7.67449C5.81854 7.30875 5.61284 6.81287 5.6123 6.29565V3.71078C5.61969 3.19821 5.8285 2.70914 6.19358 2.34928C6.55866 1.98942 7.05069 1.78769 7.56331 1.78769C8.07594 1.78769 8.56797 1.98942 8.93305 2.34928C9.29813 2.70914 9.50694 3.19821 9.51432 3.71078V6.29565C9.51368 6.81291 9.30789 7.30879 8.94209 7.67451C8.5763 8.04023 8.08037 8.24592 7.56311 8.24646ZM7.56311 2.57078C7.26086 2.5711 6.97109 2.69131 6.75737 2.90503C6.54365 3.11876 6.42344 3.40853 6.42311 3.71078V6.29565C6.42875 6.59432 6.55135 6.87887 6.76457 7.0881C6.97778 7.29733 7.26458 7.41455 7.56331 7.41455C7.86204 7.41455 8.14885 7.29733 8.36206 7.0881C8.57528 6.87887 8.69788 6.59432 8.70352 6.29565V3.71078C8.70309 3.4085 8.58279 3.11872 8.369 2.90501C8.15521 2.6913 7.8654 2.5711 7.56311 2.57078Z" fill="white"/>
</g>
<defs>
<clipPath id="clip0">
<rect width="30" height="30" fill="white" transform="translate(0 0.949051)"/>
</clipPath>
</defs>
</svg>
