<svg width="23" height="23" viewBox="0 0 23 23" fill="none" xmlns="http://www.w3.org/2000/svg">
<g clip-path="url(#clip0)">
<path d="M22.1055 7.60986V6.44971C22.1055 5.12077 21.0282 4.04346 19.6992 4.04346H2.51172C1.18278 4.04346 0.105469 5.12077 0.105469 6.44971V7.60986C0.105469 7.7285 0.201676 7.82471 0.320312 7.82471H21.8906C22.0093 7.82471 22.1055 7.7285 22.1055 7.60986Z" fill="white"/>
<path d="M0.105469 9.41455V16.7622C0.105469 18.0911 1.18278 19.1685 2.51172 19.1685H19.6992C21.0282 19.1685 22.1055 18.0911 22.1055 16.7622V9.41455C22.1055 9.29591 22.0093 9.19971 21.8906 9.19971H0.320312C0.201676 9.19971 0.105469 9.29591 0.105469 9.41455ZM5.60547 15.0435C5.60547 15.4231 5.29764 15.731 4.91797 15.731H4.23047C3.8508 15.731 3.54297 15.4231 3.54297 15.0435V14.356C3.54297 13.9763 3.8508 13.6685 4.23047 13.6685H4.91797C5.29764 13.6685 5.60547 13.9763 5.60547 14.356V15.0435Z" fill="white"/>
</g>
<defs>
<clipPath id="clip0">
<rect width="22" height="22" fill="white" transform="translate(0.105469 0.605957)"/>
</clipPath>
</defs>
</svg>
