<svg width="61" height="60" viewBox="0 0 61 60" fill="none" xmlns="http://www.w3.org/2000/svg">
<path d="M27.4283 5.92321L27.889 6.38397L28.2148 5.81966L30.998 0.999022L33.7812 5.81964L34.107 6.38395L34.5678 5.92319L38.5038 1.98719L39.9445 7.36388L40.1131 7.99329L40.6774 7.66748L45.498 4.8843V10.4507V11.1023L46.1274 10.9336L51.5041 9.49296L50.0635 14.8697L49.8948 15.4991H50.5464L56.1128 15.4991L53.3297 20.3197L53.0038 20.884L53.6333 21.0526L59.0099 22.4933L55.0739 26.4293L54.6132 26.8901L55.1775 27.2159L59.9981 29.999L55.1774 32.7822L54.6131 33.108L55.0739 33.5688L59.0099 37.5048L53.6332 38.9455L53.0038 39.1142L53.3296 39.6785L56.1128 44.4991L50.5465 44.4991H49.8948L50.0635 45.1285L51.5042 50.5051L46.1275 49.0645L45.4981 48.8958V49.5474V55.1138L40.6774 52.3306L40.1131 52.0048L39.9445 52.6343L38.5038 58.011L34.5677 54.0749L34.107 53.6142L33.7812 54.1785L30.998 58.999L28.2149 54.1785L27.8891 53.6142L27.4283 54.0749L23.4923 58.011L22.0516 52.6342L21.8829 52.0048L21.3186 52.3306L16.498 55.1138L16.498 49.5474V48.8958L15.8686 49.0645L10.4919 50.5051L11.9326 45.1285L12.1012 44.4991H11.4496H5.88329L8.66647 39.6785L8.99228 39.1142L8.36287 38.9455L2.98617 37.5048L6.92223 33.5688L7.38299 33.108L6.81868 32.7822L1.99805 29.999L6.8186 27.2159L7.38291 26.8901L6.92215 26.4293L2.98616 22.4933L8.36284 21.0526L8.99225 20.884L8.66645 20.3197L5.88327 15.4991L11.4497 15.4991H12.1013L11.9326 14.8696L10.492 9.49292L15.8686 10.9336L16.498 11.1022V10.4506L16.498 4.88431L21.3186 7.66749L21.8829 7.9933L22.0516 7.36389L23.4923 1.9872L27.4283 5.92321Z" stroke="white"/>
</svg>
