<svg width="23" height="21" viewBox="0 0 23 21" fill="none" xmlns="http://www.w3.org/2000/svg">
<path d="M0.105469 0.90918V20.3031H11.4123C18.871 20.3031 22.1055 16.1261 22.1055 10.5871C22.1055 5.06973 18.871 0.90918 11.4123 0.90918H0.105469Z" fill="white"/>
<path d="M1.32715 2.13232H11.4135C18.2593 2.13232 20.8834 5.87079 20.8834 10.5868C20.8834 16.2417 17.219 19.0792 11.4135 19.0792H1.32715V2.13232ZM2.30496 3.11014V18.1019H11.4135C16.9126 18.1019 19.9047 15.5395 19.9047 10.5868C19.9047 5.49682 16.6612 3.10984 11.4135 3.10984H2.30496V3.11014Z" fill="#333333"/>
<path d="M3.52783 11.6895H6.44365V16.879H3.52783V11.6895Z" fill="#333333"/>
<path d="M4.9855 10.8865C5.98633 10.8865 6.79766 10.0751 6.79766 9.07433C6.79766 8.07352 5.98633 7.26221 4.9855 7.26221C3.98467 7.26221 3.17334 8.07352 3.17334 9.07433C3.17334 10.0751 3.98467 10.8865 4.9855 10.8865Z" fill="#333333"/>
<path d="M12.5586 9.9223V10.7626H10.481V7.39063H12.4922V8.23064H11.321V8.62104H12.4285V9.46134H11.321V9.9226L12.5586 9.9223ZM12.9221 10.7632L13.9387 7.38944H15.1339L16.1503 10.7632H15.2759L15.0852 10.1106H13.9863L13.7953 10.7632H12.9221ZM14.2326 9.27122H14.8406L14.5617 8.31822H14.5109L14.2326 9.27122ZM16.5727 7.38974H17.4133V9.9226H18.6574C18.316 5.3268 14.7013 4.33374 11.4148 4.33374H7.91222V7.39153H8.43057C9.3758 7.39153 9.96261 8.03244 9.96261 9.06376C9.96261 10.128 9.38985 10.7632 8.43057 10.7632H7.91222V16.8812H11.4151C16.7559 16.8812 18.6159 14.4006 18.6816 10.7626H16.5727V7.38974ZM7.91162 8.23153V9.9226H8.43057C8.79019 9.9226 9.12261 9.81857 9.12261 9.06346C9.12261 8.326 8.75282 8.23153 8.43057 8.23153H7.91162Z" fill="#333333"/>
</svg>
