<svg width="81" height="81" viewBox="0 0 81 81" fill="none" xmlns="http://www.w3.org/2000/svg">
<path fill-rule="evenodd" clip-rule="evenodd" d="M49.2655 52.748V28.6703H51.5412C58.0717 28.5096 62.5004 32.2633 62.4694 40.7092C62.5004 49.3756 58.2931 52.9088 51.6515 52.748H49.2655ZM33.7315 18.5732L49.2655 62.8451H52.3723C67.4814 62.8451 75.6733 53.7919 75.6733 40.7092C75.6733 27.4059 67.5917 18.5732 52.3723 18.5732H33.7315ZM22.1688 45.3655L26.3319 31.4237L30.5168 45.3655H22.1696H22.1688ZM20.5276 18.5732L4.99365 62.8451H16.996L19.1979 55.3313L33.5008 55.2971L35.7393 62.8451H47.7121L32.1781 18.5732H20.5276Z" fill="white"/>
</svg>
