<svg width="92" height="47" viewBox="0 0 92 47" fill="none" xmlns="http://www.w3.org/2000/svg">
<g clip-path="url(#clip0)">
<path fill-rule="evenodd" clip-rule="evenodd" d="M91.562 23.7085C91.5954 27.4406 90.6939 31.1217 88.9398 34.416L91.9991 37.4753L83.4767 45.9977L80.6359 43.1569C77.2307 45.4259 73.0933 46.6824 68.6172 46.6533C56.4638 46.686 46.4992 37.1585 45.891 25.2381C45.0642 37.1585 35.0996 46.6824 22.9462 46.6533C19.9302 46.6634 16.942 46.0768 14.1536 44.9273C11.3653 43.7778 8.83183 42.0881 6.6992 39.9554C4.56656 37.8228 2.87684 35.2894 1.72734 32.501C0.577833 29.7127 -0.00875485 26.7245 0.00134904 23.7085C-0.0168611 11.1034 10.2464 0.840155 22.9462 0.763672C27.0092 0.791372 30.9919 1.8987 34.4861 3.9722C37.9803 6.0457 40.8605 9.01085 42.8317 12.5639L32.1241 18.6825C30.2302 15.4483 26.8176 13.2995 22.9462 13.2194C17.1262 13.2995 12.4462 17.9868 12.4571 23.7085C12.4484 25.0883 12.7138 26.4562 13.2378 27.7327C13.7618 29.0093 14.5341 30.169 15.5099 31.1448C16.4856 32.1205 17.6454 32.8928 18.9219 33.4168C20.1984 33.9409 21.5663 34.2062 22.9462 34.1975C26.2604 34.2267 29.2505 32.6424 31.25 30.2641L24.4758 30.0456V20.4306H45.6724C45.6735 20.6096 45.6799 20.7985 45.6865 20.9935C45.6987 21.3535 45.7116 21.7346 45.6931 22.1112C46.6254 10.2453 56.5424 0.839546 68.6172 0.763672C81.317 0.843797 91.5803 11.107 91.562 23.7085ZM76.9211 23.2715L79.1063 25.2382C79.0947 24.9805 79.0994 24.7219 79.1043 24.4542C79.1087 24.2148 79.1132 23.9681 79.1063 23.7085C79.1208 17.9869 74.4372 13.2996 68.6172 13.2195C65.85 13.2663 63.2092 14.3864 61.2522 16.3434C59.2951 18.3005 58.175 20.9413 58.1282 23.7085C58.1974 29.543 62.881 34.2267 68.6172 34.1976C69.4963 34.2082 70.3743 34.1351 71.2395 33.979L68.8357 31.7938L76.9211 23.2715Z" fill="white"/>
</g>
<defs>
<clipPath id="clip0">
<rect width="92" height="45.8896" fill="white" transform="translate(0 0.763672)"/>
</clipPath>
</defs>
</svg>
