<svg width="182" height="23" viewBox="0 0 182 23" fill="none" xmlns="http://www.w3.org/2000/svg">
<path d="M0.676758 0.78418H9.03059C11.5537 0.78418 12.8306 1.93802 12.8306 4.23033V8.9688C12.8306 10.4303 12.3383 11.3226 11.3691 11.6457C12.3383 11.9688 12.8306 12.7996 12.8306 14.1534V19.3073C12.8306 21.5996 11.5691 22.7534 9.03059 22.7534H0.676758V0.78418ZM8.84599 9.24572V4.64572C8.84599 4.27649 8.78445 4.03033 8.6306 3.89187C8.49214 3.76879 8.2306 3.70726 7.8306 3.70726H4.66137V10.1842H7.8306C8.2306 10.1842 8.49214 10.1226 8.6306 9.99956C8.78445 9.8611 8.84599 9.61495 8.84599 9.24572ZM8.84599 18.8765V14.0457C8.84599 13.6765 8.78445 13.4303 8.6306 13.2919C8.49214 13.1688 8.2306 13.1073 7.8306 13.1073H4.66137V19.8303H7.8306C8.2306 19.8303 8.49214 19.7688 8.6306 19.6303C8.78445 19.5073 8.84599 19.2611 8.84599 18.8765Z" fill="white"/>
<path d="M31.9539 22.7546L31.1231 18.2008H26.3231L25.5538 22.7546H21.5538L25.9692 0.800781H31.3692L36 22.7546H31.9539ZM26.8461 15.1546H30.5692L28.6615 4.64694L26.8461 15.1546Z" fill="white"/>
<path d="M48.9076 19.6775H54.7537V22.739H44.9076V0.785156H48.9076V19.6775Z" fill="white"/>
<path d="M63.6611 0.785156H72.015C74.538 0.785156 75.815 1.939 75.815 4.23131V19.2929C75.815 21.5852 74.5534 22.739 72.015 22.739H63.6611V0.785156ZM71.7688 18.8775V4.6467C71.7688 4.27747 71.7073 4.03131 71.5534 3.89284C71.415 3.76977 71.1534 3.70824 70.7842 3.70824H67.6457V19.8159H70.7842C71.1534 19.8159 71.415 19.7544 71.5534 19.6159C71.6919 19.5082 71.7688 19.2621 71.7688 18.8775Z" fill="white"/>
<path d="M96.5995 3.84669H89.9842V10.5236H95.3841V13.4467H89.9842V22.739H85.9534V0.785156H96.5995V3.84669Z" fill="white"/>
<path d="M109.2 0.785156H113.446C115.969 0.785156 117.246 1.939 117.246 4.23131V19.2929C117.246 21.5852 115.985 22.739 113.446 22.739H109.2C106.677 22.739 105.4 21.5852 105.4 19.2929V4.23131C105.415 1.939 106.677 0.785156 109.2 0.785156ZM113.246 18.739V4.78515C113.246 4.41592 113.169 4.16977 113.031 4.03131C112.892 3.90823 112.631 3.84669 112.261 3.84669H110.415C110.015 3.84669 109.754 3.90823 109.615 4.03131C109.477 4.15439 109.4 4.41592 109.4 4.78515V18.739C109.4 19.1082 109.461 19.3544 109.615 19.4928C109.754 19.6159 110.015 19.6775 110.415 19.6775H112.261C112.631 19.6775 112.892 19.6159 113.031 19.4928C113.169 19.3698 113.246 19.1236 113.246 18.739Z" fill="white"/>
<path d="M131.431 14.1852V22.739H127.431V0.785156H135.507C138.031 0.785156 139.292 1.939 139.292 4.23131V10.739C139.292 12.6467 138.446 13.7544 136.754 14.0775L140.4 22.739H136.092L132.754 14.1852H131.431ZM131.431 3.84669V11.2159H134.323C134.692 11.2159 134.954 11.1544 135.092 11.0313C135.231 10.9082 135.307 10.6621 135.307 10.2775V4.78515C135.307 4.41592 135.246 4.16977 135.092 4.03131C134.954 3.90823 134.692 3.84669 134.323 3.84669H131.431Z" fill="white"/>
<path d="M160.831 8.06184H156.8V4.64646C156.8 4.27723 156.738 4.03107 156.585 3.89261C156.446 3.76953 156.185 3.708 155.815 3.708H154.185C153.815 3.708 153.554 3.76953 153.415 3.89261C153.277 4.01568 153.2 4.27723 153.2 4.64646V18.908C153.2 19.2772 153.277 19.5234 153.415 19.6618C153.554 19.7849 153.815 19.8619 154.185 19.8619H155.815C156.185 19.8619 156.446 19.8003 156.585 19.6618C156.723 19.5388 156.8 19.2926 156.8 18.908V15.5695H160.831V19.3234C160.831 21.6157 159.569 22.7695 157.046 22.7695H152.969C150.446 22.7695 149.185 21.6157 149.185 19.3234V4.21568C149.185 1.92337 150.446 0.769531 152.969 0.769531H157.046C159.569 0.769531 160.831 1.92337 160.831 4.21568V8.06184Z" fill="white"/>
<path d="M174.646 19.6775H181.323V22.739H170.6V0.785156H181.046V3.84669H174.646V9.939H180.046V13.0313H174.646V19.6775Z" fill="white"/>
</svg>
