<svg width="614" height="724" viewBox="0 0 614 724" fill="none" xmlns="http://www.w3.org/2000/svg">
<g opacity="0.6" clip-path="url(#clip0)">
<path d="M468.976 124.016L473.306 125.616L475.316 120.326L476.486 119.966L476.856 116.596L479.276 110.176L479.546 108.386L480.526 107.416L481.596 105.646L482.216 105.436L482.926 104.696L483.146 102.676L483.416 102.146L484.966 101.486L487.156 100.016L487.326 99.6955L488.446 99.4055L489.846 98.0655L489.936 97.1355L492.616 96.6155L495.286 95.7455L496.706 95.7655L498.036 95.4255L502.326 97.2955L503.436 97.3555L504.496 99.4055L504.436 99.9355L505.036 99.9555L507.376 104.046L508.516 107.226L510.526 106.356L510.906 106.416L511.596 107.596V108.596L512.086 110.516H513.406L515.446 112.306L516.236 113.356L516.946 113.626L518.006 116.546L518.706 117.096L519.066 118.336L519.746 118.676L519.786 120.486L526.316 117.516L529.036 116.776L535.606 117.126L536.856 117.966L537.646 119.096L544.456 126.086L547.586 129.686L550.086 132.026L559.106 142.316L566.636 149.896L571.146 156.116L579.346 168.506L579.536 168.456L580.876 169.836L584.216 170.726L579.726 181.636L583.486 182.036L583.976 183.886L584.566 183.836L586.906 187.266L587.316 187.416L587.936 188.306L588.366 188.436L589.006 188.076L589.186 188.176L588.786 189.406L588.646 190.896L591.826 190.736L588.516 198.236L588.536 201.186L585.736 241.136L585.866 241.736L583.666 244.336L582.696 243.736L581.526 243.786L578.966 243.166L578.166 242.616L577.746 241.996L575.826 242.126L574.356 241.136L573.126 240.746L572.036 241.896L570.786 241.766L569.736 242.826L568.536 242.676L567.066 243.086L565.826 242.546L565.516 242.176L564.116 242.206L563.666 240.616L561.956 240.126L561.536 240.196L560.736 239.606L558.236 239.866L557.106 238.926L555.416 239.966L554.146 239.916L553.616 240.146L551.266 239.266L550.626 239.416L548.996 240.406L546.616 240.016L546.116 239.446L544.486 239.626L543.956 239.156L543.106 239.106L541.916 239.346L541.016 239.836L540.496 240.666L539.056 240.146L538.186 240.796L537.856 240.326L536.456 240.926L534.306 243.216L533.676 244.176L532.186 244.906L531.586 245.976L529.766 245.866L530.336 244.256L530.016 243.716L531.036 242.596L530.806 242.076L530.476 241.966L531.286 240.126L525.886 238.246L516.256 233.666L506.156 235.936L504.856 236.666L500.126 240.566L500.016 241.056L500.366 244.076L500.856 245.536L501.296 249.896L501.066 250.346H500.696L500.616 249.796L500.256 249.766L499.986 249.116L499.276 249.066L498.846 248.266H497.846L496.896 247.846L495.886 247.796L495.556 248.076L494.356 247.946L494.176 247.536L493.516 247.276L493.546 246.626L492.846 246.256L492.236 248.186L491.726 248.726L489.986 249.246L489.056 249.096L488.106 248.496L487.576 247.816L487.626 246.806L487.196 246.386L487.026 245.796L486.586 246.596L485.636 247.296L485.526 247.896L485.066 248.266L483.636 247.536L483.136 248.446L481.626 248.396L481.236 249.066L479.806 249.826L479.586 249.766L479.446 249.046H479.046L478.466 248.266L478.386 247.426L477.916 246.626L478.066 245.556L477.386 244.596L477.126 243.326L476.126 242.076L476.286 241.736L475.586 241.216L475.096 241.266L474.776 240.926L474.686 240.386L473.246 239.526L472.846 239.006L471.616 238.566L470.446 237.516L470.396 236.346L470.826 235.826L470.286 234.896L469.336 234.946L467.376 235.876L466.166 235.956L465.596 236.796L465.066 236.866L464.606 236.606L463.636 235.286L463.056 235.206L462.356 236.086L461.926 236.166L461.126 235.646L460.586 234.916L459.456 234.836L458.526 234.136L457.686 232.726L456.816 232.806L455.616 232.206L455.446 231.846L454.996 232.006L453.576 231.196L453.406 230.516L452.146 230.986L451.296 231.016L450.446 232.186L448.416 231.946L448.036 231.506L446.816 232.006L446.056 230.436L445.536 229.946L445.336 230.076L444.796 229.736L443.816 228.436L443.006 225.626L441.216 221.716L438.016 213.476L438.736 212.226L439.076 211.986L442.716 211.106L445.786 209.566L445.976 208.306L451.136 202.596L450.106 201.556L447.106 197.426L445.976 196.796L440.366 190.266L439.576 189.226L439.226 188.206L438.016 186.636L444.686 181.486L451.326 177.216L455.536 171.356L457.546 169.766L458.276 168.346L459.426 167.616L460.426 167.536L466.926 168.166L471.896 173.266L481.266 166.566L486.786 156.116L476.436 140.036L477.126 131.106L467.686 127.536L468.976 124.016Z" fill="#252525"/>
<path d="M328.215 271.715L327.585 271.485L327.535 270.965L327.855 270.625L328.255 268.545L330.315 263.635L331.545 262.415L334.155 261.145L334.485 260.545L334.455 260.025L332.635 254.415L323.855 240.275L324.215 240.015L333.065 254.155L334.935 260.205L334.535 261.475L331.555 262.875L330.625 263.915L328.525 269.025L328.215 271.715ZM373.255 191.205L374.835 191.515L376.085 192.745L377.165 192.305L376.185 189.355L379.355 190.325L385.085 196.125L386.065 199.915L386.655 199.575L388.065 202.085L390.205 203.965L390.235 204.465H393.135L393.465 204.695L395.335 205.035L396.725 205.715L399.825 207.855L400.755 209.155L402.365 210.535L403.315 211.135L403.885 211.165L406.935 214.065L407.505 214.955L408.625 217.845L410.225 223.375L411.335 223.945L411.875 224.885V225.795L412.195 225.765L412.715 226.185L413.395 227.695L413.425 228.605L413.015 229.285L412.505 229.365L411.605 230.435L410.135 231.455L408.345 233.485L408.405 234.375L408.785 234.815L409.465 234.895L409.485 234.535L411.595 235.365L412.685 235.445L414.215 235.965L416.735 238.175L419.315 238.875L421.195 240.745L421.595 241.395L421.625 241.785L420.805 242.745L417.245 245.115L412.005 246.255L411.765 246.825L408.125 248.875L405.785 249.165L404.995 248.305L403.725 247.815L394.405 249.865L393.585 250.205L393.155 250.905L383.775 250.875L383.715 257.735L387.445 257.685L388.905 257.945L395.645 265.135L396.135 266.615L397.385 273.755L396.295 278.605L395.315 280.035L394.905 282.525L393.905 285.275L393.925 285.765L393.625 286.075L392.515 285.715L392.075 285.925L389.865 290.145L389.815 290.435L390.715 291.755L388.975 294.295L388.645 295.305L385.565 298.335L384.315 299.085L380.945 302.195L380.375 302.355L380.185 302.715L377.715 304.705L377.305 304.675L376.705 304.135L376.375 304.215L376.285 304.575L376.555 305.065L375.745 305.715L375.365 306.365L374.225 307.195L372.485 307.895L371.155 309.185L369.665 309.625L368.195 309.595L363.875 313.295L363.115 312.495L362.545 312.315L358.625 314.175L357.545 315.055L356.815 314.155L356.275 314.075L353.985 314.565L353.585 314.955L351.735 317.825L346.495 334.015L345.435 336.905L344.855 337.735L327.275 342.765L324.935 343.665L321.865 341.035L313.825 333.085L310.015 329.315L305.365 326.245L295.635 323.795L284.635 325.675L283.555 325.055L282.395 323.605L282.615 323.395L282.345 322.905L283.425 321.925L282.015 320.585L281.605 320.555L281.435 320.765L281.305 320.535L281.795 319.995L281.965 319.295L281.695 314.285L280.065 311.185L280.095 309.655L285.505 306.395L286.315 304.535L293.495 300.295L295.365 300.245L296.095 299.855L296.585 299.515L297.555 297.805L300.755 295.835L321.195 281.435L322.795 281.205L323.775 280.635L329.895 275.135L330.195 274.145L329.685 273.265L329.595 272.045L329.185 272.275L328.615 272.245L328.755 270.865L329.355 270.705L329.495 271.095L329.685 270.675L330.415 270.465L331.155 269.795L332.565 266.525L333.595 265.175L338.405 264.885L339.075 264.595L344.435 259.475L344.605 259.215L343.955 258.515L344.505 257.965L345.075 258.485L344.835 258.665L345.025 258.825L349.505 254.225L360.095 251.155L361.585 249.825H362.045L363.615 248.265L358.615 240.205L355.785 238.125L355.725 237.895L356.305 237.685L355.565 236.725L354.565 236.905L354.835 210.195L365.405 192.995L366.385 192.395L372.635 191.615L373.095 191.535L373.255 191.205Z" fill="#252525"/>
<path d="M350.686 192.955L350.786 193.295L350.456 193.325L349.046 192.775L349.266 192.535H350.186L350.686 192.955ZM344.216 191.785L343.516 191.475L343.686 191.345L344.206 191.525V191.785H344.216ZM324.976 160.755L324.756 160.495L324.916 159.975L325.186 160.285L324.976 160.755ZM323.596 150.265L323.296 149.395L323.426 149.215L323.726 150.105L323.596 150.265ZM319.106 128.555L319.516 129.315L320.106 129.555L320.816 129.375L321.656 130.245L322.006 131.795L323.036 133.795L319.986 133.585L319.656 132.635L318.616 131.135L318.266 128.795L318.356 128.585L319.106 128.555ZM313.546 128.715L313.756 129.475L313.616 129.815L313.066 129.635L312.416 130.025L311.976 129.895L307.876 131.075L294.886 142.525L294.806 143.205L294.066 143.805L293.706 143.545L293.156 143.995L293.886 144.285L294.456 143.835L294.566 143.965L293.966 144.465L292.986 144.175L287.366 149.055L286.716 148.185L292.226 143.355L292.136 142.775L292.866 142.385L292.276 142.885L292.376 143.225L307.166 130.175L307.836 129.805L311.856 128.705L311.956 128.525L312.466 128.835L313.066 128.675L313.206 128.435L313.546 128.715ZM272.056 67.2155L276.246 68.0055L276.466 68.1355L276.656 69.3255L275.926 69.7755L275.436 70.4655L274.726 70.1455L275.026 70.6955L274.366 70.4355L273.116 70.3855L270.756 71.0455L269.536 72.2855L267.586 73.6355L264.956 74.8455L259.116 76.9055L256.286 78.3055L256.006 78.9355L257.036 81.4155L256.736 81.7855L255.836 81.9455L255.566 82.2855L255.486 83.6855L255.916 83.8655L255.616 84.8455L251.756 86.4255L249.606 88.7455L248.636 89.2155L246.496 89.0355L245.156 89.2755L242.256 90.8555L241.466 90.9055L240.946 90.4855L240.166 89.0055L240.186 88.2455L249.146 82.5755L250.506 81.3655L253.856 77.4355L256.266 75.4855L265.566 69.1455L267.716 68.5355L270.866 67.2155H272.056ZM283.186 71.8155L282.676 72.5555L282.016 72.6655L281.176 73.7455L280.816 73.8755L280.106 73.5355L279.216 73.6955L279.236 73.1655L279.806 73.1155L280.136 72.7155L279.726 71.9755L279.046 71.7655L280.546 70.2855L280.706 69.8855L282.166 68.8255L283.086 67.6355L283.626 67.2955L284.576 67.2455L285.046 68.1955L284.936 68.9855L284.066 70.7055L283.186 71.8155ZM290.776 44.5855L290.676 44.3755L291.036 43.9555L290.776 44.5855ZM449.236 40.0855L445.546 45.4655L445.676 48.8255L446.486 51.2055L447.026 52.0555L448.166 53.0055L453.386 54.4355L454.066 54.8055L454.656 55.7055L455.096 57.3755L455.796 58.2255L456.906 58.0955L458.756 56.7955L461.386 57.4255L464.286 58.6955L463.446 66.0155L463.506 66.2555L464.996 66.5955L465.406 67.2255L464.476 68.3055L463.096 68.8055L462.606 69.5955L462.526 70.5155L462.056 71.0655L461.866 72.1755L461.626 72.3655L460.396 71.9955L459.226 72.6855L458.946 75.7255L459.486 77.2855L459.406 78.2055H458.966L458.586 78.6055L458.176 78.0755L457.876 78.1055L457.466 78.9455L456.786 79.5555L456.866 80.2955L456.596 80.8455L455.636 81.2155L456.096 81.8755L455.996 82.2755L455.286 82.8555L455.506 83.5955L455.446 84.8855L452.706 85.3355L453.146 86.9955L454.446 88.0255L454.696 89.2955L455.376 90.2155L455.126 91.3955L454.616 91.9755L454.376 92.9555L453.636 94.1955L452.606 95.0355L452.036 95.9355L451.086 96.0455L450.616 96.3655L450.396 97.7655L449.356 98.7655L449.106 99.6055L447.076 103.345L446.636 106.115L446.386 112.775L449.216 116.305L451.206 118.065L456.416 118.855L460.786 118.675L463.096 119.915L464.256 121.045L465.186 122.515L468.986 124.035L467.706 127.555L477.136 131.125L476.456 140.055L486.806 156.135L481.286 166.585L471.916 173.285L466.946 168.185L460.446 167.555L459.446 167.635L458.286 168.365L457.556 169.775L455.546 171.375L451.336 177.235L444.686 181.495L438.026 186.645L436.076 188.295L434.156 189.525L433.306 189.605L432.516 190.045L431.916 190.675L431.206 190.805L429.146 190.565L427.356 191.295L427.876 193.905L427.556 194.475L425.166 195.935L423.826 196.485L423.116 195.045L421.316 195.285L420.006 195.725L419.516 196.145L418.996 196.175L418.316 196.045L417.506 195.315L416.906 195.185L416.166 193.175L415.246 191.815L414.756 189.805L412.616 190.275L411.916 190.745L411.726 191.135L411.896 192.125L410.426 191.525L409.666 191.835L408.016 192.045L407.956 192.595L407.306 192.905L407.546 193.345L407.356 193.635L407.326 194.945L405.906 195.885L405.096 197.115L403.716 197.975L403.116 198.915L399.806 200.485L399.046 200.405L397.586 199.625L396.846 199.655L396.276 199.315L394.786 199.365L393.936 198.925L393.316 199.495H392.936L392.586 198.425L390.656 197.325L390.416 196.935L386.636 199.575L386.046 199.915L385.066 196.125L379.336 190.325L376.166 189.355L377.146 192.305L376.066 192.745L374.816 191.515L373.236 191.205L373.346 190.085L372.946 190.525H372.646L372.376 190.185L371.886 190.655L371.506 190.265L371.566 189.485L371.186 189.175L369.116 188.865L367.196 188.965L367.516 188.055L367.306 187.975L366.956 189.025L366.416 189.125L366.386 189.675L365.876 189.255L364.706 189.385L364.616 189.045L363.986 188.545L364.366 188.235L364.286 186.455L362.516 185.145L361.486 185.405L358.286 187.605L356.076 187.295L353.246 187.945L352.866 188.655L352.536 190.355L352.186 190.725L350.306 191.825L348.046 192.295L347.266 192.195L343.756 190.835L337.206 187.805L333.186 186.605L332.146 186.525L331.656 186.765L331.546 187.365L330.026 187.495L327.766 188.255L326.356 187.755L323.416 186.055L320.996 183.445L318.956 181.955L318.146 181.015L318.396 180.515L318.286 180.255L317.546 180.125L316.456 178.325L317.196 177.675L317.666 176.735L319.236 174.925L321.486 173.905L322.136 173.255L323.766 172.805L324.636 171.575L324.796 168.905L324.476 168.355L323.956 164.765L323.086 163.715L323.926 162.985L324.466 163.145L324.876 162.855L324.796 162.615L324.216 162.665L324.276 162.425L324.896 162.375L325.136 162.685L325.356 162.445L325.336 160.615L325.476 160.435L325.796 160.775L325.776 160.485L325.286 159.755L325.226 159.105L324.716 159.285L324.466 159.125L325.636 158.835L325.796 157.625L324.946 154.455L324.616 154.085L324.316 152.955L324.396 152.405L324.076 152.225L323.856 150.835L323.916 148.265L323.506 147.795L324.886 145.465L324.556 144.945L324.936 142.765L324.536 142.895L323.536 142.375L323.726 141.195L323.286 140.935L323.446 140.645H324.016L324.126 139.545L324.336 139.915L324.556 139.865L324.066 138.425L324.346 135.935L323.876 137.695L323.796 139.745L323.196 140.165L322.786 139.715L322.726 138.825L322.126 137.565L321.686 136.855L320.576 135.855L320.326 134.305L320.546 134.095H321.546L321.736 134.775L322.366 134.805V134.125L323.036 134.075L323.526 134.865L324.256 134.765L323.516 133.005L322.946 132.345L322.486 131.325L322.186 130.145L322.406 129.255L322.186 128.205L320.746 125.075L320.476 124.945L319.886 125.075L315.916 128.805L314.806 129.335L314.536 129.835L314.066 129.785L313.626 128.315L313.836 128.075L314.166 128.285L315.086 127.995L315.706 127.575L320.126 123.295L320.426 122.875L320.866 120.745L320.536 120.165L320.626 119.845L323.186 118.295L324.536 116.535L325.436 113.295L325.876 107.395L326.366 105.185L326.316 104.075L325.466 103.605L325.256 103.025L325.826 102.445L326.016 101.895L327.156 101.265L327.346 100.605L327.106 100.445L328.376 96.5755L329.116 95.2055L329.746 93.3055L331.356 90.7255L333.726 88.6155L336.846 85.0855L338.146 84.5555L340.016 83.1055L341.916 82.0255L342.276 81.5755L343.986 80.6255L345.536 78.7255L348.396 76.0855L349.356 73.3955L353.756 68.9555L358.216 66.6555L360.176 66.2355L366.126 63.9855L367.596 63.6955L369.016 62.9855L370.076 62.9355L371.786 61.6955L381.676 55.9055L385.336 54.4755L386.826 53.6055L387.496 53.4755L387.926 53.0255L390.236 52.4155L392.056 51.1455L395.476 49.2455L397.886 48.4555L398.786 47.4755L400.476 46.9955L401.186 46.5455L399.476 44.0855L399.586 43.8455L400.026 44.4555L400.376 44.0855L400.676 44.7455L400.456 45.0855L401.356 46.3555L402.636 46.5655L403.616 46.0055L405.906 46.3255L410.466 44.9755L412.346 44.1255L414.276 43.8655L414.516 43.3655L414.946 43.8155L417.306 43.3955L421.516 42.0455L425.776 41.7055L429.876 40.9655L432.426 41.6555L432.706 40.9655L433.026 41.6555L433.696 40.6255L434.016 41.1055L435.476 41.1555L440.646 42.0855L446.926 39.1155L447.986 39.0355L449.236 40.0855ZM343.976 30.6455L342.136 30.8055L341.966 31.1255L342.236 31.4455L346.456 30.8655L347.086 30.9455L347.446 31.6655L346.976 33.4955L344.536 34.8955L343.796 35.1055L342.686 35.3455L342.386 35.2155L342.526 35.0055L342.356 34.8755L342.086 35.0855L341.726 34.9755L339.876 36.4055L337.106 37.8355L335.636 37.6255L334.796 36.8555L334.686 37.5155L335.096 38.2355L335.076 39.1055L333.536 38.7355L332.266 37.8055L331.396 37.6455L331.286 37.9855L331.476 38.1955L333.426 39.5755L335.876 40.5055L335.576 40.8755L335.106 40.5355L334.676 40.6655L334.326 41.0655L334.626 41.3255L334.186 41.6155L332.696 41.9555L326.156 41.7455L324.066 41.8755L321.596 42.5155L320.296 43.0955L317.316 46.1355L315.466 47.3755L314.386 47.7955L313.596 47.8455L312.176 48.8755L310.306 48.1855L309.926 48.9255L308.916 49.4255H308.126L307.666 50.0655L307.526 50.6955L306.106 50.5355L304.636 49.9755L303.056 50.5355L301.676 50.1155L299.206 52.2855L299.096 52.0255L298.466 51.7355L295.856 52.0555L295.196 52.9555L295.276 54.2255L295.056 54.4155L295.296 54.8655L294.746 54.9455L294.146 54.4655H293.496L293.246 54.8655L292.466 55.2855L291.566 56.5055L290.746 56.9055L290.046 57.7755L288.176 57.3255L285.736 55.7655L285.516 55.3955L285.076 53.1955V52.1155L285.966 51.0055L288.486 48.7855L290.056 46.4555L290.676 44.8955H290.866L290.696 45.6855L290.966 45.6555L291.136 44.6455L291.816 43.8555L291.736 43.6655L291.126 43.7355L291.586 43.4155L308.426 40.2655L311.466 39.5255L311.896 39.8955L312.716 39.7855L328.116 34.7755L328.856 34.0355L331.946 33.1655L341.506 29.3255L344.626 28.7455L346.286 28.7755L347.066 28.9355L347.336 29.2755L347.306 29.8555L347.006 30.2255L343.976 30.6455ZM428.686 27.2855L428.956 29.4055L428.556 28.7155L428.086 29.3255L426.896 29.9055L426.386 30.5655L425.516 30.1455L425.186 28.6655L426.106 27.3155L427.336 27.4255L428.566 27.1355L428.686 27.2855ZM375.136 27.2255L383.606 26.8855L394.286 25.6655L396.546 26.0655L407.786 25.4855L413.656 25.7255L414.736 25.9155L415.406 26.5755L415.086 27.2155L414.496 27.5355L412.896 27.8755L409.176 27.7455L407.796 27.9555L404.446 27.6655L402.226 28.6955L401.486 29.3055L398.966 29.9455L398.476 29.8955L397.166 30.5355L392.786 31.4855L392.536 31.7555L388.156 32.9755L385.226 32.8155L383.676 33.0855L383.516 32.9555L383.426 33.8855L383.106 34.2255L382.756 34.0355L383.036 33.8255L383.086 32.5255L379.956 32.3355L377.016 31.5955L375.416 31.7055L374.836 32.1055L374.326 33.3255L372.116 35.0255L369.726 35.7455L368.396 36.4655L366.406 36.5755L366.376 37.4455L365.916 37.8155L364.996 37.5455L362.706 36.0055L360.476 34.9755L359.306 33.6455L357.886 31.3655L357.836 29.7755L358.516 26.4355L359.196 25.2955L359.956 24.6855L360.906 24.3455L362.426 24.3155L365.796 25.6655L371.346 26.9655L375.136 27.2255ZM442.766 14.1755L444.186 14.4455L445.736 15.9055L447.886 16.2755L450.246 16.3855L461.826 14.7955L468.266 14.1855L474.046 13.9455L474.336 14.3955L474.086 15.0555L471.566 16.3555L470.066 16.9955L468.406 17.2855L464.826 19.0055L462.896 19.3555L461.836 20.6855L457.876 22.5455L456.836 22.7855L453.706 22.8655L450.066 23.6855L450.876 24.6655L450.816 24.9355L450.036 24.4555L449.686 23.8155H445.456L445.476 24.8455L445.146 24.8755L444.986 23.8655L443.906 24.0755L443.606 24.7655L443.196 24.9555L443.606 25.5155L442.256 25.3255L441.826 25.6655L442.256 26.2755L441.956 26.5155L441.896 26.9655L442.406 27.6855L441.456 27.8755L440.036 27.3455L439.196 27.4255L438.076 28.9355L437.556 29.0155L436.926 28.7455L436.876 28.5355L437.276 27.3955L437.546 25.1955L438.066 23.3955L439.206 21.1655L440.626 19.0955L443.716 16.3355L444.506 16.0155L444.266 15.6455L438.316 14.2655L437.146 17.2355L436.446 17.2855L436.116 17.0755L436.226 16.1155L437.316 13.5955H439.266L442.766 14.1755Z" fill="#252525"/>
<path d="M397.366 273.736L399.516 272.936L401.976 275.116L404.076 277.736L405.186 279.626L406.836 283.126L407.336 284.736L408.536 284.186L409.156 284.756L411.166 283.256L412.096 283.026L413.466 284.996L420.356 277.866L422.066 277.266L422.736 276.726L423.176 275.946L424.156 276.486L424.776 276.566L427.816 278.956L428.826 281.416L429.636 282.636L430.896 283.666L433.286 284.736L434.636 286.366L435.066 287.636L435.256 290.456L435.096 292.896L435.706 293.696L436.956 294.626L439.306 298.096L440.206 300.686L440.296 301.646L439.416 305.056L438.716 306.456L438.666 308.886L438.326 309.606L437.906 310.076L435.016 311.186L431.876 311.786L431.246 312.656L431.216 313.586L431.506 314.186L431.866 314.496L433.126 314.776L433.626 315.196L433.846 315.736L432.976 316.456L431.376 316.946L430.976 317.626L431.186 320.236L430.966 322.766L430.706 324.596L430.076 325.376L430.056 325.886L431.626 326.096L432.166 327.286L432.256 330.096L433.316 330.436L434.966 330.456L435.296 331.056L435.746 332.496L436.566 333.656L436.696 336.156L438.206 338.016L438.656 339.976L439.536 340.756L438.626 342.066V343.076L440.426 343.486L441.316 344.126L443.276 343.946L443.356 344.466L443.086 345.366L441.976 346.086L441.646 346.936L442.076 348.586L443.146 349.366L444.496 349.696L444.916 350.446L444.876 351.266L445.216 351.576L445.506 351.266L445.536 350.806L444.966 350.136L444.666 349.286L445.286 349.546L445.406 349.306L445.076 349.056L445.446 348.386L446.166 349.156L446.316 347.636L446.536 346.736L446.756 346.626L447.466 346.706L448.116 346.426L449.146 346.736L450.886 346.656L453.196 348.386L455.636 348.716L456.726 349.126L457.816 349.106L458.246 349.436L460.336 349.256L461.866 349.696L461.946 348.946L462.986 349.306L463.356 348.796L465.186 348.306L465.316 348.716L465.796 348.816L465.906 349.256L466.396 349.696L469.666 349.726L470.936 349.366L472.326 349.306L472.416 347.116L473.466 346.426L474.096 346.316L474.416 345.626L477.406 345.446L479.166 344.696L480.066 345.136L482.106 345.006L484.686 345.316L484.636 346.606L485.746 348.176L486.396 350.036L489.586 353.376L490.886 356.006L491.826 356.366L492.866 356.416L493.186 356.726L493.256 358.146L494.126 360.106L494.656 360.796L496.186 361.546L496.706 362.056L497.246 362.236L500.266 361.156L506.556 362.186L512.246 361.026L512.356 360.766L512.836 361.056L512.886 361.466L513.866 361.876L514.176 362.496L514.876 362.986L514.366 364.036L514.476 364.456L515.806 365.686L517.136 364.686L517.806 364.456L518.076 363.626L518.456 363.316L519.296 363.576L520.066 364.656L520.846 363.296L521.506 363.346L524.766 365.066L525.206 365.476L525.496 366.326L525.466 366.946L524.956 367.696L525.396 367.926L525.366 369.336L525.576 370.056L525.366 371.706L523.686 374.406L526.016 375.486L529.466 376.126L532.176 377.386L539.306 377.336L538.626 382.656L538.076 383.526L537.936 383.166L537.536 383.016L536.616 383.886L536.756 384.556L537.506 385.276L537.536 385.996L535.576 388.436L528.846 389.566L529.196 390.236L529.106 391.006L528.106 393.086L527.566 393.316L527.506 394.316L527.746 394.596L527.726 397.596H532.046L538.196 400.546L539.736 401.906L540.256 402.966L541.336 403.396L546.716 407.806L546.726 408.756L547.016 409.086L549.876 409.526L550.386 411.166L550.226 412.956L550.746 415.006L550.446 416.116L549.986 416.926L547.886 417.006L547.106 417.746L545.446 418.336L545.006 421.616L545.036 423.796L543.376 425.486L543.736 425.896L541.226 428.966L538.326 430.166L538.296 431.066L537.976 431.396L535.636 432.216L534.876 433.616L533.386 434.336L530.766 432.266L530.256 431.706L530.146 430.706L529.756 430.906L529.436 430.776L528.876 429.396L528.086 429.376L527.326 428.916L526.556 429.146L520.256 432.136L519.246 433.186L518.686 433.236L517.896 432.956L510.576 435.406L508.676 436.716L507.506 437.836L507.046 437.866L506.346 436.916L505.146 437.406L503.976 438.656L502.406 439.676L500.606 440.426L499.116 441.466L498.656 441.906L498.626 442.646L497.956 443.596L494.746 444.456L493.386 445.256L492.536 444.946L490.936 442.796L490.236 442.206L489.386 442.906L487.436 443.876L486.936 443.466L486.646 442.036L484.936 441.466L484.526 440.856L481.916 440.626L481.106 439.886L480.756 440.036L480.886 440.706L480.266 442.446L480.376 442.796L482.806 444.746L483.976 445.046L484.056 445.456L482.846 447.146L482.836 448.116L483.546 449.596L483.466 449.776L482.866 449.616L483.386 451.386L483.246 451.796L482.736 451.966L480.076 450.206L477.616 450.136L476.616 449.676L476.836 448.986L476.236 447.476L475.096 446.456L470.376 445.836L467.456 446.116L466.646 442.466L466.236 442.206L466.426 441.446L464.726 440.626L463.936 440.526L463.386 439.986L462.186 439.806L461.486 440.086L460.796 441.006L459.526 441.396L456.956 441.346L456.266 441.116L453.366 441.466L452.606 441.286L450.646 440.136L448.436 437.866L448.326 436.846L449.536 436.616L449.146 436.156L449.196 435.616L445.806 433.036L445.596 433.516L443.716 432.336L440.106 432.956L439.036 433.776L437.866 432.856L437.296 433.976L436.786 433.676L436.466 433.976L436.536 434.646L435.746 435.286L438.196 435.336L439.876 436.536L440.976 437.046L441.846 439.476L441.946 440.886L445.026 443.366L444.966 444.896L445.316 448.416L441.926 447.196L439.556 446.686L436.836 446.786L434.796 446.326L433.496 445.686L431.006 443.466L429.206 442.336L428.336 443.946L427.306 444.386L427.676 445.226L427.526 445.786L425.646 446.836L424.316 448.066L423.796 447.526L421.926 448.216L421.116 449.826L419.256 450.766L416.956 451.026L415.476 450.466L414.266 450.366L412.956 449.546L410.396 452.716L412.496 454.346L411.986 455.006L411.756 454.826L411.536 455.056L411.166 454.776L410.976 454.936L410.726 454.706L410.436 455.036L410.536 455.546L413.226 456.996L413.806 458.026L415.436 459.296L415.506 459.656L414.936 460.016L415.296 460.396L414.696 461.566L415.206 462.616L416.196 462.586L416.916 463.076L417.386 462.916L417.556 463.176L416.516 464.226L416.346 465.576L417.436 466.826L417.356 467.566L412.526 471.156L411.986 471.316L411.656 471.746L411.646 473.016H411.046L410.886 473.506L410.536 473.686L408.716 473.806L408.066 473.126L408.036 472.666L407.366 472.076L406.246 471.516H405.566L405.046 468.656L402.056 464.836L401.056 464.656L397.776 465.086L397.716 465.676L398.576 468.816L397.686 469.756L395.316 469.326L388.176 470.116L384.346 471.106L382.036 471.086L380.946 470.856L379.646 470.216L378.716 469.426L377.886 468.096L378.066 467.946L377.636 467.206L376.436 465.986L375.726 465.576L372.686 465.066L371.926 464.326L370.796 462.386L369.596 461.236L366.636 460.726L364.946 459.656L363.856 458.046L362.916 455.266L361.876 454.116L361.066 453.886L359.086 453.936L358.186 453.576L355.536 451.846L353.526 451.356L351.606 451.746L348.806 451.946L348.096 452.556L346.926 454.496L345.906 454.806L342.616 453.986L340.186 451.566L339.206 451.056H338.616L337.076 451.716L336.506 452.816L336.276 454.266L335.596 455.236L334.726 455.856L332.746 456.336L331.716 456.486L329.516 456.286L327.936 455.626L326.476 453.556L325.976 453.226L324.676 453.246L324.186 453.656L323.396 455.086L321.526 457.486L318.776 462.156L317.796 465.416L317.646 468.766L317.036 469.836L316.236 470.416L311.236 472.716L308.056 474.906L307.316 474.956L305.196 474.196L303.436 474.036L302.316 474.426L301.096 475.446L300.086 475.776L298.926 475.336L297.286 473.866L296.146 473.376L295.246 473.276L291.526 474.086L288.386 473.326L286.336 473.406L280.746 474.826L280.686 472.966L282.516 471.436L283.216 470.396L282.476 469.756L282.186 469.096L282.256 468.076L282.726 466.726L282.616 465.986L279.006 464.226L277.406 462.566L276.616 462.156L275.656 462.006L274.736 462.406L273.196 464.046L272.076 464.196L271.506 463.966L270.116 462.436L269.416 460.956L268.626 460.416L268.646 459.706L268.276 459.326L264.036 457.386L262.816 456.316L261.966 454.246L261.036 453.576L263.406 453.626L264.436 448.646L261.036 448.186L260.086 446.606L260.426 445.196L259.846 443.336L260.256 442.906L262.056 444.486L266.066 444.386L267.596 444.996L268.116 444.406L269.906 443.696L270.496 443.136L269.406 442.466L269.006 441.596L269.256 440.726L270.556 440.086L272.476 440.066L273.576 439.446L274.626 437.886L274.796 436.636L275.246 436.276L276.186 436.566L277.216 436.306L278.916 436.716L279.276 436.026L279.566 433.846L281.756 429.786L282.506 430.136L282.406 428.526L284.436 425.586L284.306 424.946L284.766 424.846L289.336 416.136L291.506 417.546L293.536 417.986L294.386 417.776L295.516 416.776L296.906 414.086L297.586 413.246L298.786 412.936L300.036 413.676L301.886 415.596L303.646 416.546L305.656 417.086L308.216 417.416L310.666 419.056L312.016 419.136L313.946 418.156L315.516 416.136L316.766 415.266L318.106 415.056L320.406 415.546L321.916 415.446L326.886 413.546L328.966 411.786L330.006 411.216L334.326 412.066L337.116 411.756L338.026 411.986L340.186 413.296L341.226 414.246L346.336 416.136L347.476 417.956L348.616 418.856L349.846 419.386L353.946 420.436L356.626 422.236L358.216 420.826L359.126 421.336L359.056 420.026L359.996 419.796L360.006 418.266L359.316 416.596L359.286 415.906L359.696 415.266L359.866 414.186L358.266 412.296L357.916 410.196L357.236 409.136L356.246 408.936L354.976 407.756L354.326 407.066L354.186 405.426L353.916 404.986L353.426 404.446L353.046 404.856L351.496 403.166L352.366 403.146L352.576 398.656L349.566 397.526L349.776 395.756L348.566 395.236L349.126 393.726L349.516 389.946L349.346 389.596L349.806 387.696L349.546 385.686L349.106 385.666L348.586 385.046L348.456 383.196L347.856 382.786L348.156 382.066L347.886 380.596L346.816 380.756L346.896 381.246L346.556 381.316L346.146 380.836L344.736 381.196L344.846 381.856L345.326 382.016L345.336 382.376L345.736 382.706L345.296 383.736L346.146 383.966L346.066 384.636L345.956 385.146L344.676 384.766L344.166 385.666L345.216 386.096L343.696 387.716L342.376 387.436L340.976 387.536L340.566 388.926L338.706 388.946L337.366 389.416L334.646 387.796L334.546 387.306L333.916 387.156L333.616 386.816L335.326 384.636L337.606 383.196L337.396 380.526L338.776 379.186L338.856 378.696L337.746 377.976L341.016 378.316V377.956L340.356 377.596L340.386 376.716L339.616 376.466L338.886 375.566L339.246 375.636L339.466 374.196L341.196 373.946L341.966 372.456L339.836 371.396L339.726 371.016L340.026 369.516L338.396 369.466L337.116 368.906L337.336 367.176L336.886 367.026L336.986 366.486L335.956 366.046L335.876 365.656L329.836 364.836L327.316 363.936L327.446 363.006L327.186 361.466L326.666 360.946L327.346 360.406L328.536 360.766L329.186 360.226L329.596 358.246L329.546 356.726L323.076 351.446L324.896 343.616L327.236 342.716L344.816 337.686L345.406 336.856L346.466 333.966L351.706 317.776L353.556 314.906L353.946 314.526L356.246 314.026L356.786 314.106L357.506 315.016L358.586 314.136L362.506 312.276L363.076 312.456L363.836 313.256L368.156 309.556L369.626 309.586L371.116 309.146L372.446 307.846L374.186 307.156L375.326 306.326L375.706 305.676L376.516 305.036L376.246 304.536L376.336 304.176L376.676 304.096L377.276 304.646L377.686 304.666L380.156 302.676L380.346 302.316L380.916 302.156L384.286 299.056L385.536 298.306L388.616 295.276L388.946 294.266L390.696 291.726L389.786 290.406L389.836 290.116L392.056 285.896L392.496 285.686L393.606 286.056L393.906 285.746L393.886 285.246L394.886 282.506L395.296 280.016L396.276 278.586L397.366 273.736Z" fill="#252525"/>
<path d="M544.006 27.8356L544.656 28.2556L545.396 28.1756L547.426 26.2956L547.946 26.1056L550.696 27.2156L551.026 28.1456L550.966 28.8856L550.636 29.4456L547.886 28.8856L547.776 29.3856L550.246 29.9956L550.076 30.7156L548.796 30.4756L548.636 30.8956L550.726 31.3956L551.806 31.2656L552.996 31.5856L553.106 31.0556L551.826 30.8156L551.576 30.5256L552.246 27.9856L555.346 28.9656L558.846 32.3056L558.766 33.5556L557.516 37.0756L557.346 40.7856L558.236 41.6856L559.646 44.0956L559.216 44.7856L559.786 45.0256L559.996 45.5056L559.786 48.2856L560.686 50.9856L560.636 52.2556L561.526 56.1956L561.856 56.7556H562.856L565.736 59.3156L566.406 60.1856L567.196 60.2956V60.7456L566.606 60.8756L566.256 62.1456L567.906 62.6756L568.336 63.2856L568.876 63.2056L570.806 63.9156L571.326 64.3156L572.196 64.2856L573.036 64.5456L575.556 65.7656L576.396 65.9556L577.486 66.9556L578.606 67.6156L581.196 68.6156L583.266 68.5356L584.276 68.8756L584.656 69.2956L589.336 69.1856L589.996 68.2356L591.796 67.8956L592.386 67.2356H592.816L592.846 67.9256L592.416 68.0556L591.456 69.3456L590.526 70.0556L590.196 72.4056L590.476 74.2756L589.206 77.7856L589.286 78.7856L589.856 79.0756L589.936 79.8156L590.396 80.3456L591.536 80.8956L591.936 81.3656L592.566 81.4456L592.856 81.9956L594.896 82.0756L595.636 81.8156L595.656 82.2356L595.846 82.2856L598.326 82.3956L599.936 83.5856L601.806 84.0856L602.896 83.6656L604.366 84.7756L606.236 85.1156L606.666 85.4856L609.526 86.1956L609.776 86.4356L610.076 86.1756L609.856 85.5656L610.326 84.4056L610.866 88.1256L610.806 89.3156L611.466 91.3156L611.676 96.0356L611.436 96.8256L610.436 97.9856L610.186 98.6456L613.096 100.776L613.146 101.386L610.676 102.496L609.366 102.546L607.676 105.756L607.626 106.416L607.216 107.236L607.156 109.766L606.156 111.606L605.606 111.976L606.236 116.366L609.086 118.466L608.756 127.216L610.816 144.576L611.626 146.646L610.346 148.246L606.426 161.956L606.186 163.506L594.046 183.636L591.416 187.006L591.066 187.766L591.856 190.716L588.676 190.876L588.816 189.386L589.216 188.156L589.046 188.056L588.396 188.426L587.966 188.296L587.346 187.406L586.936 187.246L584.596 183.826L584.006 183.876L583.516 182.016L579.746 181.626L584.236 170.716L580.896 169.826L579.556 168.436L579.366 168.486L571.166 156.096L566.656 149.886L559.126 142.306L550.106 132.016L547.606 129.676L544.476 126.076L537.676 119.086L536.886 117.956L535.636 117.116L529.066 116.776L526.346 117.516L519.806 120.486L519.776 118.676L519.096 118.336L518.736 117.096L518.036 116.546L516.976 113.626L516.266 113.366L515.476 112.316L513.436 110.526H512.126L511.636 108.606V107.606L510.936 106.426L510.556 106.376L508.546 107.246L507.406 104.056L505.066 99.9756L504.466 99.9456L504.526 99.4156L503.466 97.3556L502.356 97.3056L498.066 95.4356L496.736 95.7756L495.316 95.7456L492.646 96.6156L489.976 97.1456L489.886 98.0656L488.496 99.4056L487.376 99.6956L487.206 100.016L485.026 101.496L483.476 102.156L483.206 102.686L482.986 104.716L482.276 105.456L481.656 105.666L480.576 107.426L479.596 108.396L479.326 110.186L476.906 116.606L476.546 119.976L475.376 120.346L473.366 125.626L469.026 124.026L465.226 122.506L464.296 121.036L463.136 119.906L460.826 118.666L456.456 118.846L451.246 118.056L449.256 116.296L446.426 112.766L446.676 106.106L447.116 103.336L449.146 99.5956L449.396 98.7556L450.436 97.7556L450.656 96.3556L451.126 96.0356L452.076 95.9256L452.646 95.0256L453.676 94.1856L454.416 92.9456L454.656 91.9656L455.166 91.3856L455.386 90.1956L454.706 89.2756L454.456 88.0056L453.156 86.9756L452.716 85.3156L455.456 84.8656L455.516 83.5756L455.296 82.8356L456.006 82.2556L456.106 81.8556L455.646 81.1956L456.606 80.8256L456.876 80.2756L456.796 79.5356L457.476 78.9256L457.886 78.0856L458.186 78.0556L458.596 78.5856L458.976 78.1856H459.416L459.496 77.2656L458.956 75.7056L459.236 72.6656L460.406 71.9756L461.636 72.3456L461.876 72.1556L462.066 71.0456L462.536 70.4956L462.616 69.5756L463.106 68.7856L464.486 68.2856L465.416 67.2056L465.006 66.5756L463.516 66.2356L463.456 65.9956L464.296 58.6756L461.396 57.4056L458.766 56.7756L456.916 58.0756L455.806 58.2056L455.106 57.3556L454.666 55.6856L454.076 54.7856L453.396 54.4156L448.176 52.9856L447.036 52.0356L446.496 51.1856L445.686 48.8056L445.556 45.4456L449.246 40.0656L449.816 39.7456L450.636 39.6656L450.906 39.9256L450.606 40.2656L450.686 40.6656L451.316 40.6956L457.326 38.9256L458.866 38.8156L460.196 39.2156L465.386 42.1256L466.176 42.6556L467.506 44.6456H467.746L470.036 43.2156L471.836 41.5956L476.646 39.3956L481.126 37.6756L487.776 36.5656L507.446 34.3156L512.196 32.9356L514.996 31.8256L517.406 30.4956L521.866 28.7156L529.346 26.2756L536.466 25.3956H538.186L542.186 26.6956L544.006 27.8356ZM483.336 11.0756L484.076 11.2056L483.996 11.8656L481.846 11.5756L480.156 11.6856L479.936 11.2656L480.216 10.8156L481.106 10.7356L483.336 11.0756ZM511.586 9.53558H512.516L512.686 9.72558L512.606 10.0156L512.066 10.2556L512.196 10.7856L512.026 10.9756L509.846 10.1756L509.486 9.61558L509.626 9.19558L510.686 9.06558L511.586 9.53558ZM516.286 5.01558L516.366 5.33558L516.176 5.54558L514.736 5.06558L513.946 5.25558L513.856 5.81558L514.786 6.61558L514.736 7.19558L511.496 5.65558L510.846 5.52558L508.936 5.89558L508.556 5.39558L508.616 4.97558L509.546 3.85558L510.556 3.56558L513.976 3.93558L516.286 5.01558ZM496.806 4.37558L498.246 4.48558L499.366 4.96558L502.076 7.22558L502.046 7.59558L501.506 7.67558L499.466 7.01558L498.836 7.12558L498.016 6.11558L497.826 6.14558L497.496 6.59558L497.796 7.65558L497.496 8.21558L495.916 8.24558L495.126 7.93558L494.276 8.51558L494.876 9.20558L494.766 9.78558L493.986 10.3156L492.596 9.91558L491.886 9.33558L491.536 7.23558L489.666 5.90558L489.016 4.92558L488.916 2.98558L489.786 0.465576L490.386 0.545576L491.066 2.85558L496.806 4.37558Z" fill="#252525"/>
<path d="M397.686 469.755L398.576 468.815L397.716 465.676L397.776 465.086L401.056 464.656L402.056 464.836L405.046 468.656L405.566 471.516H406.246L407.366 472.076L408.036 472.665L408.066 473.126L408.716 473.806L410.536 473.686L410.886 473.505L411.046 473.016H411.646L411.926 474.445L417.956 474.595L419.726 475.896L423.116 477.355L424.036 478.296L424.536 479.496L424.856 479.725L425.206 479.415L425.966 480.005L426.046 480.406L425.756 481.146L424.506 480.996L424.146 481.146L423.356 481.635L423.166 482.366L423.446 484.056L424.066 484.785L424.176 485.576L424.226 486.466L423.466 487.385L423.846 488.936L423.736 489.986L424.116 490.926L425.376 491.736L427.546 492.345L431.266 493.826L431.486 494.285L432.436 493.956L432.796 494.236V494.665H434.176L437.436 495.475L437.406 497.035L436.916 497.826L436.566 497.996L435.646 501.686L435.366 501.736L434.446 504.556L433.846 504.276L433.856 506.135L433.416 508.296L435.866 510.026L438.166 512.005L439.156 513.906L440.866 515.786L443.436 518.046L444.416 519.245L445.916 522.995L447.166 525.466L448.766 526.526L450.556 528.125L452.816 532.086L452.786 537.375L453.576 539.156L454.396 542.326L453.656 547.695L453.706 548.675L453.066 548.735L452.876 549.036L452.816 553.615L451.626 560.576L454.766 560.425L454.746 560.875L452.896 563.916L454.766 570.365L449.146 575.546L449.086 575.896L449.536 577.036L445.706 577.865L445.666 578.745L444.796 579.735L444.286 580.826L444.226 581.985L443.496 583.146L443.416 584.106L441.676 586.755L439.476 589.555L438.586 591.646L438.476 592.485L432.466 599.115L430.366 600.406L432.606 605.185L432.406 605.565L430.626 605.466L429.806 605.865L429.756 606.226L430.206 608.966L430.756 615.445L432.166 618.185L433.176 618.516L434.856 618.586L435.316 618.135L435.916 618.036L436.956 617.356L438.466 615.766L445.236 612.495L446.246 613.076L447.866 614.536L441.356 617.555L441.166 617.856L446.616 621.255L446.736 621.656L444.796 622.995L444.716 624.046L444.096 624.026L443.666 624.276L442.376 624.146L439.806 625.106L439.306 624.856L438.586 625.255L438.126 625.935L435.916 627.065L433.506 627.495L432.896 629.206L432.526 629.406L432.626 630.185L432.256 630.255L431.806 629.706L431.626 630.666L431.086 630.885L430.586 631.516L428.766 632.096L428.116 632.546L427.906 633.826L425.946 636.096L424.116 637.495L422.356 638.026L421.656 637.596L421.416 638.206L420.706 638.305L420.076 639.255L418.206 640.695L417.256 642.596L415.786 643.125L416.046 643.935L415.206 645.266L414.336 646.016L414.416 646.666L414.046 647.346L414.266 647.896L413.986 648.406L414.016 650.086L413.006 650.735L412.246 650.906L412.546 652.315L411.946 652.516L411.496 652.065L410.216 652.036L409.016 652.466L408.766 651.135L407.226 648.976L406.196 645.615L405.356 644.635L401.836 647.896L397.656 648.476L397.936 650.036L399.826 652.346L399.566 653.596L399.026 653.646L398.936 654.096L399.946 656.656L400.886 657.836L402.556 658.615L402.516 660.096L403.986 660.745L403.606 662.505L403.766 664.305L402.136 666.115L402.876 667.565L404.016 667.635L406.566 666.615L408.616 664.985L411.736 664.286L411.976 664.336L412.276 665.005L413.476 665.836L413.856 666.516L414.826 666.286L415.186 665.906L416.156 665.536L423.016 665.305L423.226 665.786L421.436 670.425L421.086 670.995L419.866 671.976L421.686 673.106L421.626 674.226L422.146 677.716L425.726 678.735L426.326 679.216L427.176 678.916L427.866 679.565L427.686 680.796L429.746 681.016L430.456 680.516L430.916 680.565L432.306 681.016L433.166 681.966L433.576 681.195L434.096 680.945L433.876 681.945L432.906 682.596L432.706 683.365L432.056 683.995L430.976 688.096L431.246 689.495L432.416 691.175L433.176 693.026L432.766 693.606L432.516 694.856L432.106 695.055L431.956 695.526L431.276 696.305L430.806 699.675L430.056 699.576L428.226 698.375L427.906 697.326L423.496 699.555L422.436 699.925L422.086 699.856L421.976 703.326L422.516 704.146L422.956 704.346L422.936 704.826L423.586 706.326L423.036 706.796L422.746 706.776L423.016 707.546L421.546 708.976L420.696 710.346L420.326 710.565L419.566 710.766L418.966 710.216L417.896 709.716L417.246 708.995L416.606 708.896L415.846 709.476L415.046 710.716L414.916 712.216L416.946 712.815L418.176 713.745L418.826 715.185L423.226 717.885L423.256 718.286L422.196 720.356L421.656 720.805L422.336 722.425L421.596 722.396L419.226 722.945L416.056 722.846L415.486 722.625L415.356 721.675L414.696 720.925L413.006 720.526L408.426 721.995L407.136 723.096L405.956 723.476L405.866 722.476L405.516 722.375L404.156 722.526L403.456 723.375L401.526 721.976L401.546 720.555L400.946 718.885L397.176 720.826L395.516 722.546L395.236 722.476L394.556 720.055L392.466 721.406H390.916L389.896 721.945L388.796 722.175L386.216 718.536L385.056 719.185L384.836 719.106L383.496 715.565L381.906 715.836L378.676 719.555L377.826 721.125H376.026L374.696 720.206L373.856 721.255L372.096 721.555L371.196 722.396L370.156 722.226L369.616 721.776L368.836 721.755L368.966 720.805L370.976 718.055L371.736 715.685L371.666 715.036L370.296 712.216L370.326 711.695L371.366 710.216L371.336 709.745L370.436 708.326L368.316 708.146L368.066 707.146H367.166L366.766 706.726L365.866 706.826L364.586 706.226L364.376 705.896L364.586 705.546L364.456 705.076L363.826 704.346L363.446 704.495L363.746 703.175L362.636 701.776L362.906 701.375L362.396 701.125L362.366 700.326L362.006 699.805L362.146 699.005L362.426 698.706L362.146 697.805L362.526 697.156L362.366 695.976L362.506 695.706L362.206 695.276L363.346 694.305L362.746 693.555L363.156 693.005L363.936 692.875L366.736 691.106H368.066L368.636 689.425L370.056 688.146L370.576 687.375L370.926 684.495L371.416 683.766L372.616 683.516L374.266 684.466L375.086 684.046L375.576 683.115V681.266L376.036 679.885L377.936 677.485L378.826 674.685L380.546 673.826L380.506 672.776L380.076 671.875L379.556 671.396L378.446 671.195L377.176 672.305L375.976 672.606L374.896 672.026L374.756 670.745L376.846 668.266L377.396 666.865L379.106 665.906L380.626 663.356L381.556 662.526L381.926 661.846L382.086 661.226L381.936 658.815L383.396 656.106L383.496 655.476L382.856 654.375L380.816 653.526L380.626 652.796L381.686 651.065L382.746 648.505L382.876 646.036L383.116 645.635H383.996L385.896 646.646L386.846 646.445L387.246 645.935L387.286 645.266L386.716 643.106L387.096 642.445L387.926 641.796L388.036 641.346L387.636 640.385L386.626 639.135L386.566 638.375L387.466 637.495L388.696 637.175L391.026 638.106L392.086 637.175L392.276 636.745L392.496 635.315L391.846 634.356L391.216 634.086L389.486 634.055L388.716 633.606L388.496 632.625L388.746 631.716L390.996 628.956L391.566 628.675L393.636 628.425L394.366 626.135L395.916 625.055L392.966 622.766L393.176 621.885L392.506 621.326L392.416 620.526L391.686 619.976L391.116 619.065L389.826 620.276L389.516 621.255H389.136L388.286 620.425L387.986 620.396L387.366 621.286L386.626 621.706L385.916 621.755L384.566 622.896L383.716 623.115L383.336 622.185L383.496 621.635L383.966 621.125V620.375L383.496 620.276L383.446 619.695L382.716 619.846L382.546 619.096L382.556 618.666L383.586 618.365L383.716 618.106L382.936 617.935L383.336 616.576L381.866 615.065L379.886 614.685L378.506 613.856L377.876 614.356L377.736 614.735L377.146 614.435L376.486 614.836L375.816 614.586L375.596 614.885L374.266 614.916L373.036 615.865L371.786 615.416L371.526 615.115L370.926 615.036L370.786 615.336L370.386 615.315L369.856 614.766L367.906 615.336L367.656 614.865L367.086 614.586L365.836 614.485L364.966 614.706L363.966 613.096L363.916 612.675L364.296 612.396L363.936 611.516L362.086 610.555L350.036 605.646L354.656 604.235L354.626 604.786L358.646 602.766L359.376 598.435L359.616 592.255L366.656 582.235L398.796 572.206L408.086 564.245L398.496 547.896L396.636 537.326L395.426 534.235L393.096 518.175L401.496 519.826L404.156 521.935L409.366 521.396L414.226 519.826L419.776 517.546L421.706 519.086L423.666 521.526L424.586 520.635L424.886 520.586L425.346 520.966L425.806 520.536L426.216 520.485L426.276 520.206L425.546 519.365L425.076 518.305L425.056 514.036L423.396 511.595L422.926 510.426L422.706 508.706L422.796 506.336L422.296 504.605L418.316 500.716L414.836 498.586L414.376 498.076L414.126 496.806L415.326 494.385L415.356 493.216L414.346 492.755H412.626L412.056 492.176L411.986 491.306L413.236 489.376L412.136 484.996L411.796 481.915L411.186 481.355L408.906 480.385L404.526 479.796L403.576 479.565L401.876 478.725L400.776 477.326L400.436 474.676L399.706 471.665L397.686 469.755Z" fill="#252525"/>
<path d="M261.036 453.575L261.966 454.235L262.816 456.305L264.036 457.375L268.276 459.315L268.636 459.695L268.616 460.405L269.406 460.945L270.106 462.425L271.496 463.955L272.066 464.185L273.186 464.035L274.726 462.405L275.646 461.995L276.616 462.145L277.406 462.555L279.006 464.215L282.616 465.975L282.726 466.715L282.256 468.065L282.196 469.085L282.486 469.745L283.226 470.385L282.526 471.425L280.686 472.955L280.746 474.815L286.336 473.385L288.396 473.305L291.526 474.065L295.246 473.245L296.146 473.345L297.286 473.825L298.936 475.305L300.096 475.735L301.106 475.405L302.326 474.385L303.446 474.005L305.206 474.155L307.326 474.915L308.066 474.865L311.246 472.675L316.246 470.385L317.036 469.795L317.656 468.725L317.796 465.385L318.776 462.125L321.526 457.455L323.396 455.055L324.186 453.625L324.676 453.215L325.976 453.185L326.486 453.515L327.946 455.585L329.526 456.245L331.726 456.445L332.756 456.295L334.736 455.805L335.606 455.195L336.286 454.225L336.526 452.765L337.096 451.665L338.636 451.005H339.226L340.206 451.515L342.646 453.945L345.936 454.765L346.946 454.455L348.116 452.515L348.826 451.905L351.626 451.705L353.546 451.325L355.556 451.805L358.216 453.545L359.116 453.905L361.096 453.855L361.906 454.085L362.946 455.235L363.876 458.015L364.966 459.625L366.656 460.695L369.616 461.205L370.816 462.355L371.936 464.295L372.696 465.035L375.736 465.545L376.446 465.955L377.646 467.175L378.076 467.915L377.906 468.065L378.726 469.395L379.656 470.185L380.956 470.825L382.046 471.055L384.356 471.085L388.186 470.085L395.326 469.295L397.696 469.725L399.726 471.635L400.456 474.645L400.786 477.295L401.896 478.695L403.586 479.535L404.536 479.765L408.916 480.355L411.196 481.325L411.816 481.885L412.146 484.965L413.256 489.345L412.006 491.275L412.066 492.145L412.636 492.725H414.356L415.366 493.185L415.336 494.355L414.136 496.775L414.386 498.045L414.846 498.555L418.326 500.695L422.296 504.585L422.806 506.315L422.716 508.675L422.936 510.405L423.416 511.575L425.076 514.015L425.096 518.285L425.566 519.355L426.296 520.195L426.236 520.475L425.826 520.525L425.366 520.955L424.906 520.575L424.606 520.625L423.686 521.515L421.726 519.075L419.796 517.525L414.246 519.815L409.386 521.385L404.176 521.915L401.516 519.805L393.116 518.155L395.446 534.215L396.666 537.305L398.516 547.875L408.106 564.225L398.816 572.185L366.676 582.215L359.636 592.235L359.396 598.415L358.666 602.755L354.646 604.775L354.676 604.225L350.056 605.635L349.456 605.105L348.746 600.185L348.966 598.215L348.756 597.255L348.976 596.975L348.896 596.295L349.116 595.635L348.876 594.395L347.026 593.085L344.256 590.085L343.086 588.475L342.506 587.015L338.456 585.875L337.506 585.795L337.426 586.125L336.716 586.785L336.286 588.075L334.636 589.585L330.786 590.315L330.296 591.805L329.406 591.905L326.806 595.365L321.336 594.055L315.496 592.345L315.276 592.545L315.306 593.275L314.736 594.735L313.926 595.415L310.416 595.365L307.206 595.765L302.426 594.555L298.646 595.845L298.016 595.565L296.576 594.175L298.936 585.295L298.716 584.665L292.526 580.655L288.396 582.015L286.626 583.405L282.166 582.045L281.756 573.785L280.596 572.795L279.916 571.885L279.396 570.445L278.766 569.565L272.226 562.255L275.576 555.475L277.376 552.415L273.226 542.585L268.776 542.455L267.996 542.255L266.876 540.325L266.956 538.655L266.246 538.355L265.786 538.485L263.996 539.955L263.236 541.345L262.256 542.205L261.686 543.775L262.096 546.685L261.256 547.925L261.356 549.095L255.136 554.365L254.156 555.355L249.586 561.355L249.526 560.495L249.056 560.525L248.946 561.055L249.356 561.515L248.346 561.975L247.206 561.645L248.806 561.215L248.446 560.755L247.846 560.935L247.656 560.455L246.676 559.745L246.436 558.655L245.426 557.695L245.106 556.915L244.596 556.885L244.166 557.465L243.816 556.785L242.886 556.605L243.076 555.995L242.586 556.125L242.476 556.475L241.096 556.125L240.986 556.475L239.846 557.435V558.045L239.686 558.075L238.576 557.695L238.596 556.985L237.646 556.905L237.166 556.575L236.356 557.255L235.186 556.725L227.716 558.215L226.056 557.505L224.946 556.695L224.516 555.605L224.546 554.515L224.266 553.345L224.676 552.565L225.196 552.415L226.916 552.265L227.326 553.075L228.136 553.405L229.746 553.585L231.646 554.295L232.496 554.875L233.616 555.105L234.836 555.735L234.856 556.215L236.136 556.185L236.106 555.885L235.636 555.635L236.636 554.775L236.496 554.645L235.436 555.075L234.056 554.975L233.926 554.775L233.226 551.835L233.306 550.745L232.896 548.795L232.916 548.415L233.616 547.885L234.436 546.645L234.576 545.885L234.856 546.365L235.406 546.545L236.276 545.755L234.706 544.565L235.306 542.365L235.556 540.055L234.966 539.725L232.406 539.295L232.116 538.635L231.946 536.985L231.546 536.425L228.686 535.255L227.466 535.385L226.546 535.185L225.946 534.275L224.636 534.125L222.726 534.555L222.346 535.185L221.476 535.315L220.886 536.105L220.906 536.765L220.356 537.855L217.806 539.195L216.556 541.705L215.686 542.315L215.626 543.045L213.696 543.505L213.016 545.605L212.066 547.355L210.686 547.655L207.966 549.225L208.346 553.655L206.716 554.185L205.546 553.755L203.646 554.745L201.906 553.855L193.486 552.285L187.176 554.635L186.326 548.055L189.046 542.105L187.366 539.645L179.456 540.885L178.156 540.685L177.266 540.835L175.686 542.485L172.266 543.095L163.566 547.905L162.996 548.005L162.266 548.915L163.116 549.215L164.526 549.185L165.226 550.295L165.056 551.435L165.526 551.865L165.246 552.425H164.616L164.966 553.635H164.396L164.206 554.215L163.206 555.325L164.556 558.635L170.756 566.805L169.886 567.845L170.706 569.565L169.266 569.285L164.896 571.485L163.076 571.815L162.186 571.735L159.576 571.075L156.636 570.975L155.766 566.775L155.416 566.215L146.226 566.495L145.686 564.905L144.686 564.775L144.166 563.635L144.486 563.335L144.426 561.845L144.836 561.365L144.786 560.045L144.026 556.405L144.646 555.165L145.926 554.005L145.146 552.735L139.146 538.525L137.076 534.165L137.046 532.215L138.076 529.125L137.966 528.875L139.726 524.155L139.916 523.065L139.816 521.615L139.646 520.935L138.416 518.825L133.196 512.425L132.566 510.825L132.456 509.835L132.666 507.545L133.806 505.075L135.606 503.295L139.956 501.385L141.636 498.235L145.926 498.745L149.726 497.855L151.896 496.885L155.016 496.225L158.306 494.695L159.696 493.885L161.086 492.435L162.166 490.655L162.546 489.005L164.526 487.045L164.986 486.025L165.876 485.995L166.316 484.845L167.356 484.185L169.526 482.145L181.406 486.115L184.886 486.475L196.756 483.215L199.256 481.205L209.226 478.355L214.016 474.965L217.516 471.855L219.526 469.635L220.236 468.515L221.766 463.895L224.216 460.985L226.586 459.705L228.786 458.995L230.926 458.865L234.966 459.475L236.706 459.095L237.636 458.715L240.086 456.955L242.946 453.995L246.676 452.135L248.446 451.725H251.056L255.656 452.745L261.036 453.575ZM249.206 547.645L249.226 548.125L250.016 548.075L249.736 548.275L249.896 548.555L250.496 548.505L249.836 549.515L249.396 549.645L249.486 550.325L249.156 550.475L248.886 549.585L249.096 549.305L249.016 548.825L248.506 549.255L248.366 548.975L248.616 548.695L248.506 548.315L247.636 548.845L248.226 549.555L247.876 550.115L248.066 550.365L247.956 551.095L247.636 551.045L247.046 551.555L248.886 551.935L249.296 552.895L250.226 552.665L250.636 553.125L251.186 552.345V551.685L250.806 551.705L251.156 551.175L251.446 551.325L251.796 551.025L251.466 550.925L251.606 550.575L250.976 550.445L250.996 550.775L250.696 550.825L250.566 550.475L250.376 550.655L250.186 549.845L251.156 549.945L251.096 549.265L250.816 549.115L250.486 549.295L250.546 548.835L250.826 548.655L251.096 548.885L251.696 548.175L252.046 548.075L252.266 548.605L252.396 548.255L253.076 548.055L252.986 547.675L253.256 547.445L252.906 546.865L252.736 547.325L252.166 547.605L250.156 547.855L249.206 547.645ZM251.866 549.165L251.926 549.445L252.986 549.315L252.276 548.735L252.196 549.035L251.866 549.165ZM243.946 554.575L244.086 554.375L243.916 554.145L243.516 554.675L243.946 554.575ZM239.766 557.155L239.786 556.855L239.486 556.905L239.516 557.185L239.766 557.155ZM250.796 559.135L250.636 557.845L249.876 558.225L249.036 558.305L249.626 558.885L248.966 559.445L250.796 559.135Z" fill="#252525"/>
<path d="M277.746 319.176L276.776 318.476L276.646 318.136L277.656 318.656L277.906 319.016L277.746 319.176ZM265.416 317.596L265.246 317.466L265.466 317.106L266.036 317.136L265.416 317.596ZM271.666 313.846L271.446 313.796L271.426 313.486L271.706 313.516L271.666 313.846ZM262.966 312.016L262.726 312.066L262.706 311.756L263.136 311.626L262.966 312.016ZM270.656 243.816L270.486 243.766L270.586 243.246L270.656 243.816ZM308.506 228.696L317.126 232.526L324.216 240.026L323.856 240.286L316.846 232.866L308.616 229.276L306.546 229.486L305.836 229.276L306.106 228.916L308.506 228.696ZM214.116 156.086L213.516 156.396L210.716 156.156L209.216 156.286L205.876 157.096L204.186 158.016L204.206 158.386L204.996 158.836L204.446 159.386L203.056 159.286L202.346 158.736L202.186 157.946L202.356 157.026L203.086 156.266L204.656 155.396L206.126 154.086L207.216 153.826H208.356L210.586 154.296L214.006 155.526L214.116 156.086ZM269.526 164.606L269.366 165.156L268.956 165.076L267.386 166.336L267.096 166.986L267.006 168.816L268.476 168.556L272.556 176.326L272.956 176.536L273.546 178.416L278.836 188.796L277.316 207.076L278.536 207.156L279.206 208.326L280.076 211.956L282.416 214.096L282.956 214.926L284.506 216.466L285.676 216.856L287.446 216.886L288.856 215.946L289.426 215.446L291.376 212.236L293.436 212.186L295.846 212.496L296.526 212.886L297.526 213.066L298.076 213.716L299.226 214.266L300.116 214.296L300.516 213.956L300.876 214.136L302.776 213.566L303.206 214.066L301.706 214.406L301.656 214.616L303.806 214.486L304.866 215.396L305.656 215.706L306.276 217.926L305.816 218.526L306.166 219.256L305.836 219.956L306.056 221.496L306.456 221.756L306.346 222.846L308.386 224.406L309.346 224.486L309.446 224.746L309.256 225.006L308.246 224.646L307.896 224.986L308.026 226.026L307.216 226.496L306.856 227.066L305.736 227.116L305.596 227.276L305.896 227.536L305.086 227.696L305.036 227.956L305.826 228.606L305.586 228.996L305.336 228.766L304.896 228.796L303.726 229.816L301.626 230.156L301.336 230.386L300.906 230.226L299.796 230.486L299.396 231.576L299.286 233.656L298.146 237.796L297.356 238.966L293.666 241.026L292.656 242.016L292.166 243.186L290.836 243.216L289.376 243.556L288.236 244.206L285.906 246.676L283.576 246.906L280.856 247.556L280.336 246.746L280.636 245.656L279.686 244.226L277.536 244.386L275.746 242.776L274.906 241.606L272.706 242.256L271.536 243.456L271.126 243.116L271.336 242.776L270.876 243.066L269.976 242.986L269.846 243.606L270.086 243.946L269.596 243.786L269.736 242.876L269.006 241.996L268.076 242.026L266.916 243.276L265.796 243.456L265.226 244.006L264.166 244.526L263.726 245.536L263.646 247.146L264.216 250.346L264.086 251.096L264.386 251.516L264.246 252.066L264.536 252.746L264.106 253.756L264.546 255.026L265.306 256.296L265.226 256.816L266.036 259.126L265.786 260.786L267.696 262.576L267.866 263.716L269.606 266.836L269.496 268.366L270.226 269.146L271.176 271.166L271.316 272.336L271.996 273.526L272.696 273.556L272.526 274.566L273.606 275.446L274.266 277.646L272.686 280.366L272.196 280.656L271.926 281.176L271.386 281.336L270.816 281.106L270.346 281.726L270.236 283.156L270.426 284.456L271.586 285.806L271.696 286.196L271.486 286.926L269.856 287.106L268.766 286.796L266.856 287.756L266.156 287.346L266.706 288.666L267.296 288.896L267.216 289.236L267.466 289.416L268.256 288.356L268.916 288.326L269.326 288.616L268.516 290.276L268.426 291.856L268.806 292.896L268.536 293.956L268.806 294.296H269.766L270.446 294.606L271.476 294.396L273.316 294.866L274.706 294.786L274.956 294.446L275.256 291.186L275.606 290.356L276.226 289.686L276.586 289.606L276.716 289.266L276.476 287.916L276.716 287.346L275.256 281.796L275.446 281.536L275.746 281.566L277.266 286.806L278.496 287.946L278.626 288.466L280.496 288.516L281.576 288.306L282.256 288.436L282.386 288.746L280.806 289.346L279.986 290.176L278.636 290.356L277.546 291.496H276.376L275.906 294.706L274.826 296.366L274.576 296.706H274.136L274.046 296.366L274.266 295.926L274.056 295.796L273.596 296.466L272.896 296.826L272.496 297.866L272.286 299.366L271.716 300.086L271.386 301.176L269.846 300.866L269.306 301.076L268.946 301.306L268.096 302.856L266.736 303.396L265.896 304.326L264.676 307.736L263.946 307.996L263.536 308.616H262.726L262.536 308.876L262.966 309.546L262.696 310.246L262.776 310.656L262.336 311.406L261.976 311.536L261.026 310.946L260.516 310.146L259.396 310.356L257.686 311.336L256.296 309.786L255.946 309.866L255.046 308.966L254.336 309.796L254.806 311.036L255.946 311.196L257.356 312.356L257.186 312.616L256.526 312.696L256.666 313.216L256.146 313.756L256.126 312.866L255.666 312.686H255.196L254.816 313.406L255.516 314.106L256.576 314.416L257.166 315.266L258.116 315.526L258.386 316.276L259.236 316.816L259.706 317.646L260.526 318.446L261.416 318.806L262.876 318.906L263.766 318.026L265.066 317.866L266.186 318.956L266.046 319.886L265.206 320.326V320.846L265.646 321.286L266.386 321.206L266.096 320.616L266.226 320.516L267.646 321.056L270.036 320.566L271.666 320.846L272.946 319.916L275.226 320.256L276.826 321.266L278.216 322.506L279.906 322.766L281.096 323.356L281.856 323.146L282.366 323.556L283.526 325.006L284.606 325.626L295.606 323.746L305.336 326.196L309.986 329.266L313.796 333.036L309.066 336.416L304.446 335.586L302.946 336.956L302.016 336.546L299.486 341.756L296.016 344.846L295.916 350.726L295.516 352.786L294.266 355.726L291.146 361.516H288.356L280.316 360.926L280.036 359.796L281.826 358.866L282.966 357.836L283.806 356.346L281.816 352.376L279.916 351.316L279.426 352.266L272.636 352.446L270.606 351.876L267.396 350.306L267.416 348.836L266.766 348.116L270.076 346.626L267.896 344.486L267.946 343.586L267.326 341.626L266.486 342.376L265.966 342.196L265.716 341.656L265.766 340.546L265.216 339.976L265.196 339.026L264.466 337.506H265.586L266.096 336.806L267.296 336.316L268.516 336.286L268.686 335.146L269.966 334.476L270.426 334.376L270.646 334.586V335.156L271.166 335.416L270.956 334.206L270.406 333.436L269.836 333.386L269.076 333.926L268.726 333.566L267.496 335.036L265.996 333.776L265.286 333.986L264.846 335.176L264.336 334.736L263.936 335.846L263.346 335.996L263.136 336.666H262.436L261.076 333.466L260.096 333.056L258.446 333.006L257.636 333.236L256.366 334.136L255.476 335.606L255.006 335.866L252.426 335.456L251.826 335.636L250.556 334.936L249.356 335.456L249.566 337.696L248.776 337.976L248.256 338.436L248.066 339.186L247.246 339.396L246.736 340.326L246.756 341.076L246.076 341.646L241.846 341.436L241.306 341.666L239.296 341.766L238.646 342.026L237.426 343.036L237.026 343.426L236.266 345.026L233.746 347.036L230.766 348.406L229.976 348.256L228.296 348.406L226.646 348.046L225.096 348.716L224.176 350.056L222.796 351.136L221.336 351.466L219.406 352.706L218.176 354.256L217.256 353.556L217.446 353.096L217.366 352.166L216.796 350.906L217.016 347.966L213.926 347.476L212.426 348.096L211.266 349.306L211.056 349.156L210.656 349.416L207.646 349.596L202.516 352.586L199.276 352.816L197.026 352.536L194.666 351.606L192.986 352.176L190.656 351.636L189.576 350.756L189.416 349.446L189.506 348.956L190.806 347.336L192.056 340.786L191.766 338.746L194.896 335.576L196.366 332.376L196.386 331.726L197.426 328.986L198.706 327.126L194.826 325.476L194.396 325.506L192.256 326.096L191.256 327.956L180.516 323.106L189.296 300.846L191.086 295.646L191.716 292.926L191.936 289.606L192.746 288.496L192.146 286.786L193.396 284.096L195.216 279.016L197.146 269.576L199.266 256.436L200.266 246.486L201.496 238.366L201.556 236.496L202.426 230.616L203.916 217.356L205.336 210.656L206.256 208.256L207.616 205.616L210.286 196.556L213.956 181.896L214.776 178.106L215.476 163.966L216.016 161.686L217.156 159.486L218.026 158.416L218.576 158.176L220.866 157.756L221.756 158.016L222.986 157.416L225.546 157.546L225.416 158.126L225.986 157.816L226.416 158.076L226.306 158.366L225.946 158.156L225.626 158.736L225.796 159.466L226.196 159.916L226.526 159.946L226.636 160.576H226.806L227.966 160.266L227.836 159.506L228.516 158.986L228.306 158.536L227.826 158.876L227.546 158.116L229.086 157.806L229.546 158.856L229.486 159.856L227.946 163.156L227.506 165.326L227.756 165.566L227.816 166.166H228.226L228.336 166.926L230.096 170.876L230.536 171.476L240.886 177.416L246.026 176.056L247.816 174.876L250.996 173.546L250.836 173.076L251.406 173.026L253.416 170.486L253.846 169.546L254.096 168.156L255.596 166.816L257.626 166.316L258.666 166.346L261.026 165.246L262.866 165.766L264.196 165.506L265.336 164.956L265.746 165.346L266.026 165.246L266.656 165.896L268.446 164.556L268.236 164.246L268.476 163.936L286.566 148.266L287.216 149.136L269.526 164.606ZM241.916 107.416L242.646 107.176L243.196 107.676L244.416 109.356L246.236 112.886L246.096 113.806L245.656 113.856L245.436 114.566L245.116 113.696L244.706 121.906L245.026 124.326L244.996 126.166L244.376 128.056L243.676 128.316L241.776 129.916L241.566 130.806L240.526 131.436L240.386 134.146L239.136 135.856L238.696 137.196L238.146 137.716L237.906 137.326L237.016 138.056L237.116 138.526L236.416 139.546L235.736 139.936L234.506 140.436L232.276 140.536L231.866 140.876L227.606 146.416L227.626 146.886L228.326 147.306L227.866 147.966H226.596L226.076 147.366L225.646 147.676L224.586 147.016H223.746L221.406 145.916L220.996 146.256L221.426 146.466L221.596 147.256L223.436 147.986L223.676 148.536L224.716 149.196L224.876 149.536L224.416 149.566L223.356 149.066L223.496 149.276L221.646 150.066L221.666 150.356L222.126 150.436L222.076 150.646L220.496 151.166L219.186 150.956L218.216 151.506L218.596 151.636L218.156 152.136L217.566 152.056L216.266 150.846L214.876 148.036L214.326 145.176L214.576 140.296L215.586 135.126L216.396 132.396L217.896 128.716L220.916 123.036L225.596 115.546L227.286 113.286L232.426 104.886L234.576 102.256L236.486 100.566L237.946 100.016H238.346L238.946 100.436L239.946 102.146L240.626 102.596L241.436 104.356L241.356 105.826L241.526 106.776L241.916 107.416Z" fill="#252525"/>
<path d="M438.015 186.635L439.225 188.206L439.575 189.226L440.365 190.266L445.975 196.796L447.105 197.426L450.105 201.555L451.135 202.596L445.975 208.305L445.785 209.566L442.715 211.105L439.075 211.986L438.735 212.226L438.015 213.476L441.215 221.715L443.005 225.626L443.815 228.436L444.795 229.736L445.335 230.076L445.535 229.946L446.055 230.436L446.815 232.006L448.035 231.506L448.415 231.946L450.445 232.186L451.295 231.016L452.145 230.986L453.405 230.516L453.575 231.196L454.995 232.006L455.445 231.846L455.615 232.206L456.815 232.805L457.685 232.726L458.525 234.135L459.455 234.836L460.585 234.915L461.125 235.646L461.925 236.165L462.355 236.086L463.055 235.206L463.635 235.286L464.605 236.605L465.065 236.866L465.595 236.796L466.165 235.956L467.375 235.876L469.335 234.946L470.285 234.896L470.825 235.826L470.395 236.346L470.445 237.516L471.615 238.566L472.845 239.006L473.245 239.525L474.685 240.385L474.775 240.926L475.095 241.266L475.585 241.215L476.285 241.736L476.125 242.076L477.125 243.326L477.385 244.596L478.065 245.555L477.915 246.626L478.385 247.426L478.465 248.266L479.045 249.046H479.445L479.585 249.766L479.805 249.826L481.235 249.066L481.625 248.396L483.135 248.446L483.635 247.536L485.065 248.266L485.525 247.896L485.635 247.296L486.585 246.596L487.025 245.796L487.195 246.385L487.625 246.805L487.575 247.816L488.105 248.495L489.055 249.096L489.985 249.245L491.725 248.726L492.235 248.186L492.845 246.256L493.545 246.626L493.515 247.275L494.175 247.536L494.355 247.946L495.555 248.076L495.885 247.796L496.895 247.846L497.845 248.266H498.845L499.275 249.066L499.985 249.116L500.255 249.766L500.615 249.796L500.695 250.346H501.065L501.295 249.896L500.855 245.536L500.365 244.076L500.015 241.055L500.125 240.566L504.855 236.665L506.155 235.936L516.255 233.665L525.885 238.245L531.285 240.126L530.475 241.965L530.805 242.076L531.035 242.596L530.015 243.715L530.335 244.256L529.765 245.866L531.585 245.976L531.875 246.025L532.535 247.096L532.965 247.326L533.785 248.915L533.355 251.956L532.805 253.826L532.705 255.876L540.205 262.496L538.045 263.306L537.135 263.355L536.065 262.915L535.195 262.966L533.655 262.576L532.855 265.255L532.045 265.906L531.985 266.296L526.475 265.176L530.415 273.406L529.295 282.345L531.835 284.296L532.805 284.866L533.755 285.046L537.935 288.255L539.245 288.796L541.855 289.576L551.195 289.236L552.995 289.656L553.955 289.556L553.945 291.986L555.575 291.646L562.565 293.665L567.935 295.665L569.005 295.276L571.235 293.095L571.825 292.195L573.565 288.176L575.325 286.936L576.115 287.945L576.205 288.616L577.505 291.725L578.805 297.135L580.575 298.746L582.855 303.915L582.805 304.385L583.705 304.336L585.325 304.975L585.975 304.595L586.435 304.796L586.445 305.595L587.255 306.845L588.805 311.546L588.695 317.056L586.035 320.776L585.755 322.535L584.625 324.206L584.735 325.475L584.355 326.736L583.205 329.035L582.695 329.505L581.425 332.345L581.315 333.116L581.365 334.276L581.715 335.385L581.685 336.035L581.475 336.186L581.555 337.345L582.455 338.306L584.085 342.035L587.255 345.576L586.555 347.195L583.125 349.415L580.485 349.595L580.005 349.975L579.595 349.565L577.615 349.026L576.225 349.336L575.825 349.176L574.735 349.725L574.615 350.285L573.855 350.936L573.965 352.605L573.235 354.516L572.375 355.646L570.975 358.656L569.355 361.135L569.045 361.366L566.315 361.906L562.485 362.466L562.175 362.956L562.035 364.165L558.485 367.466L556.985 374.176L554.325 376.746L548.645 377.336H539.305L532.175 377.385L529.465 376.126L526.015 375.486L523.685 374.406L525.365 371.706L525.575 370.056L525.365 369.336L525.395 367.926L524.955 367.695L525.465 366.945L525.495 366.326L525.205 365.475L524.765 365.065L521.505 363.345L520.845 363.296L520.065 364.656L519.295 363.576L518.455 363.315L518.075 363.626L517.805 364.456L517.135 364.686L515.805 365.686L514.475 364.456L514.365 364.035L514.875 362.986L514.175 362.496L513.865 361.876L512.885 361.466L512.835 361.056L512.355 360.766L512.245 361.026L506.555 362.186L500.265 361.156L497.245 362.236L496.705 362.056L496.185 361.546L494.655 360.796L494.125 360.105L493.255 358.146L493.185 356.725L492.865 356.415L491.825 356.366L490.885 356.005L489.585 353.376L486.395 350.035L485.745 348.176L484.635 346.605L484.685 345.315L482.105 345.005L480.065 345.135L479.165 344.695L477.405 345.445L474.415 345.626L474.095 346.315L473.465 346.426L472.415 347.116L472.325 349.306L470.935 349.366L469.665 349.725L466.395 349.695L465.905 349.255L465.795 348.815L465.315 348.716L465.185 348.306L463.355 348.796L462.985 349.306L461.945 348.945L461.865 349.695L460.335 349.255L458.245 349.436L457.815 349.105L456.725 349.126L455.635 348.716L453.195 348.385L450.885 346.656L449.145 346.736L448.115 346.426L447.465 346.706L446.755 346.626L446.535 346.736L446.315 347.635L446.165 349.156L445.445 348.385L445.075 349.056L445.405 349.306L445.285 349.546L444.665 349.285L444.965 350.135L445.535 350.806L445.505 351.266L445.215 351.576L444.875 351.266L444.915 350.445L444.495 349.695L443.145 349.366L442.075 348.586L441.645 346.936L441.975 346.086L443.085 345.366L443.355 344.466L443.275 343.945L441.315 344.126L440.425 343.486L438.625 343.076V342.065L439.535 340.755L438.655 339.975L438.205 338.016L436.695 336.156L436.565 333.656L435.745 332.496L435.295 331.056L434.965 330.456L433.315 330.436L432.255 330.095L432.165 327.285L431.625 326.095L430.055 325.885L430.075 325.376L430.705 324.595L430.965 322.766L431.185 320.236L430.975 317.626L431.375 316.945L432.975 316.456L433.845 315.736L433.625 315.195L433.125 314.776L431.865 314.496L431.505 314.186L431.215 313.586L431.245 312.656L431.875 311.785L435.015 311.186L437.905 310.076L438.325 309.605L438.665 308.885L438.715 306.456L439.415 305.056L440.295 301.646L440.205 300.686L439.305 298.095L436.955 294.626L435.705 293.695L435.095 292.896L435.255 290.456L435.065 287.635L434.635 286.366L433.285 284.736L430.895 283.665L429.635 282.635L428.825 281.415L427.815 278.956L424.775 276.565L424.155 276.486L423.175 275.945L422.735 276.725L422.065 277.266L420.355 277.866L413.465 284.996L412.095 283.026L411.165 283.255L409.155 284.755L408.535 284.186L407.335 284.736L406.835 283.126L405.185 279.626L404.075 277.736L401.975 275.116L399.515 272.936L397.365 273.736L396.115 266.605L395.625 265.126L388.885 257.926L387.435 257.665L383.695 257.725L383.755 250.866L393.145 250.885L393.575 250.186L394.395 249.846L403.715 247.796L404.975 248.286L405.775 249.146L408.115 248.855L411.755 246.805L411.985 246.236L417.225 245.086L420.785 242.726L421.615 241.766L421.575 241.366L421.185 240.715L419.295 238.846L416.725 238.146L414.205 235.936L412.665 235.415L411.575 235.336L409.475 234.506L409.455 234.866L408.775 234.786L408.395 234.346L408.335 233.456L410.125 231.426L411.595 230.415L412.495 229.346L413.005 229.266L413.415 228.586L413.385 227.676L412.705 226.165L412.175 225.756L411.865 225.775V224.866L411.325 223.926L410.215 223.355L408.615 217.826L407.495 214.936L406.925 214.046L403.875 211.156L403.305 211.126L402.355 210.525L400.735 209.146L399.805 207.836L396.705 205.696L395.315 205.025L393.445 204.686L393.115 204.446H390.215L390.185 203.956L388.045 202.076L386.635 199.566L390.425 196.926L390.655 197.326L392.585 198.415L392.935 199.486H393.315L393.935 198.915L394.785 199.355L396.275 199.305L396.845 199.646L397.585 199.616L399.045 200.406L399.805 200.476L403.115 198.915L403.715 197.976L405.085 197.116L405.895 195.885L407.325 194.946L407.355 193.635L407.545 193.346L407.305 192.906L407.955 192.596L408.015 192.046L409.665 191.836L410.425 191.525L411.895 192.126L411.715 191.126L411.915 190.736L412.605 190.266L414.745 189.796L415.235 191.805L416.155 193.165L416.895 195.176L417.495 195.305L418.305 196.046L418.985 196.176L419.505 196.146L419.995 195.726L421.305 195.286L423.115 195.046L423.825 196.486L425.165 195.936L427.555 194.476L427.875 193.896L427.355 191.286L429.145 190.555L431.195 190.786L431.915 190.656L432.515 190.036L433.305 189.586L434.155 189.506L436.075 188.286L438.015 186.635Z" fill="#252525"/>
<path d="M228.325 348.386L230.005 348.226L230.795 348.386L233.765 347.016L236.285 345.006L237.045 343.406L237.435 343.016L238.655 342.016L239.305 341.756L241.315 341.656L241.855 341.426L246.075 341.626L246.755 341.056L246.745 340.316L247.245 339.386L248.075 339.176L248.265 338.426L248.785 337.966L249.575 337.686L249.365 335.436L250.575 334.926L251.835 335.616L252.435 335.436L255.015 335.846L255.495 335.596L256.375 334.126L257.645 333.216L258.455 332.986L260.095 333.036L261.075 333.456L262.435 336.646H263.135L263.345 335.976L263.925 335.826L264.325 334.716L264.825 335.156L265.275 333.966L265.985 333.766L267.485 335.026L268.725 333.556L269.065 333.916L269.825 333.376L270.395 333.426L270.955 334.196L271.155 335.416L270.635 335.156V334.586L270.415 334.376L269.955 334.486L268.675 335.156L268.495 336.286L267.285 336.316L266.075 336.806L265.575 337.506H264.445L265.175 339.026L265.195 339.976L265.745 340.546L265.695 341.656L265.955 342.196L266.475 342.376L267.315 341.626L267.925 343.586L267.885 344.486L270.065 346.626L266.755 348.126L267.405 348.846L267.395 350.316L270.605 351.886L272.625 352.456L279.415 352.276L279.905 351.316L281.805 352.376L283.805 356.346L282.965 357.836L281.825 358.866L280.035 359.796L280.315 360.926L288.355 361.516H291.145L294.265 355.726L295.515 352.786L295.905 350.726L296.005 344.846L299.465 341.756L301.995 336.546L302.935 336.956L304.435 335.596L309.055 336.416L313.785 333.036L321.825 340.986L324.895 343.616L323.075 351.446L329.545 356.726L329.595 358.246L329.185 360.226L328.535 360.766L327.345 360.406L326.665 360.946L327.185 361.466L327.445 363.006L327.315 363.936L329.835 364.836L335.875 365.656L335.955 366.046L336.985 366.486L336.885 367.026L337.335 367.176L337.115 368.906L338.395 369.466L340.025 369.516L339.725 371.016L339.835 371.396L341.965 372.456L341.195 373.946L339.465 374.196L339.245 375.636L338.885 375.566L339.615 376.466L340.385 376.716L340.355 377.596L341.015 377.956V378.316L337.745 377.976L338.855 378.696L338.775 379.186L337.395 380.526L337.605 383.196L335.325 384.636L333.615 386.816L333.915 387.156L334.545 387.306L334.645 387.796L337.365 389.416L338.705 388.946L340.565 388.926L340.975 387.536L342.375 387.436L343.695 387.716L345.215 386.096L344.165 385.666L344.675 384.766L345.955 385.146L346.065 384.636L346.145 383.966L345.295 383.736L345.735 382.706L345.335 382.376L345.325 382.016L344.845 381.856L344.735 381.196L346.145 380.836L346.555 381.316L346.895 381.246L346.815 380.756L347.885 380.596L348.155 382.066L347.855 382.786L348.455 383.196L348.585 385.046L349.105 385.666L349.545 385.686L349.805 387.696L349.345 389.596L349.515 389.946L349.125 393.726L348.565 395.236L349.775 395.756L349.565 397.526L352.575 398.656L352.365 403.146L351.495 403.166L353.045 404.856L353.425 404.446L353.915 404.986L354.185 405.426L354.325 407.066L354.975 407.756L356.245 408.936L357.235 409.136L357.915 410.196L358.265 412.296L359.865 414.186L359.695 415.266L359.285 415.906L359.315 416.596L360.005 418.266L359.995 419.796L359.055 420.026L359.125 421.336L358.215 420.826L356.625 422.236L353.945 420.436L349.845 419.386L348.615 418.856L347.475 417.956L346.335 416.136L341.225 414.246L340.185 413.296L338.025 411.986L337.115 411.756L334.325 412.066L330.005 411.216L328.965 411.786L326.885 413.546L321.915 415.446L320.405 415.546L318.105 415.056L316.765 415.266L315.515 416.136L313.945 418.156L312.015 419.136L310.665 419.056L308.215 417.416L305.655 417.086L303.645 416.546L301.885 415.596L300.035 413.676L298.785 412.936L297.585 413.246L296.905 414.086L295.515 416.776L294.385 417.776L293.535 417.986L291.505 417.546L289.335 416.136L288.315 415.466L285.495 414.986L284.355 414.316L283.565 412.656L283.215 410.016L282.805 409.246L280.745 408.036L279.165 407.446L277.965 407.066L276.155 406.966L274.485 407.446L271.455 408.936L270.905 409.756L268.105 411.956L267.075 413.086L266.665 414.316L265.845 415.446L264.245 415.626L261.805 413.706L260.605 413.476L259.975 413.596L258.535 414.446L256.475 417.366L255.575 417.986L254.365 417.906L251.975 416.956H251.095L250.015 418.086L248.955 420.616L247.755 422.126L244.665 422.926L243.195 423.056L241.555 423.616L240.265 418.566L239.165 417.676L238.765 416.286L237.575 415.546L235.715 413.416L234.065 411.086L234.685 410.806L233.675 409.426L232.465 409.016L231.065 407.146L237.405 405.576L237.545 405.246L236.255 402.756L235.235 403.296L232.615 403.196L231.645 403.886L229.875 404.066L229.435 402.626V401.706L230.825 400.706L230.555 398.776L231.695 397.936L233.735 394.756L236.345 392.776L239.655 391.566L240.455 389.926L235.535 389.976L233.975 390.366L234.035 388.996L233.145 387.926L232.865 386.666L232.595 382.756L232.685 380.426L227.275 376.536L227.535 375.486L229.475 374.616L229.795 372.556L230.695 371.246L231.965 370.706L233.445 370.416L234.365 369.936L234.735 371.446L235.615 372.146L238.705 372.556L239.845 372.376L239.925 372.096L240.635 371.756L240.045 367.716L243.295 366.456L243.335 366.096L238.035 362.416L235.645 361.566L231.125 356.576L230.805 355.776L229.735 355.826L229.475 354.466L229.505 351.936L228.385 350.086L228.325 348.386Z" fill="#252525"/>
<path d="M123.986 569.956L124.416 569.986L124.446 569.606L124.606 569.706L125.336 571.276L125.056 571.476L123.506 571.626L121.556 570.766L121.066 570.206L122.256 569.426L123.676 569.626L123.986 569.956ZM30.766 559.996L33.706 560.936L33.496 561.546L33.686 561.676L34.086 561.496L34.246 561.696L35.166 561.726L36.736 563.576L37.686 563.906L39.336 563.956L40.236 564.206L40.486 564.686L41.436 564.936L41.646 565.416L45.586 566.556L52.756 567.696L53.536 568.606L53.646 569.066L54.006 569.216L54.116 569.676L56.666 571.346L57.886 573.066L59.406 573.216L60.636 572.816L64.516 573.596L64.676 574.096L64.046 574.606L63.956 575.536L65.616 576.416L66.216 576.446L66.276 576.166L65.976 573.436L66.106 573.086L69.156 573.166L69.726 573.876L70.886 574.506L72.406 574.736L71.946 575.236L71.916 575.696L73.076 577.946L73.406 577.766L72.966 576.326L73.506 576.096L73.126 574.856L73.596 574.906L73.456 575.256L73.726 576.086L74.196 575.836L74.546 574.906L74.896 574.936L74.656 575.286L74.956 575.636L76.176 575.816L77.396 576.576L81.436 576.476L82.496 575.136L82.846 574.176L85.206 573.466L85.886 572.586L88.716 570.636L90.426 569.906L93.026 569.346L93.116 569.116L94.306 568.736L94.826 568.816L95.156 568.516L95.936 569.126L96.146 568.086L95.976 567.686L96.516 566.626L96.626 565.086L97.496 564.146L97.126 563.286L96.966 561.056L98.616 558.726L101.196 558.956L101.576 559.486L105.516 560.096L105.196 560.626L105.576 561.006L105.986 560.826L106.606 561.866L107.156 562.066L107.806 564.396L107.536 564.576L107.726 565.206H108.376L109.576 567.786L110.506 568.926L114.996 569.206L117.066 569.556L120.766 572.786L123.536 576.076L125.166 577.006L123.426 574.736L122.586 572.896L124.296 572.236L125.296 572.186L125.786 572.536L126.276 573.546H127.176L127.876 574.046L128.726 575.256L128.646 575.736L128.946 575.786L129.356 575.156L128.656 574.546L128.326 573.786L130.806 573.916L130.426 573.516L128.246 573.116L127.866 572.736L131.446 572.556L132.666 572.836L132.006 572.176L128.956 572.156L127.576 571.726L126.266 569.476L126.346 568.316L127.386 567.986L128.036 568.216L129.016 567.386L129.606 567.256L130.036 570.336L132.316 571.676L133.436 571.876L131.636 570.936L130.666 570.076L130.366 569.366L130.396 568.076L130.696 567.796L131.126 568.126L131.296 569.186L131.466 567.016L132.096 566.306H133.426L134.506 566.766L134.966 566.736L136.086 567.596L136.736 569.746L137.706 571.366L139.396 573.236L137.136 576.676L129.046 587.126L118.306 595.246L115.396 597.136L114.766 597.766L112.726 598.826L112.186 599.786L109.276 600.466L108.836 600.266L108.326 599.406L107.676 599.936L106.486 600.416L105.916 599.456L104.876 599.486L102.886 600.596L102.146 601.426L101.386 601.726L100.606 602.456L100.306 602.076L98.896 604.416L96.636 604.816L96.576 605.546L95.926 606.756L94.196 606.886L93.406 607.136L93.386 607.466L92.326 607.796L91.856 606.686L91.096 605.826L90.616 606.636L89.696 606.686L89.206 607.516L89.416 608.626L88.946 608.706L88.356 609.516L86.636 610.296L85.746 609.966L85.426 610.366L84.586 610.796L84.266 610.016L83.346 608.956L85.186 607.546L85.646 606.636L84.716 605.076L83.336 605.786L80.126 608.076L79.016 607.396L78.616 607.696L78.266 607.546L77.526 607.946L76.606 607.566L75.496 608.426L74.416 608.676L72.386 607.766L71.576 607.636L71.406 607.836L71.626 608.666L71.486 608.796L70.696 608.136L70.376 607.456L69.476 607.226L69.236 606.746L69.066 603.896L69.226 599.636L70.196 596.966L69.976 596.616L68.786 596.316L67.326 595.006L66.616 594.706L66.346 595.286L65.666 595.636L64.876 595.106L64.006 593.416L63.386 593.036L62.766 593.366L58.846 592.436L57.836 592.836L54.336 591.826L53.956 591.596L53.406 590.516L51.726 590.486L51.316 589.806L48.386 588.086H46.376L45.646 588.586L43.386 587.246L42.656 587.326L42.196 586.546L37.816 584.226L36.246 586.096L37.006 587.456L36.406 587.886L36.676 588.566L36.396 589.046L35.906 588.566L35.386 588.696L34.676 588.086L34.626 587.736L33.266 587.056L32.746 587.256L32.536 587.916L32.046 588.266L30.256 588.036L29.446 589.756L28.576 589.886L27.386 588.696L25.836 588.996L27.756 599.366L20.576 600.226L15.826 600.556L14.876 600.456L12.616 599.596L11.986 599.646L11.546 597.306L11.276 596.956L10.136 595.876L8.99598 596.606L8.34598 595.266L6.66598 594.206L5.74598 592.386L4.35598 592.036L3.78598 591.326L4.73598 590.546L4.70598 589.106L4.42598 588.656L3.03598 587.696L2.41598 586.126L3.83598 585.366L1.16598 582.206L1.12598 581.756L5.11598 577.236L4.82598 574.966L3.46598 573.196L3.33598 572.416L3.55598 570.546L2.24598 568.016L3.03598 566.876L4.39598 565.916L4.41598 566.316L4.69598 566.286L4.78598 565.776L7.64598 564.736L11.316 562.886L12.626 562.686L12.816 563.466L13.526 563.696L13.666 563.186L15.626 562.576L16.386 561.966L18.716 561.636L21.026 560.876L21.946 560.446L22.076 560.016L22.946 559.966L24.526 558.576L26.296 558.396L27.006 558.696L29.646 558.946L30.646 559.296L30.766 559.996ZM55.856 531.596L56.026 531.796L55.436 531.646L55.136 531.286H55.596L55.856 531.596ZM53.996 529.116L53.696 529.016L54.046 528.916L53.996 529.116ZM53.656 528.026L53.526 528.176L53.396 527.926L53.566 527.446L53.656 528.026ZM58.046 527.996L57.966 528.226L57.796 528.126L57.666 527.746L58.176 526.786L58.046 527.996ZM58.676 526.856V527.216L58.456 526.426L58.816 526.016L58.976 526.296L58.676 526.856ZM53.566 526.176H53.346L53.756 525.926L54.106 525.166L54.246 525.826L53.566 526.176ZM64.926 523.586L65.686 523.666L65.966 523.466L66.746 523.996L65.526 524.276L62.976 524.226L62.996 523.596L63.246 523.266L63.796 523.216L64.926 523.586ZM82.756 522.976L82.396 522.946V522.766L82.886 522.256L83.136 522.616L82.756 522.976ZM67.266 522.996L66.256 522.436L66.336 522.306L66.766 522.206L67.496 522.506L67.266 522.996ZM65.896 522.286L66.066 523.126L64.336 522.946L63.906 522.516L65.346 522.086H65.756L65.896 522.286ZM52.526 522.056L53.206 522.356L53.826 522.966L54.146 523.676L54.206 524.636L53.766 524.506L53.356 525.776L53.056 525.546L52.766 524.126L52.106 522.656L52.136 521.896L52.526 522.056ZM51.006 521.296L50.876 521.446L50.496 520.536L51.046 520.616L51.006 521.296ZM50.196 519.576L50.516 519.626L50.616 520.106L50.206 519.856L49.616 519.936L49.676 519.636L50.196 519.576ZM128.776 507.986L128.226 507.836L128.576 507.706L128.776 507.986ZM76.696 469.626L78.006 470.906L82.536 472.336L84.146 472.026L87.356 467.946L89.796 466.496L92.836 465.706L95.766 466.116L98.016 468.156L104.056 469.506L104.496 470.166L105.126 472.896L107.736 476.596L107.976 481.536L108.486 483.546L109.876 485.986L111.016 486.446L117.976 487.006L120.966 488.076L123.946 487.996L126.276 488.246L133.526 493.746L138.686 497.306L141.646 498.276L139.966 501.426L135.616 503.336L133.816 505.116L132.676 507.586L132.466 509.876L132.576 510.866L133.206 512.466L138.426 518.866L139.656 520.976L139.826 521.656L139.926 523.106L139.736 524.196L137.976 528.916L138.086 529.166L137.056 532.256L137.086 534.206L139.156 538.566L145.156 552.776L145.936 554.046L144.656 555.206L144.036 556.446L144.796 560.086L144.846 561.406L144.436 561.886L144.496 563.376L144.176 563.676L144.696 564.816L145.696 564.946L146.236 566.536L140.536 566.786L140.856 566.226L140.936 564.856L138.986 561.616L136.106 560.296L135.066 560.496L134.716 559.506L134.036 558.876L132.616 559.026L131.336 559.856L130.446 560.186H129.716L127.276 561.676H126.236L124.436 561.326L123.156 560.566L119.346 559.886L115.546 558.466L115.146 558.366L114.936 558.546L113.986 557.456L112.256 556.946L110.606 555.276L110.636 554.896L109.826 553.756L110.376 552.896L107.826 552.106L107.666 551.016L107.416 550.916L107.126 551.366L104.796 550.256L104.016 549.396L103.146 549.366L102.876 548.886L102.306 548.606L102.066 548.046L100.406 546.906L99.506 545.386L98.606 544.826L96.546 546.266L94.706 546.416L92.106 548.216L90.856 547.606L90.636 547.736L90.806 549.026L90.096 549.176L90.756 550.746L90.786 551.636L89.886 553.306L89.506 554.976L89.126 555.416L89.066 556.146L88.656 556.556L86.856 561.616L85.746 562.146L82.216 561.086L80.866 561.796L80.076 562.626L78.886 562.546L78.126 563.206L76.846 563.386L76.066 563.796L73.376 563.976L73.246 564.276L72.566 564.046L70.886 561.996L69.316 560.906L69.126 560.506L66.836 559.016L67.106 557.926L65.156 557.796L63.446 556.686L61.956 557.516H60.426L59.956 557.286L59.036 556.526L58.196 553.586L57.406 553.666L56.676 552.096L55.016 550.446L52.596 548.496L51.476 547.886L46.616 547.686L45.726 548.526L45.646 549.286L44.696 549.846L44.266 550.026L43.256 549.876L42.526 550.156L41.716 549.956L40.516 550.256L39.346 549.316L39.266 547.366L38.716 547.446L38.616 549.546L37.826 549.316V548.486L37.496 549.166L37.306 549.086L37.396 548.356L37.156 548.276L36.946 548.906L36.896 549.106L38.576 549.916V550.116L37.186 549.786L36.256 549.986L36.206 550.416L35.856 550.186L35.096 550.596L34.276 550.186L33.876 549.246L32.486 547.906L31.556 547.986L31.286 547.526L29.026 545.956L27.556 544.566L26.816 543.606L24.556 539.296L23.036 537.116L21.426 535.566L20.446 535.316L16.186 532.196L14.526 529.966L13.746 529.536L13.466 528.726L12.846 528.366L13.066 526.316L13.776 524.366L17.176 522.386L20.576 519.666L23.106 518.036L27.016 515.696L28.286 515.266L30.376 513.666L34.676 511.456L36.146 511.176L38.016 511.606L39.426 511.506L41.146 511.866L42.946 513.086L43.626 513.056L48.496 511.206L50.646 510.726L51.386 510.266L51.986 507.166L52.076 505.256L52.346 505.106L52.186 504.526L51.806 504.446L51.486 504.066L52.626 503.866L53.226 502.926L56.406 499.646L56.166 499.166L56.946 498.966L57.906 496.856L57.396 496.216L57.556 496.016L58.176 495.986L58.206 493.106L55.866 492.366L54.046 490.866L52.336 488.216L51.826 486.666L51.586 485.116L51.646 483.386L52.866 480.536L54.176 478.196L55.076 477.206L56.006 476.796L59.166 475.756L60.876 475.656L65.846 473.616L69.926 473.586L74.106 474.426L74.786 471.266L75.466 470.296L76.696 469.626ZM71.166 485.986L71.706 486.116V486.366L70.896 486.136L70.726 485.376L69.996 485.506L69.286 486.016L68.716 487.336L68.956 487.766L64.276 490.946L63.346 491.506L58.776 493.106L58.726 495.926L59.516 496.026L59.216 497.096L58.346 497.126L57.036 500.306L57.356 500.386L57.876 499.776L57.936 500.136L56.496 501.716L57.956 502.476L57.736 502.626L56.376 502.016L55.866 502.476L56.116 503.566L55.756 504.226L55.616 503.976L55.786 503.466L54.866 502.706L53.406 503.976L53.376 504.176L53.646 504.306L53.286 504.506L53.176 505.246L52.926 505.376L52.956 505.736L52.626 506.266L52.196 510.026L52.526 509.926L52.426 510.506L53.266 509.896L53.296 510.406L54.866 510.076L56.656 511.296H57.126L57.506 511.986L59.346 512.016L60.806 511.106L61.946 511.286L62.646 510.676L64.526 510.626L64.956 510.096L66.856 510.506L67.866 509.546L70.826 509.266L71.456 508.686L72.706 508.656L74.386 509.236L76.226 508.626H76.966L77.586 509.416L80.636 509.976L82.326 511.776L84.936 516.326L85.456 515.866L85.546 516.346L84.956 516.576L85.066 516.936H85.366L85.586 517.846L86.236 519.036L86.596 519.136L86.406 519.926L85.366 520.586L82.656 521.346L80.886 523.736L79.616 524.146L79.026 523.896L77.866 522.676L77.626 521.966L76.136 520.956L73.386 521.586L71.516 523.106L68.906 522.496L68.766 522.646L66.646 521.406L65.036 521.206L64.786 521.456L64.566 521.276L60.336 523.736L59.366 524.906L57.056 526.476L55.976 528.326L55.486 528.626L54.696 526.846L55.136 525.326L55.596 525.556L56.136 527.226L56.296 527.176L56.186 526.546L55.806 526.016L55.776 525.436L55.316 525.106L54.746 523.156L53.226 521.026L55.126 518.536L54.966 518.436L54.586 518.896L53.366 520.676L52.716 520.826L51.576 520.116L50.516 518.896L48.966 518.136L48.746 517.626L48.206 517.856L47.506 517.426L46.256 514.256L46.146 513.516L46.416 513.386L46.546 512.926L45.326 513.226L43.506 514.186L43.786 516.546L44.106 517.126L45.486 518.446L45.406 518.956L46.306 519.846L46.416 520.306L47.766 520.886L49.586 522.356L50.156 522.506L51.566 525.446L52.516 528.266L54.636 531.386L55.256 531.916V532.496L55.506 532.036L56.046 533.026L55.696 532.116L56.206 532.416L56.096 532.136L58.236 531.706L57.776 531.506L56.366 531.656L55.906 531.046L57.376 530.416L58.246 529.506L59.476 529.256L59.556 529.076L59.046 528.696L58.936 528.216L59.946 526.336L60.136 525.166L61.906 524.026L62.666 524.076L62.236 525.096L62.726 525.066L62.916 524.356L66.716 524.276L69.946 524.706L71.226 524.276L71.586 523.666L71.996 523.486L73.486 523.256L73.736 522.926L75.636 522.846L76.476 522.996L77.636 523.656L77.966 524.166L77.916 524.546L78.466 525.026L80.346 525.406L80.836 525.176L80.696 524.466L81.286 524.106L81.586 524.136L81.876 524.946L84.376 524.256L85.786 524.736L86.146 524.376L86.586 524.676L86.836 524.066L87.706 524.036L88.496 523.526L89.466 523.956L90.746 523.906L91.206 524.536L91.376 525.806L91.726 526.546L93.116 528.546L95.566 527.476L97.406 527.806L100.936 529.076L102.506 529.866L102.826 529.766L102.726 530.906L102.976 531.816H103.466L103.296 529.786L104.436 530.496L105.256 530.596L105.916 531.936L106.436 532.016L106.546 532.316L108.476 533.656L109.346 534.566L110.516 534.206L111.056 535.046L110.736 536.106L111.096 537.276L111.426 537.476L111.806 538.236V538.646L111.336 539.456L111.476 539.606L111.206 539.936L111.556 540.286L111.886 541.346L112.296 541.546L113.406 543.146L113.646 543.066L113.836 543.366L113.646 543.496L114.946 545.526L115.766 545.556L117.186 548.646L118.686 548.996L122.406 551.346L122.486 551.166L122.816 551.246L123.406 552.156L124.306 552.286L126.726 551.876L127.536 551.116L130.096 549.776L130.856 549.726L131.206 549.266L134.256 549.796L134.726 550.046L135.026 550.526L135.806 550.756L137.546 550.626L137.066 545.736L137.426 544.516L136.506 537.596L129.706 534.526L129.136 533.566L129.076 532.956L129.966 531.126L128.746 530.116L128.446 529.376L126.626 529.246L126.056 528.966L125.616 529.526L124.886 529.706L124.636 529.676L123.656 528.586L122.326 529.096L118.496 528.946L118.326 528.716L116.936 528.796L116.806 528.336L114.086 528.136L113.626 527.606L113.906 527.176L113.466 527.046L113.576 526.846L113.336 526.596L112.736 526.646L111.926 524.486L112.166 524.076L111.166 523.186L110.786 523.336L110.516 523.036L110.426 521.846L107.786 521.366L106.746 520.786L107.176 519.596L106.166 518.096L104.486 517.386L103.856 516.576L102.876 516.016L100.706 515.686L99.836 514.516L99.896 513.196L100.906 511.646L102.816 511.446L102.796 511.246L103.856 510.836L104.366 511.066L105.376 510.406L106.036 510.656L108.506 508.826L109.736 508.746L110.876 507.526L111.746 507.296L112.146 507.446L112.306 507.086L114.366 506.446L115.616 506.856L116.456 506.726L118.416 507.136L118.906 507.666L119.396 509.016L119.806 508.816L120.126 508.966L121.126 509.986L120.916 509.276L122.626 509.306L125.376 508.746L125.916 509.176L127.226 509.076L127.416 509.256L127.686 508.516L129.526 508.236L129.606 507.676H128.876L128.856 507.476L129.896 506.896L129.836 505.976L129.096 505.926L128.356 506.406L127.866 506.126L127.056 506.656L122.376 506.526L120.846 503.446L119.516 502.376L118.966 502.346L118.366 501.866L118.236 499.226L118.456 498.846L119.156 499.126V498.316L121.526 496.226L123.136 496.276L126.016 497.116L127.136 497.676L127.946 498.386L130.156 499.356L132.866 501.006L132.756 499.686L132.076 498.486L130.386 497.496L130.256 497.806L129.786 497.936L127.256 496.356L127.036 496.026L127.506 495.136L127.416 494.956L127.066 494.926L126.336 495.946L124.216 495.206L124.356 494.896L124.036 494.646L124.096 494.466L124.526 494.746L127.386 494.546L127.446 494.036L126.906 493.956L126.936 493.706L126.606 493.506L124.916 493.686L124.096 494.166L123.996 494.016L124.726 493.586L126.276 493.436L126.466 493.026H126.676L126.706 493.336L127.176 493.386L127.286 492.976L127.646 492.746L126.936 490.866L126.466 490.506L126.136 489.866L125.166 490.476L119.616 491.316L117.446 492.816L117.636 493.326L119.156 494.876L118.886 495.636H118.146L117.786 496.426L118.216 496.626L118.196 496.926L117.946 497.236L117.616 497.206L117.556 497.946L115.386 499.296L115.056 500.136L113.516 501.766L111.636 502.686L110.146 502.026L108.546 502.866L108.266 503.346L106.126 504.136L103.836 505.386L101.236 505.436L100.346 506.196L97.686 506.366L96.516 505.726L94.526 503.646H94.086L93.106 501.636L92.726 501.276L92.476 501.306L91.666 502.576L90.696 502.886L90.716 502.576L89.876 502.496L89.306 502.726L86.266 501.786L86.076 501.426L89.666 498.246L90.836 497.786L89.526 498.116L85.966 501.316L85.156 501.566L85.236 499.146L84.456 497.726L84.626 497.366L84.216 495.786L83.616 495.406L82.826 494.086L82.906 492.966L80.136 490.346L79.706 490.146L78.426 490.556L74.516 488.546L74.726 487.856L74.636 487.016L73.816 485.796L73.106 485.416L72.106 485.266L71.096 485.396L71.166 485.986Z" fill="#252525"/>
<path d="M156.926 478.755L157.986 479.675L158.286 479.525L158.746 479.655L158.916 480.135L160.026 480.725L160.076 481.105L157.176 481.235L156.096 480.955L155.006 479.755L156.536 478.785L156.926 478.755ZM145.086 470.805L146.356 470.835L150.396 471.835L155.646 474.205L158.166 475.025L159.036 475.485L159.116 476.305L155.456 477.735L152.856 477.635L150.926 477.155L148.446 475.705L143.466 472.285L143.116 471.855L143.256 471.115L143.906 470.735L145.086 470.805ZM180.616 323.075L191.356 327.925L192.356 326.065L194.496 325.475L194.926 325.445L198.806 327.095L197.526 328.955L196.486 331.695L196.466 332.345L194.996 335.545L191.866 338.715L192.156 340.755L190.906 347.305L189.606 348.925L189.516 349.415L189.676 350.725L190.756 351.605L193.086 352.145L194.766 351.575L197.126 352.505L199.376 352.785L202.616 352.555L207.746 349.565L210.756 349.385L211.156 349.125L211.366 349.275L212.526 348.065L214.026 347.445L217.116 347.935L216.896 350.875L217.466 352.135L217.546 353.065L217.356 353.525L218.276 354.225L219.506 352.675L221.436 351.435L222.896 351.105L224.276 350.025L225.196 348.685L226.746 348.015L228.396 348.375L228.456 350.075L229.576 351.925L229.546 354.445L229.796 355.815L230.876 355.765L231.196 356.565L235.726 361.555L238.116 362.405L243.416 366.085L243.366 366.445L240.126 367.705L240.716 371.745L240.006 372.075L239.926 372.355L238.786 372.535L235.696 372.125L234.806 371.435L234.446 369.915L233.526 370.405L232.036 370.685L230.766 371.225L229.866 372.535L229.546 374.595L227.596 375.465L227.346 376.515L232.756 380.395L232.666 382.735L232.936 386.635L233.216 387.895L234.106 388.975L234.046 390.335L235.616 389.955L240.536 389.905L239.726 391.545L236.416 392.755L233.806 394.735L231.766 397.915L230.626 398.765L230.896 400.685L229.506 401.685V402.605L229.946 404.045L231.716 403.865L232.686 403.175L235.316 403.275L236.326 402.735L237.626 405.225L237.486 405.555L231.136 407.115L232.546 408.985L233.746 409.395L234.756 410.775L234.136 411.055L235.786 413.385L237.656 415.515L238.846 416.255L239.246 417.635L240.356 418.535L241.636 423.575L243.286 423.015L244.756 422.885L247.846 422.095L249.046 420.585L250.106 418.045L251.186 416.915H252.076L254.466 417.865L255.666 417.945L256.566 417.325L258.626 414.405L260.066 413.555L260.696 413.425L261.896 413.655L264.336 415.575L265.936 415.395L266.756 414.265L267.166 413.035L268.196 411.905L270.996 409.705L271.546 408.885L274.566 407.395L276.246 406.905L278.046 407.005L279.246 407.385L280.826 407.975L282.886 409.175L283.296 409.945L283.646 412.585L284.436 414.255L285.576 414.925L288.396 415.415L289.426 416.085L284.856 424.795L284.396 424.895L284.526 425.535L282.496 428.475L282.596 430.085L281.856 429.725L279.656 433.795L279.376 435.965L279.016 436.655L277.326 436.245L276.296 436.505L275.346 436.225L274.906 436.585L274.736 437.835L273.696 439.395L272.586 440.005L270.676 440.035L269.376 440.675L269.126 441.545L269.526 442.415L270.616 443.085L270.026 443.645L268.236 444.365L267.716 444.955L266.186 444.345L262.186 444.445L260.386 442.865L259.976 443.295L260.566 445.165L260.216 446.575L261.166 448.155L264.566 448.615L263.536 453.595L261.166 453.545L255.816 452.755L251.216 451.735H248.606L246.836 452.145L243.106 454.005L240.246 456.965L237.796 458.725L236.866 459.105L235.126 459.485L231.086 458.875L228.946 459.005L226.746 459.715L224.376 460.995L221.926 463.905L220.396 468.525L219.686 469.645L217.676 471.865L214.176 474.975L209.386 478.365L199.416 481.215L196.916 483.225L185.046 486.485L181.566 486.125L169.686 482.155L167.516 484.195L166.476 484.855L166.036 486.005L165.146 486.035L164.686 487.055L162.706 489.015L162.326 490.665L161.246 492.445L159.856 493.895L158.466 494.705L155.176 496.235L152.056 496.895L149.886 497.865L146.086 498.755L141.796 498.245L138.836 497.275L133.676 493.715L126.426 488.215L124.096 487.965L121.116 488.045L118.126 486.975L111.166 486.415L110.026 485.955L108.636 483.515L108.126 481.505L107.886 476.565L105.276 472.865L104.646 470.135L104.206 469.475L98.1657 468.125L95.9157 466.085L92.9857 465.675L89.9457 466.465L87.5057 467.915L84.2957 471.995L82.6857 472.305L78.1557 470.875L76.8457 469.595L78.9157 468.525L79.7357 467.735L81.1757 463.985L81.6057 462.735L81.4957 462.125L79.8857 458.195L79.8357 456.615L81.0557 454.725L82.4657 453.625L83.9557 453.315L86.2157 452.445L88.0357 452.395L89.3957 452.035L94.0157 449.865L98.7657 448.055L100.556 447.595L103.816 447.645L105.396 448.385L106.076 449.025L104.656 448.745L104.436 449.865L106.496 451.115L107.506 452.315L108.286 452.645L108.506 452.415L107.966 451.775L107.986 451.315L108.686 451.495L109.196 451.115L109.476 451.325L111.056 449.485L110.806 449.205L110.966 448.925L112.186 447.955L113.386 447.415L113.466 446.525L112.756 444.835L108.056 437.855L107.656 436.905L107.906 434.965L108.666 433.865L110.486 429.975L111.006 429.595L110.896 428.805L109.696 427.755L108.806 427.375L108.216 428.345L108.246 429.445L107.836 429.035H107.666L107.606 429.495L107.396 429.415L106.996 428.725L105.966 428.395L105.266 428.955L104.946 428.825L104.106 429.335L103.046 429.435L102.496 429.175L102.196 428.635L102.366 427.255L104.626 419.265L104.676 417.165L104.456 416.985L103.886 417.265V415.885L104.856 413.635L105.536 413.125L106.656 413.305L107.776 411.635L108.206 411.485L109.676 412.155L109.956 411.945L111.126 411.915L112.206 412.605L114.186 413.395L115.136 414.185L118.476 411.235L120.756 409.695L122.096 408.545L122.826 407.545L123.806 406.855L125.566 403.885L127.576 401.115L139.776 386.975L143.196 382.605L143.226 382.215L143.606 382.115L144.286 382.685L145.026 381.585L144.816 381.455L144.196 382.225L143.866 381.945L143.816 381.485L147.076 378.145L148.166 377.345L150.746 374.545L157.786 365.515L162.536 358.535L168.646 347.895L173.076 339.645L180.616 323.075ZM111.246 449.745L109.696 451.635L109.966 451.895L109.666 452.785L109.766 453.325L109.246 453.225L109.416 453.655L109.166 453.935L109.386 454.135L109.286 454.385L109.536 454.465L110.276 453.695L111.386 454.285L112.876 455.635L118.636 458.215L120.596 459.675L125.216 461.975L128.226 463.995L132.606 465.445L132.496 465.645L132.766 465.845L133.166 465.745L136.616 469.515L138.736 471.355L140.606 472.625L140.986 473.445L143.706 476.805L144.466 477.495L147.946 479.685L149.436 479.995L152.016 481.825L154.786 482.895L156.876 483.275L162.666 483.585L163.776 483.455L164.246 483.025L164.576 482.465L164.596 481.575L165.036 481.545L166.036 478.205L164.816 477.515L164.766 477.185L164.436 477.365L158.216 473.725L152.706 471.175V470.945L152.296 470.845L152.276 471.075L145.666 469.085L141.856 467.655L140.686 466.765L138.946 464.315L138.756 463.835L138.996 463.585L139.016 461.975L136.606 459.295L134.346 458.045L132.926 457.945L132.136 458.275L131.536 458.015L128.326 454.105L127.696 453.775L127.266 453.215L125.996 453.395L125.016 453.215L124.686 453.315L124.446 453.775L124.046 453.825L122.466 453.725L121.786 453.215L121.896 452.375L121.376 452.245L121.056 453.295L120.456 452.525L116.686 451.195L115.496 450.075L114.306 448.205L112.046 449.275L111.556 449.915L111.246 449.745Z" fill="#252525"/>
</g>
<defs>
<clipPath id="clip0">
<rect width="612.542" height="723.619" fill="white" transform="translate(0.867188 0.190674)"/>
</clipPath>
</defs>
</svg>
